{
DisplayStrings = (
"processes\012messagionog\012ngnogoo",
o,
"Q/Q.alt R\012/R.alt oshashanah\012S/Germandbls os\U00DF\012HH/Placeholder HH\012OO/Placeholder OO\012nn/Placeholder nn\012oo/Placeholder oo",
an,
/a.alt,
"a\U00E6e",
Q,
/Q.alt,
/R.alt,
"\U00E6",
g,
Oo,
"ononovonpewvynx/x.alt oyvno",
m,
nvwa,
vwy,
w,
"HOHOHH\012OOO",
"HOHOHHHH\012OOO",
"HOHOHOoHhHHHHDEFGIJ\012OOOOO\012MOONPOP",
JoUo,
a,
/hookabovecomb,
/Acircumflexhookabove,
/circumflexcomb,
"\U00F8",
/acutecomb,
"\U00C3",
/dieresiscomb,
"\U00C4/dieresiscomb",
"OO\U00D8\U00F8",
/hbar,
"vn/Zhe-cy XBEvwn",
/Hbar,
"69/notdef.001 aduYW0",
"A\U00C6E",
"HZHSV /Hbar PF ",
"?",
"\U00BFH?",
MZ/z.alt,
M,
"HUEBCO\012LDETTER RPCGROUPSOADINGSO",
"c\U00A2S$C/euro \U00A3Y\U00A5&",
$,
Y,
"\U00F0",
"\U00A5",
/euro,
"\U00A3",
"\U00AB",
"/z.alt \U00A5",
K/k.alt,
k,
A,
/dieresiscomb/dotaccentcomb/gravecomb/acutecomb/hungarumlautcomb/circumflexcomb/caroncomb/brevecomb/ringcomb/tildecomb/macroncomb/hookabovecomb/commaturnedabovecomb,
/gravecomb/acutecomb/hungarumlautcomb,
O,
/gravecomb,
DSC
);
classes = (
{
automatic = 1;
code = "A A.alt Aacute Acircumflex Adieresis Agrave Aring Atilde AE B C Ccedilla D Eth E Eacute Ecircumflex Edieresis Egrave F G H Hbar I Iacute Icircumflex Idieresis Igrave J K L M N Ntilde O Oacute Ocircumflex Odieresis Ograve Oslash Otilde OE P Thorn Q Q.alt R R.alt S Germandbls T U Uacute Ucircumflex Udieresis Ugrave V W Wacute Wcircumflex Wdieresis Wgrave X Y Yacute Ycircumflex Ydieresis Ygrave Z Be-cy De-cy Zhe-cy Ef-cy";
name = Uppercase;
}
);
copyright = "Aoife Mooney";
date = "2015-06-25 01:21:12 +0000";
designer = "Aoife Mooney";
designerURL = www.aoifemooney.org;
familyName = "BioRhyme";
featurePrefixes = (
{
automatic = 1;
code = "languagesystem DFLT dflt;\012";
name = Languagesystems;
}
);
features = (
{
code = "sub R by R.alt;\012sub Q by Q.alt;\012\012\012";
name = ss01;
},
{
code = "#alternate exit strokes\012sub a by a.alt;\012sub d by d.alt;\012sub u by u.alt;\012";
name = ss02;
},
{

glyphs = (
{
glyphname = A;
lastChange = "2015-11-11 18:40:05 +0000";
layers = (
{
anchors = (
{
name = bottom;
position = "{455, 0}";
},
{
name = hook;
position = "{648, 585}";
},
{
name = ogonek;
position = "{856, 10}";
},
{
name = top;
position = "{546, 520}";
}
);
layerId = "B29C398E-974A-40D0-A0A0-00935056D4B4";
name = "Light Extended";
paths = (
{
closed = 1;
nodes = (
"123 13 LINE",
"545 502 LINE",
"542 502 LINE",
"790 13 LINE",
"819 13 LINE",
"563 510 LINE SMOOTH",
"525 510 LINE",
"94 13 LINE"
);
},
{
closed = 1;
nodes = (
"276 0 LINE",
"280 23 LINE",
"-59 23 LINE",
"-63 0 LINE"
);
},
{
closed = 1;
nodes = (
"708 199 LINE",
"695 222 LINE",
"289 222 LINE",
"267 199 LINE"
);
},
{
closed = 1;
nodes = (
"971 0 LINE",
"975 23 LINE",
"637 23 LINE",
"633 0 LINE"
);
},
{
closed = 1;
nodes = (
"730 497 LINE",
"734 520 LINE",
"358 520 LINE",
"354 497 LINE"
);
}
);
width = 1034;
},
{
anchors = (
{
name = bottom;
position = "{271, 0}";
},
{
name = hook;
position = "{449, 580}";
},
{
name = ogonek;
position = "{512, 13}";
},
{
name = top;
position = "{357, 490}";
}
);
layerId = "543F9737-16F7-428D-9F96-2EBD9FC8D3B6";
name = Light;
paths = (
{
closed = 1;
nodes = (
"64 13 LINE",
"361 502 LINE",
"361 502 LINE",
"484 13 LINE",
"512 13 LINE",
"382 510 LINE SMOOTH",
"342 510 LINE",
"39 13 LINE"
);
},
{
closed = 1;
nodes = (
"166 0 LINE",
"170 23 LINE",
"-59 23 LINE",
"-63 0 LINE"
);
},
{
closed = 1;
nodes = (
"457 198 LINE",
"444 221 LINE",
"178 221 LINE",
"156 198 LINE"
);
},
{
closed = 1;
nodes = (
"609 0 LINE",
"613 23 LINE",
"385 23 LINE",
"381 0 LINE"
);
},
{
closed = 1;
nodes = (
"493 497 LINE",
"497 520 LINE",
"231 520 LINE",
"227 497 LINE"
);
}
);
width = 672;
},
{
anchors = (
{
name = bottom;
position = "{267, 0}";
},
{
name = hook;
position = "{449, 638}";
},
{
name = ogonek;
position = "{586, 9}";
},
{
name = top;
position = "{354, 502}";
}
);
layerId = "EB38A4D2-CD30-49BA-8E45-1F04A566FFE8";
name = Bold;
paths = (
{
closed = 1;
nodes = (
"97 13 LINE",
"372 463 LINE",
"321 463 LINE",
"435 13 LINE",
"573 13 LINE",
"432 461 LINE SMOOTH",
"259 461 LINE",
"-38 13 LINE"
);
},
{
closed = 1;
nodes = (
"203 0 LINE",
"220 96 LINE",
"-46 96 LINE",
"-63 0 LINE"
);
},
{
closed = 1;
nodes = (
"424 172 LINE",
"423 259 LINE",
"197 259 LINE",
"163 172 LINE"
);
},
{
closed = 1;
nodes = (
"594 0 LINE",
"611 96 LINE",
"346 96 LINE",
"329 0 LINE"
);
},
{
closed = 1;
nodes = (
"499 424 LINE",
"516 520 LINE",
"196 520 LINE",
"179 424 LINE"
);
}
);
width = 657;
}
);
leftKerningGroup = A;
rightKerningGroup = A;
unicode = 0041;
},
{
glyphname = A.alt;
lastChange = "2015-11-11 18:40:05 +0000";
layers = (
{
anchors = (
{
name = bottom;
position = "{452, 0}";
},
{
name = ogonek;
position = "{851, 10}";
},
{
name = top;
position = "{538, 490}";
}
);
background = {
paths = (
{
closed = 1;
nodes = (
"133 0 LINE",
"376 347 LINE",
"622 0 LINE",
"631 18 LINE",
"376 376 LINE",
"124 18 LINE"
);
},
{
closed = 1;
nodes = (
"522 151 LINE",
"228 151 LINE",
"215 133 LINE",
"535 133 LINE"
);
},
{
closed = 1;
nodes = (
"249 -1 LINE",
"249 18 LINE",
"0 18 LINE",
"0 -1 LINE"
);
},
{
closed = 1;
nodes = (
"506 18 LINE",
"506 -1 LINE",
"752 -1 LINE",
"753 18 LINE"
);
}
);
};
layerId = "B29C398E-974A-40D0-A0A0-00935056D4B4";
name = "Light Extended";
paths = (
{
closed = 1;
nodes = (
"543 530 LINE",
"94 13 LINE",
"123 13 LINE",
"546 498 LINE",
"534 498 LINE",
"784 13 LINE",
"813 13 LINE",
"549 530 LINE"
);
},
{
closed = 1;
nodes = (
"965 0 LINE",
"969 23 LINE",
"632 23 LINE",
"628 0 LINE"
);
},
{
closed = 1;
nodes = (
"274 0 LINE",
"278 23 LINE",
"-59 23 LINE",
"-63 0 LINE"
);
},
{
closed = 1;
nodes = (
"694 206 LINE",
"282 206 LINE",
"259 183 LINE",
"705 183 LINE"
);
}
);
width = 1028;
},
{
anchors = (
{
name = bottom;
position = "{274, 0}";
},
{
name = ogonek;
position = "{583, 10}";
},
{
name = top;
position = "{368, 530}";
}
);
layerId = "543F9737-16F7-428D-9F96-2EBD9FC8D3B6";
name = Light;
paths = (
{
closed = 1;
nodes = (
"364 530 LINE",
"39 13 LINE",
"64 13 LINE",
"366 496 LINE",
"356 496 LINE",
"486 13 LINE",
"513 13 LINE",
"370 530 LINE"
);
},
{
closed = 1;
nodes = (
"610 0 LINE",
"614 23 LINE",
"367 23 LINE",
"363 0 LINE"
);
},
{
closed = 1;
nodes = (
"184 0 LINE",
"188 23 LINE",
"-59 23 LINE",
"-63 0 LINE"
);
},
{
closed = 1;
nodes = (
"439 205 LINE",
"177 205 LINE",
"156 182 LINE",
"452 182 LINE"
);
}
);
width = 673;
},
{
anchors = (
{
name = bottom;
position = "{278, 0}";
},
{
name = ogonek;
position = "{587, 10}";
},
{
name = top;
position = "{364, 487}";
}
);
layerId = "EB38A4D2-CD30-49BA-8E45-1F04A566FFE8";
name = Bold;
paths = (
{
closed = 1;
nodes = (
"340 530 LINE",
"-27 13 LINE",
"103 13 LINE",
"381 436 LINE",
"323 436 LINE",
"451 13 LINE",
"587 13 LINE",
"405 530 LINE"
);
},
{
closed = 1;
nodes = (
"618 0 LINE",
"635 96 LINE",
"364 96 LINE",
"347 0 LINE"
);
},
{
closed = 1;
nodes = (
"208 0 LINE",
"225 96 LINE",
"-46 96 LINE",
"-63 0 LINE"
);
},
{
closed = 1;
nodes = (
"431 248 LINE",
"209 248 LINE",
"176 161 LINE",
"432 161 LINE"
);
}
);
width = 681;
}
);
leftKerningGroup = A.alt;
rightKerningGroup = A.alt;
},
{
color = 0;
glyphname = AE;
lastChange = "2015-11-11 18:40:05 +0000";
layers = (
{
anchors = (
{
name = bottom;
position = "{719, 0}";
},
{
name = ogonek;
position = "{1226, 0}";
},
{
name = top;
position = "{812, 520}";
}
);
layerId = "B29C398E-974A-40D0-A0A0-00935056D4B4";
name = "Light Extended";
paths = (
{
closed = 1;
nodes = (
"124 13 LINE",
"649 502 LINE",
"639 502 LINE",
"792 13 LINE",
"820 13 LINE",
"663 510 LINE SMOOTH",
"624 510 LINE",
"91 13 LINE"
);
},
{
closed = 1;
nodes = (
"286 0 LINE",
"290 23 LINE",
"-59 23 LINE",
"-63 0 LINE"
);
},
{
closed = 1;
nodes = (
"740 194 LINE",
"744 217 LINE",
"334 217 LINE",
"306 194 LINE"
);
},
{
closed = 1;
nodes = (
"1226 0 LINE",
"1258 183 LINE",
"1234 183 LINE",
"1206 23 LINE",
"614 23 LINE",
"610 0 LINE"
);
},
{
closed = 1;
nodes = (
"988 158 LINE",
"1030 397 LINE",
"1005 397 LINE",
"986 289 LINE",
"725 289 LINE",
"721 266 LINE",
"982 266 LINE",
"963 158 LINE"
);
},
{
closed = 1;
nodes = (
"1285 337 LINE",
"1318 520 LINE",
"442 520 LINE",
"438 497 LINE",
"1289 497 LINE",
"1260 337 LINE"
);
}
);
width = 1394;
},
{
anchors = (
{
name = bottom;
position = "{449, 0}";
},
{
name = ogonek;
position = "{817, 0}";
},
{
name = top;
position = "{542, 520}";
}
);
layerId = "543F9737-16F7-428D-9F96-2EBD9FC8D3B6";
name = Light;
paths = (
{
closed = 1;
nodes = (
"64 13 LINE",
"459 501 LINE",
"459 501 LINE",
"504 13 LINE",
"532 13 LINE",
"482 510 LINE SMOOTH",
"440 510 LINE",
"37 13 LINE"
);
},
{
closed = 1;
nodes = (
"166 0 LINE",
"170 23 LINE",
"-59 23 LINE",
"-63 0 LINE"
);
},
{
closed = 1;
nodes = (
"497 198 LINE",
"484 221 LINE",
"218 221 LINE",
"196 198 LINE"
);
},
{
closed = 1;
nodes = (
"817 0 LINE",
"841 136 LINE",
"817 136 LINE",
"797 23 LINE",
"405 23 LINE",
"401 0 LINE"
);
},
{
closed = 1;
nodes = (
"692 178 LINE",
"726 367 LINE",
"701 367 LINE",
"686 284 LINE",
"495 284 LINE",
"491 261 LINE",
"682 261 LINE",
"667 178 LINE"
);
},
{
closed = 1;
nodes = (
"885 384 LINE",
"909 520 LINE",
"331 520 LINE",
"327 497 LINE",
"880 497 LINE",
"860 384 LINE"
);
}
);
width = 940;
},
{
anchors = (
{
name = bottom;
position = "{382, 0}";
},
{
name = ogonek;
position = "{772, 0}";
},
{
name = top;
position = "{475, 520}";
}
);
layerId = "EB38A4D2-CD30-49BA-8E45-1F04A566FFE8";
name = Bold;
paths = (
{
closed = 1;
nodes = (
"54 13 LINE",
"403 463 LINE",
"347 463 LINE",
"381 13 LINE",
"504 13 LINE",
"463 461 LINE SMOOTH",
"282 461 LINE",
"-81 13 LINE"
);
},
{
closed = 1;
nodes = (
"160 0 LINE",
"177 96 LINE",
"-65 96 LINE",
"-82 0 LINE"
);
},
{
closed = 1;
nodes = (
"444 172 LINE",
"443 259 LINE",
"170 259 LINE",
"136 172 LINE"
);
},
{
closed = 1;
nodes = (
"772 0 LINE",
"806 193 LINE",
"698 193 LINE",
"681 96 LINE",
"285 96 LINE",
"268 0 LINE"
);
},
{
closed = 1;
nodes = (
"630 151 LINE",
"666 357 LINE",
"570 357 LINE",
"560 302 LINE",
"409 302 LINE",
"392 206 LINE",
"543 206 LINE",
"534 151 LINE"
);
},
{
closed = 1;
nodes = (
"830 331 LINE",
"864 520 LINE",
"219 520 LINE",
"202 424 LINE",
"739 424 LINE",
"722 331 LINE"
);
}
);
width = 889;
}
);
leftKerningGroup = A;
rightKerningGroup = E;
rightMetricsKey = "=E";
unicode = 00C6;
},
{
glyphname = B;
lastChange = "2015-11-11 18:40:05 +0000";
layers = (
{
anchors = (
{
name = bottom;
position = "{399, 0}";
},
{
name = top;
position = "{491, 520}";
}
);
background = {
paths = (
{
closed = 1;
nodes = (
"263 14 LINE",
"263 478 LINE",
"238 478 LINE",
"238 14 LINE"
);
},
{
closed = 1;
nodes = (
"664 247 LINE",
"776 247 OFFCURVE",
"828 302 OFFCURVE",
"828 365 CURVE SMOOTH",
"828 443 OFFCURVE",
"769 490 OFFCURVE",
"666 490 CURVE SMOOTH",
"56 490 LINE",
"56 467 LINE",
"666 467 LINE SMOOTH",
"755 467 OFFCURVE",
"803 427 OFFCURVE",
"803 365 CURVE SMOOTH",
"803 305 OFFCURVE",
"746 263 OFFCURVE",
"656 263 CURVE SMOOTH",
"254 263 LINE",
"254 240 LINE",
"656 239 LINE SMOOTH",
"756 239 OFFCURVE",
"837 202 OFFCURVE",
"837 128 CURVE SMOOTH",
"837 57 OFFCURVE",
"778 23 OFFCURVE",
"675 23 CURVE SMOOTH",
"56 23 LINE",
"56 0 LINE",
"673 0 LINE SMOOTH",
"805 0 OFFCURVE",
"862 48 OFFCURVE",
"862 128 CURVE SMOOTH",
"862 205 OFFCURVE",
"794 255 OFFCURVE",
"664 255 CURVE"
);
}
);
};
layerId = "B29C398E-974A-40D0-A0A0-00935056D4B4";
name = "Light Extended";
paths = (
{
closed = 1;
nodes = (
"610 0 LINE SMOOTH",
"727 0 OFFCURVE",
"807 45 OFFCURVE",
"823 136 CURVE SMOOTH",
"840 231 OFFCURVE",
"766 270 OFFCURVE",
"649 270 CURVE",
"647 262 LINE",
"758 262 OFFCURVE",
"821 315 OFFCURVE",
"834 391 CURVE SMOOTH",
"848 469 OFFCURVE",
"797 520 OFFCURVE",
"696 520 CURVE SMOOTH",
"85 520 LINE",
"81 497 LINE",
"689 497 LINE SMOOTH",
"768 497 OFFCURVE",
"822 465 OFFCURVE",
"809 391 CURVE SMOOTH",
"796 316 OFFCURVE",
"731 278 OFFCURVE",
"647 278 CURVE SMOOTH",
"240 278 LINE",
"236 255 LINE",
"638 254 LINE SMOOTH",
"737 254 OFFCURVE",
"813 222 OFFCURVE",
"798 137 CURVE SMOOTH",
"784 55 OFFCURVE",
"710 23 OFFCURVE",
"608 23 CURVE SMOOTH",
"-3 23 LINE",
"-7 0 LINE"
);
},
{
closed = 1;
nodes = (
"203 14 LINE",
"290 508 LINE",
"265 508 LINE",
"178 14 LINE"
);
}
);
width = 957;
},
{
anchors = (
{
name = bottom;
position = "{219, 0}";
},
{
name = top;
position = "{305, 490}";
}
);
background = {
paths = (
{
closed = 1;
nodes = (
"548 242 LINE",
"548 265 LINE",
"152 265 LINE",
"152 242 LINE"
);
},
{
closed = 1;
nodes = (
"261 0 LINE",
"261 23 LINE",
"20 23 LINE",
"20 0 LINE"
);
},
{
closed = 1;
nodes = (
"157 13 LINE",
"157 509 LINE",
"133 509 LINE",
"133 13 LINE"
);
},
{
closed = 1;
nodes = (
"261 497 LINE",
"261 520 LINE",
"20 520 LINE",
"20 497 LINE"
);
},
{
closed = 1;
nodes = (
"679 0 LINE",
"679 23 LINE",
"438 23 LINE",
"438 0 LINE"
);
},
{
closed = 1;
nodes = (
"567 13 LINE",
"567 509 LINE",
"542 509 LINE",
"542 13 LINE"
);
},
{
closed = 1;
nodes = (
"679 497 LINE",
"679 520 LINE",
"438 520 LINE",
"438 497 LINE"
);
}
);
};
layerId = "543F9737-16F7-428D-9F96-2EBD9FC8D3B6";
name = Light;
paths = (
{
closed = 1;
nodes = (
"265 0 LINE SMOOTH",
"382 0 OFFCURVE",
"462 45 OFFCURVE",
"478 136 CURVE SMOOTH",
"495 231 OFFCURVE",
"421 270 OFFCURVE",
"304 270 CURVE",
"302 262 LINE",
"413 262 OFFCURVE",
"476 315 OFFCURVE",
"489 391 CURVE SMOOTH",
"503 469 OFFCURVE",
"452 520 OFFCURVE",
"351 520 CURVE SMOOTH",
"59 520 LINE",
"55 497 LINE",
"344 497 LINE SMOOTH",
"423 497 OFFCURVE",
"477 465 OFFCURVE",
"464 391 CURVE SMOOTH",
"451 316 OFFCURVE",
"386 278 OFFCURVE",
"302 278 CURVE SMOOTH",
"145 278 LINE",
"141 255 LINE",
"293 254 LINE SMOOTH",
"392 253 OFFCURVE",
"468 222 OFFCURVE",
"453 137 CURVE SMOOTH",
"439 55 OFFCURVE",
"365 23 OFFCURVE",
"263 23 CURVE SMOOTH",
"-29 23 LINE",
"-33 0 LINE"
);
},
{
closed = 1;
nodes = (
"108 14 LINE",
"195 508 LINE",
"170 508 LINE",
"83 14 LINE"
);
}
);
width = 572;
},
{
anchors = (
{
name = bottom;
position = "{209, 0}";
},
{
name = top;
position = "{302, 527}";
}
);
layerId = "EB38A4D2-CD30-49BA-8E45-1F04A566FFE8";
name = Bold;
paths = (
{
closed = 1;
nodes = (
"294 0 LINE SMOOTH",
"430 0 OFFCURVE",
"510 55 OFFCURVE",
"526 147 CURVE SMOOTH",
"547 269 OFFCURVE",
"423 287 OFFCURVE",
"332 287 CURVE",
"324 240 LINE",
"391 240 OFFCURVE",
"508 277 OFFCURVE",
"526 379 CURVE SMOOTH",
"540 460 OFFCURVE",
"491 520 OFFCURVE",
"369 520 CURVE SMOOTH",
"54 520 LINE",
"37 424 LINE",
"346 424 LINE SMOOTH",
"375 424 OFFCURVE",
"410 411 OFFCURVE",
"401 363 CURVE SMOOTH",
"393 317 OFFCURVE",
"355 302 OFFCURVE",
"301 302 CURVE SMOOTH",
"181 302 LINE",
"166 215 LINE",
"332 215 LINE SMOOTH",
"389 215 OFFCURVE",
"413 197 OFFCURVE",
"406 157 CURVE SMOOTH",
"398 113 OFFCURVE",
"360 96 OFFCURVE",
"302 96 CURVE SMOOTH",
"-21 96 LINE",
"-38 0 LINE"
);
},
{
closed = 1;
nodes = (
"179 53 LINE",
"252 464 LINE",
"129 464 LINE",
"56 53 LINE"
);
}
);
width = 575;
}
);
leftKerningGroup = H;
leftMetricsKey = "=H";
rightKerningGroup = B;
unicode = 0042;
},
{
glyphname = C;
lastChange = "2015-11-11 18:40:05 +0000";
layers = (
{
anchors = (
{
name = bottom;
position = "{364, -10}";
},
{
name = top;
position = "{460, 530}";
}
);
background = {
paths = (
{
closed = 1;
nodes = (
"797 173 LINE",
"759 82 OFFCURVE",
"640 -20 OFFCURVE",
"426 -20 CURVE",
"234 -20 OFFCURVE",
"70 79 OFFCURVE",
"70 249 CURVE",
"70 419 OFFCURVE",
"241 517 OFFCURVE",
"434 517 CURVE",
"605 517 OFFCURVE",
"719 445 OFFCURVE",
"789 348 CURVE",
"769 348 LINE",
"769 491 LINE",
"792 491 LINE",
"792 311 LINE",
"690 447 OFFCURVE",
"561 494 OFFCURVE",
"434 494 CURVE",
"249 494 OFFCURVE",
"95 401 OFFCURVE",
"95 249 CURVE",
"95 97 OFFCURVE",
"244 3 OFFCURVE",
"426 3 CURVE",
"624 3 OFFCURVE",
"743 103 OFFCURVE",
"774 182 CURVE"
);
}
);
};
layerId = "B29C398E-974A-40D0-A0A0-00935056D4B4";
name = "Light Extended";
paths = (
{
closed = 1;
nodes = (
"575 -11 OFFCURVE",
"699 85 OFFCURVE",
"761 168 CURVE",
"743 181 LINE",
"690 107 OFFCURVE",
"563 12 OFFCURVE",
"365 12 CURVE",
"183 12 OFFCURVE",
"51 106 OFFCURVE",
"78 260 CURVE",
"105 414 OFFCURVE",
"275 507 OFFCURVE",
"460 507 CURVE SMOOTH",
"598 507 OFFCURVE",
"707 461 OFFCURVE",
"774 330 CURVE",
"786 331 LINE",
"820 520 LINE",
"797 520 LINE",
"769 361 LINE",
"780 361 LINE",
"728 461 OFFCURVE",
"626 530 OFFCURVE",
"465 530 CURVE SMOOTH",
"272 530 OFFCURVE",
"83 432 OFFCURVE",
"53 260 CURVE",
"23 88 OFFCURVE",
"169 -11 OFFCURVE",
"361 -11 CURVE"
);
}
);
width = 869;
},
{
associatedMasterId = "B29C398E-974A-40D0-A0A0-00935056D4B4";
background = {
paths = (
{
closed = 1;
nodes = (
"748 293 LINE",
"771 300 LINE",
"771 301 OFFCURVE",
"739 354 OFFCURVE",
"673 408 CURVE SMOOTH",
"608 462 OFFCURVE",
"508 516 OFFCURVE",
"376 516 CURVE SMOOTH",
"251 516 OFFCURVE",
"157 479 OFFCURVE",
"94 425 CURVE SMOOTH",
"31 370 OFFCURVE",
"0 298 OFFCURVE",
"0 227 CURVE SMOOTH",
"0 155 OFFCURVE",
"31 84 OFFCURVE",
"94 31 CURVE SMOOTH",
"156 -22 OFFCURVE",
"250 -57 OFFCURVE",
"375 -57 CURVE SMOOTH",
"534 -57 OFFCURVE",
"634 -2 OFFCURVE",
"694 53 CURVE SMOOTH",
"748 102 OFFCURVE",
"770 158 OFFCURVE",
"773 166 CURVE",
"748 174 LINE",
"746 166 OFFCURVE",
"727 119 OFFCURVE",
"675 71 CURVE SMOOTH",
"620 21 OFFCURVE",
"527 -31 OFFCURVE",
"375 -31 CURVE SMOOTH",
"255 -31 OFFCURVE",
"167 2 OFFCURVE",
"111 50 CURVE SMOOTH",
"53 99 OFFCURVE",
"26 162 OFFCURVE",
"26 227 CURVE SMOOTH",
"26 291 OFFCURVE",
"53 356 OFFCURVE",
"111 406 CURVE SMOOTH",
"168 456 OFFCURVE",
"255 490 OFFCURVE",
"376 490 CURVE SMOOTH",
"501 490 OFFCURVE",
"594 439 OFFCURVE",
"657 388 CURVE SMOOTH",
"708 346 OFFCURVE",
"739 309 OFFCURVE",
"773 247 CURVE",
"773 490 LINE",
"748 490 LINE"
);
}
);
};
layerId = "4CE72ED2-500C-4544-8864-BE0CB7E60B06";
name = Background;
paths = (
{
closed = 1;
nodes = (
"748 302 LINE",
"771 300 LINE",
"685 449 OFFCURVE",
"545 516 OFFCURVE",
"376 516 CURVE SMOOTH",
"251 516 OFFCURVE",
"157 479 OFFCURVE",
"94 425 CURVE SMOOTH",
"31 370 OFFCURVE",
"0 298 OFFCURVE",
"0 227 CURVE SMOOTH",
"0 155 OFFCURVE",
"31 84 OFFCURVE",
"94 31 CURVE SMOOTH",
"156 -22 OFFCURVE",
"250 -57 OFFCURVE",
"375 -57 CURVE SMOOTH",
"534 -57 OFFCURVE",
"634 -2 OFFCURVE",
"694 53 CURVE SMOOTH",
"748 102 OFFCURVE",
"770 158 OFFCURVE",
"773 166 CURVE",
"748 174 LINE",
"746 166 OFFCURVE",
"727 119 OFFCURVE",
"675 71 CURVE SMOOTH",
"620 21 OFFCURVE",
"527 -31 OFFCURVE",
"375 -31 CURVE SMOOTH",
"255 -31 OFFCURVE",
"167 2 OFFCURVE",
"111 50 CURVE SMOOTH",
"53 99 OFFCURVE",
"26 162 OFFCURVE",
"26 227 CURVE SMOOTH",
"26 291 OFFCURVE",
"53 356 OFFCURVE",
"111 406 CURVE SMOOTH",
"168 456 OFFCURVE",
"255 490 OFFCURVE",
"376 490 CURVE SMOOTH",
"541 490 OFFCURVE",
"687 419 OFFCURVE",
"773 247 CURVE",
"773 490 LINE",
"748 490 LINE"
);
}
);
width = 829;
},
{
anchors = (
{
name = bottom;
position = "{234, -10}";
},
{
name = top;
position = "{326, 510}";
}
);
background = {
paths = (
{
closed = 1;
nodes = (
"442 -10 OFFCURVE",
"557 89 OFFCURVE",
"557 257 CURVE",
"557 424 OFFCURVE",
"442 523 OFFCURVE",
"304 523 CURVE",
"165 523 OFFCURVE",
"51 424 OFFCURVE",
"51 257 CURVE",
"51 89 OFFCURVE",
"165 -10 OFFCURVE",
"304 -10 CURVE"
);
},
{
closed = 1;
nodes = (
"175 14 OFFCURVE",
"75 107 OFFCURVE",
"75 257 CURVE",
"75 406 OFFCURVE",
"175 499 OFFCURVE",
"304 499 CURVE",
"432 499 OFFCURVE",
"533 406 OFFCURVE",
"533 257 CURVE",
"533 107 OFFCURVE",
"432 14 OFFCURVE",
"304 14 CURVE"
);
}
);
};
layerId = "543F9737-16F7-428D-9F96-2EBD9FC8D3B6";
name = Light;
paths = (
{
closed = 1;
nodes = (
"350 -11 OFFCURVE",
"423 50 OFFCURVE",
"465 97 CURVE",
"451 111 LINE",
"409 64 OFFCURVE",
"338 12 OFFCURVE",
"240 12 CURVE SMOOTH",
"113 12 OFFCURVE",
"32 111 OFFCURVE",
"58 260 CURVE SMOOTH",
"84 409 OFFCURVE",
"205 507 OFFCURVE",
"327 507 CURVE SMOOTH",
"429 507 OFFCURVE",
"481 454 OFFCURVE",
"504 365 CURVE",
"517 366 LINE",
"545 520 LINE",
"522 520 LINE",
"499 399 LINE",
"511 394 LINE",
"499 463 OFFCURVE",
"443 530 OFFCURVE",
"332 530 CURVE SMOOTH",
"202 530 OFFCURVE",
"62 427 OFFCURVE",
"33 260 CURVE SMOOTH",
"3 93 OFFCURVE",
"99 -11 OFFCURVE",
"236 -11 CURVE SMOOTH"
);
}
);
width = 561;
},
{
anchors = (
{
name = bottom;
position = "{239, -10}";
},
{
name = top;
position = "{335, 534}";
}
);
background = {
paths = (
{
closed = 1;
nodes = (
"397 -10 OFFCURVE",
"496 33 OFFCURVE",
"554 123 CURVE",
"476 188 LINE",
"434 129 OFFCURVE",
"380 90 OFFCURVE",
"309 90 CURVE SMOOTH",
"215 90 OFFCURVE",
"153 157 OFFCURVE",
"153 258 CURVE SMOOTH",
"153 365 OFFCURVE",
"226 435 OFFCURVE",
"314 435 CURVE SMOOTH",
"385 435 OFFCURVE",
"443 386 OFFCURVE",
"469 331 CURVE",
"550 335 LINE",
"550 520 LINE",
"440 520 LINE",
"440 415 LINE",
"495 399 LINE",
"455 480 OFFCURVE",
"385 530 OFFCURVE",
"282 530 CURVE SMOOTH",
"155 530 OFFCURVE",
"25 423 OFFCURVE",
"25 258 CURVE SMOOTH",
"25 99 OFFCURVE",
"154 -10 OFFCURVE",
"309 -10 CURVE SMOOTH"
);
}
);
};
layerId = "EB38A4D2-CD30-49BA-8E45-1F04A566FFE8";
name = Bold;
paths = (
{
closed = 1;
nodes = (
"354 -10 OFFCURVE",
"445 42 OFFCURVE",
"513 123 CURVE",
"446 188 LINE",
"395 128 OFFCURVE",
"343 90 OFFCURVE",
"262 90 CURVE SMOOTH",
"175 90 OFFCURVE",
"119 164 OFFCURVE",
"136 260 CURVE SMOOTH",
"155 371 OFFCURVE",
"241 435 OFFCURVE",
"326 435 CURVE SMOOTH",
"408 435 OFFCURVE",
"448 386 OFFCURVE",
"464 331 CURVE",
"546 335 LINE",
"579 520 LINE",
"469 520 LINE",
"450 415 LINE",
"502 399 LINE",
"477 480 OFFCURVE",
"421 530 OFFCURVE",
"313 530 CURVE SMOOTH",
"174 530 OFFCURVE",
"36 420 OFFCURVE",
"8 258 CURVE SMOOTH",
"-19 108 OFFCURVE",
"83 -10 OFFCURVE",
"244 -10 CURVE SMOOTH"
);
}
);
width = 580;
}
);
leftKerningGroup = O;
leftMetricsKey = "=O";
rightKerningGroup = C;
unicode = 0043;
},
{
glyphname = D;
lastChange = "2015-11-11 18:40:05 +0000";
layers = (
{
anchors = (
{
name = bottom;
position = "{417, 0}";
},
{
name = center;
position = "{460, 245}";
},
{
name = top;
position = "{509, 520}";
}
);
layerId = "B29C398E-974A-40D0-A0A0-00935056D4B4";
name = "Light Extended";
paths = (
{
closed = 1;
nodes = (
"482 0 LINE",
"687 0 OFFCURVE",
"841 85 OFFCURVE",
"872 260 CURVE",
"903 435 OFFCURVE",
"779 520 OFFCURVE",
"574 520 CURVE",
"85 520 LINE",
"81 497 LINE",
"570 497 LINE",
"764 497 OFFCURVE",
"875 418 OFFCURVE",
"847 260 CURVE",
"819 102 OFFCURVE",
"680 23 OFFCURVE",
"486 23 CURVE",
"-3 23 LINE",
"-7 0 LINE"
);
},
{
closed = 1;
nodes = (
"202 13 LINE",
"289 507 LINE",
"264 507 LINE",
"177 13 LINE"
);
}
);
width = 959;
},
{
anchors = (
{
name = bottom;
position = "{220, 0}";
},
{
name = center;
position = "{263, 245}";
},
{
name = top;
position = "{306, 490}";
}
);
layerId = "543F9737-16F7-428D-9F96-2EBD9FC8D3B6";
name = Light;
paths = (
{
closed = 1;
nodes = (
"215 0 LINE",
"388 0 OFFCURVE",
"518 99 OFFCURVE",
"546 260 CURVE",
"574 421 OFFCURVE",
"480 520 OFFCURVE",
"307 520 CURVE",
"59 520 LINE",
"55 497 LINE",
"303 497 LINE",
"466 497 OFFCURVE",
"546 404 OFFCURVE",
"521 260 CURVE",
"496 116 OFFCURVE",
"382 23 OFFCURVE",
"219 23 CURVE",
"-29 23 LINE",
"-33 0 LINE"
);
},
{
closed = 1;
nodes = (
"107 13 LINE",
"194 507 LINE",
"169 507 LINE",
"82 13 LINE"
);
}
);
width = 613;
},
{
anchors = (
{
name = bottom;
position = "{237, 0}";
},
{
name = center;
position = "{283, 263}";
},
{
name = top;
position = "{330, 527}";
}
);
layerId = "EB38A4D2-CD30-49BA-8E45-1F04A566FFE8";
name = Bold;
paths = (
{
closed = 1;
nodes = (
"247 0 LINE",
"391 0 OFFCURVE",
"564 73 OFFCURVE",
"597 260 CURVE",
"630 447 OFFCURVE",
"483 520 OFFCURVE",
"339 520 CURVE",
"54 520 LINE",
"37 424 LINE",
"303 424 LINE",
"381 424 OFFCURVE",
"494 404 OFFCURVE",
"469 260 CURVE",
"444 116 OFFCURVE",
"323 98 OFFCURVE",
"245 98 CURVE",
"-21 98 LINE",
"-38 0 LINE"
);
},
{
closed = 1;
nodes = (
"180 56 LINE",
"252 464 LINE",
"129 464 LINE",
"57 56 LINE"
);
}
);
width = 639;
}
);
leftKerningGroup = H;
leftMetricsKey = "=H";
rightKerningGroup = O;
rightMetricsKey = "=O";
unicode = 0044;
},
{
glyphname = E;
lastChange = "2015-11-11 18:40:05 +0000";
layers = (
{
anchors = (
{
name = bottom;
position = "{395, 10}";
},
{
name = ogonek;
position = "{699, 10}";
},
{
name = top;
position = "{479, 490}";
}
);
background = {
paths = (
{
closed = 1;
nodes = (
"891 7 LINE",
"891 189 LINE",
"865 189 LINE",
"865 33 LINE",
"83 33 LINE",
"83 7 LINE"
);
},
{
closed = 1;
nodes = (
"291 25 LINE",
"291 479 LINE",
"265 479 LINE",
"265 25 LINE"
);
},
{
closed = 1;
nodes = (
"608 260 LINE",
"608 286 LINE",
"278 286 LINE",
"278 260 LINE"
);
},
{
closed = 1;
nodes = (
"621 144 LINE",
"621 390 LINE",
"595 390 LINE",
"595 144 LINE"
);
},
{
closed = 1;
nodes = (
"867 464 LINE",
"867 313 LINE",
"893 313 LINE",
"893 490 LINE",
"86 490 LINE",
"85 464 LINE"
);
}
);
};
guideLines = (
{
position = "{417, 307}";
}
);
layerId = "B29C398E-974A-40D0-A0A0-00935056D4B4";
name = "Light Extended";
paths = (
{
closed = 1;
nodes = (
"799 0 LINE",
"831 183 LINE",
"807 183 LINE",
"779 23 LINE",
"-3 23 LINE",
"-7 0 LINE"
);
},
{
closed = 1;
nodes = (
"202 13 LINE",
"289 507 LINE",
"264 507 LINE",
"177 13 LINE"
);
},
{
closed = 1;
nodes = (
"566 261 LINE",
"570 284 LINE",
"247 284 LINE",
"243 261 LINE"
);
},
{
closed = 1;
nodes = (
"560 153 LINE",
"602 392 LINE",
"577 392 LINE",
"535 153 LINE"
);
},
{
closed = 1;
nodes = (
"858 337 LINE",
"891 520 LINE",
"85 520 LINE",
"81 497 LINE",
"862 497 LINE",
"833 337 LINE"
);
}
);
width = 967;
},
{
anchors = (
{
name = bottom;
position = "{246, 10}";
},
{
name = ogonek;
position = "{444, 10}";
},
{
name = top;
position = "{330, 490}";
}
);
background = {
paths = (
{
closed = 1;
nodes = (
"796 0 LINE",
"796 184 LINE",
"779 184 LINE",
"779 23 LINE",
"204 23 LINE",
"204 0 LINE"
);
},
{
closed = 1;
nodes = (
"591 258 LINE",
"591 281 LINE",
"353 281 LINE",
"353 258 LINE"
);
},
{
closed = 1;
nodes = (
"601 145 LINE",
"601 382 LINE",
"583 382 LINE",
"583 145 LINE"
);
},
{
closed = 1;
nodes = (
"778 491 LINE",
"778 333 LINE",
"796 333 LINE",
"796 514 LINE",
"204 514 LINE",
"204 491 LINE"
);
},
{
closed = 1;
nodes = (
"356 13 LINE",
"356 501 LINE",
"338 501 LINE",
"338 13 LINE"
);
}
);
};
layerId = "543F9737-16F7-428D-9F96-2EBD9FC8D3B6";
name = Light;
paths = (
{
closed = 1;
nodes = (
"454 0 LINE",
"478 136 LINE",
"454 136 LINE",
"434 23 LINE",
"-29 23 LINE",
"-33 0 LINE"
);
},
{
closed = 1;
nodes = (
"107 13 LINE",
"194 507 LINE",
"169 507 LINE",
"82 13 LINE"
);
},
{
closed = 1;
nodes = (
"331 261 LINE",
"335 284 LINE",
"152 284 LINE",
"148 261 LINE"
);
},
{
closed = 1;
nodes = (
"329 178 LINE",
"363 367 LINE",
"338 367 LINE",
"304 178 LINE"
);
},
{
closed = 1;
nodes = (
"522 384 LINE",
"546 520 LINE",
"59 520 LINE",
"55 497 LINE",
"517 497 LINE",
"497 384 LINE"
);
}
);
width = 577;
},
{
anchors = (
{
name = bottom;
position = "{232, -2}";
},
{
name = ogonek;
position = "{511, -2}";
},
{
name = top;
position = "{325, 527}";
}
);
layerId = "EB38A4D2-CD30-49BA-8E45-1F04A566FFE8";
name = Bold;
paths = (
{
closed = 1;
nodes = (
"499 0 LINE",
"533 193 LINE",
"425 193 LINE",
"408 96 LINE",
"-21 96 LINE",
"-38 0 LINE"
);
},
{
closed = 1;
nodes = (
"177 53 LINE",
"249 458 LINE",
"127 458 LINE",
"55 53 LINE"
);
},
{
closed = 1;
nodes = (
"332 206 LINE",
"349 302 LINE",
"143 302 LINE",
"126 206 LINE"
);
},
{
closed = 1;
nodes = (
"363 151 LINE",
"399 357 LINE",
"303 357 LINE",
"267 151 LINE"
);
},
{
closed = 1;
nodes = (
"557 327 LINE",
"591 520 LINE",
"54 520 LINE",
"37 424 LINE",
"466 424 LINE",
"449 327 LINE"
);
}
);
width = 617;
}
);
leftKerningGroup = H;
leftMetricsKey = "=H";
rightKerningGroup = E;
unicode = 0045;
},
{
glyphname = F;
lastChange = "2015-11-11 18:40:05 +0000";
layers = (
{
anchors = (
{
name = bottom;
position = "{386, 0}";
},
{
name = top;
position = "{472, 490}";
}
);
layerId = "B29C398E-974A-40D0-A0A0-00935056D4B4";
name = "Light Extended";
paths = (
{
closed = 1;
nodes = (
"858 337 LINE",
"891 520 LINE",
"85 520 LINE",
"81 497 LINE",
"863 497 LINE",
"834 337 LINE"
);
},
{
closed = 1;
nodes = (
"392 0 LINE",
"396 23 LINE",
"-3 23 LINE",
"-7 0 LINE"
);
},
{
closed = 1;
nodes = (
"202 13 LINE",
"289 507 LINE",
"264 507 LINE",
"177 13 LINE"
);
},
{
closed = 1;
nodes = (
"582 240 LINE",
"586 263 LINE",
"243 263 LINE",
"239 240 LINE"
);
},
{
closed = 1;
nodes = (
"575 132 LINE",
"617 371 LINE",
"593 371 LINE",
"551 132 LINE"
);
}
);
width = 917;
},
{
anchors = (
{
name = bottom;
position = "{217, 0}";
},
{
name = top;
position = "{303, 490}";
}
);
layerId = "543F9737-16F7-428D-9F96-2EBD9FC8D3B6";
name = Light;
paths = (
{
closed = 1;
nodes = (
"542 384 LINE",
"566 520 LINE",
"59 520 LINE",
"55 497 LINE",
"537 497 LINE",
"517 384 LINE"
);
},
{
closed = 1;
nodes = (
"223 0 LINE",
"227 23 LINE",
"-29 23 LINE",
"-33 0 LINE"
);
},
{
closed = 1;
nodes = (
"107 13 LINE",
"194 507 LINE",
"169 507 LINE",
"82 13 LINE"
);
},
{
closed = 1;
nodes = (
"348 241 LINE",
"352 264 LINE",
"149 264 LINE",
"145 241 LINE"
);
},
{
closed = 1;
nodes = (
"346 158 LINE",
"379 347 LINE",
"354 347 LINE",
"321 158 LINE"
);
}
);
width = 542;
},
{
anchors = (
{
name = bottom;
position = "{242, 0}";
},
{
name = top;
position = "{335, 527}";
}
);
layerId = "EB38A4D2-CD30-49BA-8E45-1F04A566FFE8";
name = Bold;
paths = (
{
closed = 1;
nodes = (
"549 320 LINE",
"585 520 LINE",
"54 520 LINE",
"37 424 LINE",
"460 424 LINE",
"441 320 LINE"
);
},
{
closed = 1;
nodes = (
"258 0 LINE",
"275 96 LINE",
"-21 96 LINE",
"-38 0 LINE"
);
},
{
closed = 1;
nodes = (
"178 53 LINE",
"251 464 LINE",
"129 464 LINE",
"56 53 LINE"
);
},
{
closed = 1;
nodes = (
"326 204 LINE",
"343 301 LINE",
"144 301 LINE",
"127 204 LINE"
);
},
{
closed = 1;
nodes = (
"356 149 LINE",
"393 356 LINE",
"297 356 LINE",
"260 149 LINE"
);
}
);
width = 567;
}
);
leftKerningGroup = H;
leftMetricsKey = "=H";
rightKerningGroup = F;
unicode = 0046;
},
{
glyphname = G;
lastChange = "2015-11-11 18:40:05 +0000";
layers = (
{
anchors = (
{
name = bottom;
position = "{364, -10}";
},
{
name = top;
position = "{460, 530}";
}
);
background = {
paths = (
{
closed = 1;
nodes = (
"653 -10 OFFCURVE",
"799 106 OFFCURVE",
"799 252 CURVE SMOOTH",
"799 254 LINE",
"422 254 LINE",
"422 231 LINE",
"774 231 LINE",
"761 118 OFFCURVE",
"647 13 OFFCURVE",
"426 13 CURVE SMOOTH",
"244 13 OFFCURVE",
"95 107 OFFCURVE",
"95 259 CURVE SMOOTH",
"95 413 OFFCURVE",
"249 507 OFFCURVE",
"434 507 CURVE SMOOTH",
"566 507 OFFCURVE",
"689 461 OFFCURVE",
"791 324 CURVE",
"791 520 LINE",
"768 520 LINE",
"768 371 LINE",
"772 377 LINE",
"702 466 OFFCURVE",
"595 530 OFFCURVE",
"434 530 CURVE SMOOTH",
"241 530 OFFCURVE",
"70 431 OFFCURVE",
"70 259 CURVE SMOOTH",
"70 89 OFFCURVE",
"234 -10 OFFCURVE",
"426 -10 CURVE SMOOTH"
);
}
);
};
layerId = "B29C398E-974A-40D0-A0A0-00935056D4B4";
name = "Light Extended";
paths = (
{
closed = 1;
nodes = (
"588 -10 OFFCURVE",
"755 106 OFFCURVE",
"780 252 CURVE SMOOTH",
"781 254 LINE",
"404 254 LINE",
"400 231 LINE",
"752 231 LINE",
"719 118 OFFCURVE",
"586 13 OFFCURVE",
"365 13 CURVE SMOOTH",
"183 13 OFFCURVE",
"51 107 OFFCURVE",
"78 259 CURVE SMOOTH",
"105 413 OFFCURVE",
"275 507 OFFCURVE",
"460 507 CURVE SMOOTH",
"598 507 OFFCURVE",
"707 461 OFFCURVE",
"774 330 CURVE",
"786 331 LINE",
"820 520 LINE",
"797 520 LINE",
"769 361 LINE",
"780 361 LINE",
"728 461 OFFCURVE",
"626 530 OFFCURVE",
"465 530 CURVE SMOOTH",
"272 530 OFFCURVE",
"83 431 OFFCURVE",
"53 259 CURVE SMOOTH",
"23 89 OFFCURVE",
"169 -10 OFFCURVE",
"361 -10 CURVE SMOOTH"
);
}
);
width = 874;
},
{
anchors = (
{
name = bottom;
position = "{234, -10}";
},
{
name = top;
position = "{330, 530}";
}
);
background = {
paths = (
{
closed = 1;
nodes = (
"442 -11 OFFCURVE",
"534 95 OFFCURVE",
"534 245 CURVE SMOOTH",
"534 254 LINE",
"282 254 LINE",
"282 231 LINE",
"509 231 LINE",
"507 113 OFFCURVE",
"435 12 OFFCURVE",
"301 12 CURVE SMOOTH",
"174 12 OFFCURVE",
"75 111 OFFCURVE",
"75 260 CURVE SMOOTH",
"75 409 OFFCURVE",
"179 507 OFFCURVE",
"301 507 CURVE SMOOTH",
"408 507 OFFCURVE",
"469 454 OFFCURVE",
"509 370 CURVE",
"521 371 LINE",
"521 520 LINE",
"498 520 LINE",
"498 413 LINE",
"501 419 LINE",
"470 476 OFFCURVE",
"405 530 OFFCURVE",
"301 530 CURVE SMOOTH",
"171 530 OFFCURVE",
"50 427 OFFCURVE",
"50 260 CURVE SMOOTH",
"50 93 OFFCURVE",
"164 -11 OFFCURVE",
"301 -11 CURVE SMOOTH"
);
}
);
};
layerId = "543F9737-16F7-428D-9F96-2EBD9FC8D3B6";
name = Light;
paths = (
{
closed = 1;
nodes = (
"377 -11 OFFCURVE",
"488 95 OFFCURVE",
"512 235 CURVE SMOOTH",
"514 244 LINE",
"262 244 LINE",
"258 221 LINE",
"485 221 LINE",
"464 113 OFFCURVE",
"374 12 OFFCURVE",
"240 12 CURVE SMOOTH",
"113 12 OFFCURVE",
"32 111 OFFCURVE",
"58 260 CURVE SMOOTH",
"84 409 OFFCURVE",
"205 507 OFFCURVE",
"327 507 CURVE SMOOTH",
"434 507 OFFCURVE",
"486 454 OFFCURVE",
"511 370 CURVE",
"523 371 LINE",
"550 520 LINE",
"527 520 LINE",
"508 413 LINE",
"517 413 LINE",
"503 458 OFFCURVE",
"446 530 OFFCURVE",
"332 530 CURVE SMOOTH",
"202 530 OFFCURVE",
"62 427 OFFCURVE",
"33 260 CURVE SMOOTH",
"3 93 OFFCURVE",
"99 -11 OFFCURVE",
"236 -11 CURVE SMOOTH"
);
}
);
width = 584;
},
{
anchors = (
{
name = bottom;
position = "{246, -10}";
},
{
name = top;
position = "{342, 530}";
}
);
layerId = "EB38A4D2-CD30-49BA-8E45-1F04A566FFE8";
name = Bold;
paths = (
{
closed = 1;
nodes = (
"402 -11 OFFCURVE",
"533 105 OFFCURVE",
"558 252 CURVE SMOOTH",
"564 282 LINE",
"259 282 LINE",
"242 186 LINE",
"421 186 LINE",
"404 135 OFFCURVE",
"343 85 OFFCURVE",
"262 85 CURVE SMOOTH",
"174 85 OFFCURVE",
"119 162 OFFCURVE",
"136 260 CURVE SMOOTH",
"153 358 OFFCURVE",
"239 435 OFFCURVE",
"330 435 CURVE SMOOTH",
"409 435 OFFCURVE",
"456 386 OFFCURVE",
"475 342 CURVE",
"556 347 LINE",
"587 520 LINE",
"477 520 LINE",
"460 424 LINE",
"513 407 LINE",
"485 481 OFFCURVE",
"418 530 OFFCURVE",
"315 530 CURVE SMOOTH",
"170 530 OFFCURVE",
"35 411 OFFCURVE",
"8 260 CURVE SMOOTH",
"-19 108 OFFCURVE",
"83 -11 OFFCURVE",
"240 -11 CURVE SMOOTH"
);
}
);
width = 612;
}
);
leftKerningGroup = O;
leftMetricsKey = "=O";
rightKerningGroup = G;
unicode = 0047;
},
{
glyphname = H;
lastChange = "2015-11-11 18:40:05 +0000";
layers = (
{
anchors = (
{
name = bottom;
position = "{503, 0}";
},
{
name = center;
position = "{550, 265}";
},
{
name = top;
position = "{595, 520}";
}
);
layerId = "B29C398E-974A-40D0-A0A0-00935056D4B4";
name = "Light Extended";
paths = (
{
closed = 1;
nodes = (
"857 253 LINE",
"861 276 LINE",
"244 276 LINE",
"240 253 LINE"
);
},
{
closed = 1;
nodes = (
"382 0 LINE",
"386 23 LINE",
"-3 23 LINE",
"-7 0 LINE"
);
},
{
closed = 1;
nodes = (
"202 11 LINE",
"289 507 LINE",
"264 507 LINE",
"177 11 LINE"
);
},
{
closed = 1;
nodes = (
"470 497 LINE",
"474 520 LINE",
"85 520 LINE",
"81 497 LINE"
);
},
{
closed = 1;
nodes = (
"1013 0 LINE",
"1017 23 LINE",
"628 23 LINE",
"624 0 LINE"
);
},
{
closed = 1;
nodes = (
"833 13 LINE",
"921 509 LINE",
"896 509 LINE",
"808 13 LINE"
);
},
{
closed = 1;
nodes = (
"1101 497 LINE",
"1105 520 LINE",
"716 520 LINE",
"712 497 LINE"
);
}
);
width = 1132;
},
{
anchors = (
{
name = bottom;
position = "{297, 0}";
},
{
name = center;
position = "{340, 245}";
},
{
name = top;
position = "{383, 490}";
}
);
background = {
paths = (
{
closed = 1;
nodes = (
"577 13 LINE",
"577 479 LINE",
"552 479 LINE",
"552 13 LINE"
);
},
{
closed = 1;
nodes = (
"271 0 LINE",
"271 25 LINE",
"30 25 LINE",
"30 0 LINE"
);
},
{
closed = 1;
nodes = (
"167 13 LINE",
"167 479 LINE",
"143 479 LINE",
"143 13 LINE"
);
},
{
closed = 1;
nodes = (
"558 230 LINE",
"558 254 LINE",
"162 254 LINE",
"162 230 LINE"
);
},
{
closed = 1;
nodes = (
"271 465 LINE",
"271 490 LINE",
"30 490 LINE",
"30 465 LINE"
);
},
{
closed = 1;
nodes = (
"689 0 LINE",
"689 25 LINE",
"448 25 LINE",
"448 0 LINE"
);
},
{
closed = 1;
nodes = (
"689 465 LINE",
"689 490 LINE",
"448 490 LINE",
"448 465 LINE"
);
}
);
};
layerId = "543F9737-16F7-428D-9F96-2EBD9FC8D3B6";
name = Light;
paths = (
{
closed = 1;
nodes = (
"539 252 LINE",
"544 275 LINE",
"148 275 LINE",
"143 252 LINE"
);
},
{
closed = 1;
nodes = (
"217 0 LINE",
"221 23 LINE",
"-29 23 LINE",
"-33 0 LINE"
);
},
{
closed = 1;
nodes = (
"106 13 LINE",
"194 509 LINE",
"170 509 LINE",
"82 13 LINE"
);
},
{
closed = 1;
nodes = (
"305 497 LINE",
"309 520 LINE",
"59 520 LINE",
"55 497 LINE"
);
},
{
closed = 1;
nodes = (
"627 0 LINE",
"631 23 LINE",
"380 23 LINE",
"376 0 LINE"
);
},
{
closed = 1;
nodes = (
"516 13 LINE",
"604 509 LINE",
"579 509 LINE",
"491 13 LINE"
);
},
{
closed = 1;
nodes = (
"715 497 LINE",
"719 520 LINE",
"468 520 LINE",
"464 497 LINE"
);
}
);
width = 720;
},
{
anchors = (
{
name = bottom;
position = "{295, 0}";
},
{
name = center;
position = "{340, 257}";
},
{
name = top;
position = "{388, 527}";
}
);
layerId = "EB38A4D2-CD30-49BA-8E45-1F04A566FFE8";
name = Bold;
paths = (
{
closed = 1;
nodes = (
"546 217 LINE",
"563 313 LINE",
"140 313 LINE",
"123 217 LINE"
);
},
{
closed = 1;
nodes = (
"254 0 LINE",
"271 96 LINE",
"-21 96 LINE",
"-38 0 LINE"
);
},
{
closed = 1;
nodes = (
"179 53 LINE",
"252 464 LINE",
"129 464 LINE",
"56 53 LINE"
);
},
{
closed = 1;
nodes = (
"329 424 LINE",
"346 520 LINE",
"54 520 LINE",
"37 424 LINE"
);
},
{
closed = 1;
nodes = (
"630 0 LINE",
"647 96 LINE",
"356 96 LINE",
"339 0 LINE"
);
},
{
closed = 1;
nodes = (
"556 56 LINE",
"628 467 LINE",
"505 467 LINE",
"433 56 LINE"
);
},
{
closed = 1;
nodes = (
"705 424 LINE",
"722 520 LINE",
"431 520 LINE",
"414 424 LINE"
);
}
);
width = 718;
}
);
leftKerningGroup = H;
rightKerningGroup = H;
unicode = 0048;
},
{
glyphname = Hbar;
lastChange = "2015-11-11 18:40:05 +0000";
layers = (
{
anchors = (
{
name = bottom;
position = "{508, 0}";
},
{
name = center;
position = "{553, 255}";
},
{
name = top;
position = "{600, 520}";
}
);
layerId = "B29C398E-974A-40D0-A0A0-00935056D4B4";
name = "Light Extended";
paths = (
{
closed = 1;
nodes = (
"1078 370 LINE",
"1082 392 LINE",
"62 392 LINE",
"58 370 LINE"
);
},
{
closed = 1;
nodes = (
"382 0 LINE",
"386 23 LINE",
"-3 23 LINE",
"-7 0 LINE"
);
},
{
closed = 1;
nodes = (
"202 11 LINE",
"289 507 LINE",
"264 507 LINE",
"177 11 LINE"
);
},
{
closed = 1;
nodes = (
"1013 0 LINE",
"1017 23 LINE",
"628 23 LINE",
"624 0 LINE"
);
},
{
closed = 1;
nodes = (
"857 253 LINE",
"861 276 LINE",
"244 276 LINE",
"240 253 LINE"
);
},
{
closed = 1;
nodes = (
"470 497 LINE",
"474 520 LINE",
"85 520 LINE",
"81 497 LINE"
);
},
{
closed = 1;
nodes = (
"833 13 LINE",
"921 509 LINE",
"896 509 LINE",
"808 13 LINE"
);
},
{
closed = 1;
nodes = (
"1101 497 LINE",
"1105 520 LINE",
"716 520 LINE",
"712 497 LINE"
);
}
);
width = 1131;
},
{
anchors = (
{
name = bottom;
position = "{308, 0}";
},
{
name = center;
position = "{353, 255}";
},
{
name = top;
position = "{400, 520}";
}
);
layerId = "543F9737-16F7-428D-9F96-2EBD9FC8D3B6";
name = Light;
paths = (
{
closed = 1;
nodes = (
"669 365 LINE",
"673 387 LINE",
"63 387 LINE",
"59 365 LINE"
);
},
{
closed = 1;
nodes = (
"217 0 LINE",
"221 23 LINE",
"-29 23 LINE",
"-33 0 LINE"
);
},
{
closed = 1;
nodes = (
"106 13 LINE",
"194 509 LINE",
"170 509 LINE",
"82 13 LINE"
);
},
{
closed = 1;
nodes = (
"627 0 LINE",
"631 23 LINE",
"380 23 LINE",
"376 0 LINE"
);
},
{
closed = 1;
nodes = (
"537 238 LINE",
"541 261 LINE",
"145 261 LINE",
"141 238 LINE"
);
},
{
closed = 1;
nodes = (
"305 497 LINE",
"309 520 LINE",
"59 520 LINE",
"55 497 LINE"
);
},
{
closed = 1;
nodes = (
"516 13 LINE",
"604 509 LINE",
"579 509 LINE",
"491 13 LINE"
);
},
{
closed = 1;
nodes = (
"715 497 LINE",
"719 520 LINE",
"468 520 LINE",
"464 497 LINE"
);
}
);
width = 720;
},
{
anchors = (
{
name = bottom;
position = "{293, 0}";
},
{
name = center;
position = "{338, 255}";
},
{
name = top;
position = "{385, 520}";
}
);
layerId = "EB38A4D2-CD30-49BA-8E45-1F04A566FFE8";
name = Bold;
paths = (
{
closed = 1;
nodes = (
"660 308 LINE",
"675 392 LINE",
"55 392 LINE",
"40 308 LINE"
);
},
{
closed = 1;
nodes = (
"254 0 LINE",
"271 96 LINE",
"-21 96 LINE",
"-38 0 LINE"
);
},
{
closed = 1;
nodes = (
"178 53 LINE",
"251 464 LINE",
"129 464 LINE",
"56 53 LINE"
);
},
{
closed = 1;
nodes = (
"631 0 LINE",
"648 96 LINE",
"355 96 LINE",
"338 0 LINE"
);
},
{
closed = 1;
nodes = (
"541 189 LINE",
"557 276 LINE",
"134 276 LINE",
"118 189 LINE"
);
},
{
closed = 1;
nodes = (
"329 424 LINE",
"346 520 LINE",
"54 520 LINE",
"37 424 LINE"
);
},
{
closed = 1;
nodes = (
"556 56 LINE",
"628 467 LINE",
"505 467 LINE",
"433 56 LINE"
);
},
{
closed = 1;
nodes = (
"706 424 LINE",
"723 520 LINE",
"430 520 LINE",
"413 424 LINE"
);
}
);
width = 719;
}
);
leftKerningGroup = H;
leftMetricsKey = "=H";
rightKerningGroup = H;
rightMetricsKey = "=H";
unicode = 0126;
},
{
glyphname = I;
lastChange = "2015-11-11 18:40:05 +0000";
layers = (
{
anchors = (
{
name = bottom;
position = "{188, 0}";
},
{
name = ogonek;
position = "{384, 11}";
},
{
name = top;
position = "{280, 520}";
}
);
layerId = "B29C398E-974A-40D0-A0A0-00935056D4B4";
name = "Light Extended";
paths = (
{
closed = 1;
nodes = (
"202 13 LINE SMOOTH",
"289 507 LINE SMOOTH",
"264 507 LINE SMOOTH",
"177 13 LINE SMOOTH"
);
},
{
closed = 1;
nodes = (
"382 0 LINE SMOOTH",
"386 23 LINE SMOOTH",
"-3 23 LINE SMOOTH",
"-7 0 LINE SMOOTH"
);
},
{
closed = 1;
nodes = (
"470 497 LINE SMOOTH",
"474 520 LINE SMOOTH",
"85 520 LINE SMOOTH",
"81 497 LINE SMOOTH"
);
}
);
width = 501;
},
{
anchors = (
{
name = bottom;
position = "{89, 0}";
},
{
name = ogonek;
position = "{217, 0}";
},
{
name = top;
position = "{175, 490}";
}
);
layerId = "543F9737-16F7-428D-9F96-2EBD9FC8D3B6";
name = Light;
paths = (
{
closed = 1;
nodes = (
"107 13 LINE",
"195 509 LINE",
"170 509 LINE",
"82 13 LINE"
);
},
{
closed = 1;
nodes = (
"218 0 LINE",
"222 23 LINE",
"-29 23 LINE",
"-33 0 LINE"
);
},
{
closed = 1;
nodes = (
"306 497 LINE",
"310 520 LINE",
"59 520 LINE",
"55 497 LINE"
);
}
);
width = 311;
},
{
anchors = (
{
name = bottom;
position = "{110, 0}";
},
{
name = ogonek;
position = "{228, 0}";
},
{
name = top;
position = "{203, 527}";
}
);
layerId = "EB38A4D2-CD30-49BA-8E45-1F04A566FFE8";
name = Bold;
paths = (
{
closed = 1;
nodes = (
"180 57 LINE",
"252 464 LINE",
"129 464 LINE",
"57 57 LINE"
);
},
{
closed = 1;
nodes = (
"255 0 LINE",
"272 96 LINE",
"-21 96 LINE",
"-38 0 LINE"
);
},
{
closed = 1;
nodes = (
"330 424 LINE",
"347 520 LINE",
"54 520 LINE",
"37 424 LINE"
);
}
);
width = 343;
}
);
leftKerningGroup = H;
leftMetricsKey = "=H";
rightKerningGroup = H;
rightMetricsKey = "=H";
unicode = 0049;
},
{
glyphname = J;
lastChange = "2015-11-11 18:40:05 +0000";
layers = (
{
anchors = (
{
name = bottom;
position = "{275, 0}";
},
{
name = top;
position = "{367, 520}";
}
);
background = {
paths = (
{
closed = 1;
nodes = (
"631 467 LINE",
"631 490 LINE",
"206 490 LINE",
"206 467 LINE"
);
},
{
closed = 1;
nodes = (
"18 103 LINE",
"57 45 OFFCURVE",
"131 -20 OFFCURVE",
"249 -20 CURVE SMOOTH",
"381 -20 OFFCURVE",
"471 55 OFFCURVE",
"471 176 CURVE SMOOTH",
"471 477 LINE",
"446 477 LINE",
"446 176 LINE SMOOTH",
"446 58 OFFCURVE",
"355 3 OFFCURVE",
"249 3 CURVE SMOOTH",
"148 3 OFFCURVE",
"77 62 OFFCURVE",
"37 117 CURVE"
);
}
);
};
layerId = "B29C398E-974A-40D0-A0A0-00935056D4B4";
name = "Light Extended";
paths = (
{
closed = 1;
nodes = (
"316 -10 OFFCURVE",
"420 65 OFFCURVE",
"441 186 CURVE SMOOTH",
"497 507 LINE",
"472 507 LINE",
"416 186 LINE SMOOTH",
"395 68 OFFCURVE",
"294 13 OFFCURVE",
"188 13 CURVE SMOOTH",
"87 13 OFFCURVE",
"27 72 OFFCURVE",
"-4 127 CURVE",
"-23 111 LINE",
"6 55 OFFCURVE",
"66 -10 OFFCURVE",
"184 -10 CURVE SMOOTH"
);
},
{
closed = 1;
nodes = (
"678 497 LINE",
"682 520 LINE",
"235 520 LINE",
"231 497 LINE"
);
}
);
width = 668;
},
{
anchors = (
{
name = bottom;
position = "{110, 0}";
},
{
name = top;
position = "{202, 520}";
}
);
layerId = "543F9737-16F7-428D-9F96-2EBD9FC8D3B6";
name = Light;
paths = (
{
closed = 1;
nodes = (
"202 -10 OFFCURVE",
"279 54 OFFCURVE",
"299 169 CURVE SMOOTH",
"358 507 LINE",
"332 507 LINE",
"272 164 LINE SMOOTH",
"254 64 OFFCURVE",
"189 13 OFFCURVE",
"113 13 CURVE SMOOTH",
"46 13 OFFCURVE",
"-1 46 OFFCURVE",
"-30 73 CURVE",
"-49 53 LINE",
"-16 24 OFFCURVE",
"35 -10 OFFCURVE",
"109 -10 CURVE SMOOTH"
);
},
{
closed = 1;
nodes = (
"470 497 LINE",
"474 520 LINE",
"191 520 LINE",
"187 497 LINE"
);
}
);
width = 450;
},
{
anchors = (
{
name = bottom;
position = "{93, -12}";
},
{
name = top;
position = "{334, 520}";
}
);
layerId = "EB38A4D2-CD30-49BA-8E45-1F04A566FFE8";
name = Bold;
paths = (
{
closed = 1;
nodes = (
"194 -10 OFFCURVE",
"294 64 OFFCURVE",
"315 179 CURVE SMOOTH",
"366 468 LINE",
"245 468 LINE",
"196 187 LINE SMOOTH",
"185 125 OFFCURVE",
"146 94 OFFCURVE",
"104 91 CURVE SMOOTH",
"70 90 OFFCURVE",
"41 110 OFFCURVE",
"21 130 CURVE",
"-48 41 LINE",
"-20 14 OFFCURVE",
"27 -10 OFFCURVE",
"92 -10 CURVE SMOOTH"
);
},
{
closed = 1;
nodes = (
"442 424 LINE",
"459 520 LINE",
"125 520 LINE",
"108 424 LINE"
);
}
);
width = 436;
}
);
leftKerningGroup = J;
rightKerningGroup = U;
rightMetricsKey = "=U";
unicode = 004A;
},
{
glyphname = K;
lastChange = "2015-11-11 18:40:05 +0000";
layers = (
{
anchors = (
{
name = bottom;
position = "{462, 0}";
},
{
name = top;
position = "{554, 520}";
}
);
layerId = "B29C398E-974A-40D0-A0A0-00935056D4B4";
name = "Light Extended";
paths = (
{
closed = 1;
nodes = (
"850 507 LINE",
"810 507 LINE",
"215 156 LINE",
"210 129 LINE"
);
},
{
closed = 1;
nodes = (
"382 0 LINE SMOOTH",
"386 23 LINE SMOOTH",
"-3 23 LINE SMOOTH",
"-7 0 LINE SMOOTH"
);
},
{
closed = 1;
nodes = (
"202 13 LINE SMOOTH",
"289 507 LINE SMOOTH",
"264 507 LINE SMOOTH",
"177 13 LINE SMOOTH"
);
},
{
closed = 1;
nodes = (
"899 0 LINE SMOOTH",
"903 23 LINE SMOOTH",
"551 23 LINE SMOOTH",
"547 0 LINE SMOOTH"
);
},
{
closed = 1;
nodes = (
"769 10 LINE",
"470 294 LINE",
"451 278 LINE",
"734 10 LINE"
);
},
{
closed = 1;
nodes = (
"470 497 LINE SMOOTH",
"474 520 LINE SMOOTH",
"85 520 LINE SMOOTH",
"81 497 LINE SMOOTH"
);
},
{
closed = 1;
nodes = (
"977 497 LINE SMOOTH",
"981 520 LINE SMOOTH",
"629 520 LINE SMOOTH",
"625 497 LINE SMOOTH"
);
}
);
width = 980;
},
{
anchors = (
{
name = bottom;
position = "{283, 0}";
},
{
name = top;
position = "{375, 520}";
}
);
layerId = "543F9737-16F7-428D-9F96-2EBD9FC8D3B6";
name = Light;
paths = (
{
closed = 1;
nodes = (
"609 507 LINE",
"576 507 LINE",
"122 168 LINE",
"117 140 LINE"
);
},
{
closed = 1;
nodes = (
"218 0 LINE SMOOTH",
"222 23 LINE SMOOTH",
"-29 23 LINE SMOOTH",
"-33 0 LINE SMOOTH"
);
},
{
closed = 1;
nodes = (
"107 13 LINE SMOOTH",
"194 507 LINE SMOOTH",
"169 507 LINE SMOOTH",
"82 13 LINE SMOOTH"
);
},
{
closed = 1;
nodes = (
"584 0 LINE SMOOTH",
"588 23 LINE SMOOTH",
"366 23 LINE SMOOTH",
"362 0 LINE SMOOTH"
);
},
{
closed = 1;
nodes = (
"508 10 LINE",
"315 294 LINE",
"296 278 LINE",
"479 10 LINE"
);
},
{
closed = 1;
nodes = (
"306 497 LINE SMOOTH",
"310 520 LINE SMOOTH",
"59 520 LINE SMOOTH",
"55 497 LINE SMOOTH"
);
},
{
closed = 1;
nodes = (
"672 497 LINE SMOOTH",
"676 520 LINE SMOOTH",
"454 520 LINE SMOOTH",
"450 497 LINE SMOOTH"
);
}
);
width = 647;
},
{
anchors = (
{
name = bottom;
position = "{296, 0}";
},
{
name = top;
position = "{388, 520}";
}
);
layerId = "EB38A4D2-CD30-49BA-8E45-1F04A566FFE8";
name = Bold;
paths = (
{
closed = 1;
nodes = (
"617 442 LINE",
"481 442 LINE",
"133 197 LINE",
"113 81 LINE"
);
},
{
closed = 1;
nodes = (
"247 0 LINE SMOOTH",
"264 96 LINE SMOOTH",
"-21 96 LINE SMOOTH",
"-38 0 LINE SMOOTH"
);
},
{
closed = 1;
nodes = (
"178 53 LINE SMOOTH",
"251 464 LINE SMOOTH",
"129 464 LINE SMOOTH",
"56 53 LINE SMOOTH"
);
},
{
closed = 1;
nodes = (
"586 0 LINE SMOOTH",
"603 96 LINE SMOOTH",
"341 96 LINE SMOOTH",
"324 0 LINE SMOOTH"
);
},
{
closed = 1;
nodes = (
"571 72 LINE",
"371 333 LINE",
"266 276 LINE",
"416 72 LINE"
);
},
{
closed = 1;
nodes = (
"322 424 LINE SMOOTH",
"339 520 LINE SMOOTH",
"54 520 LINE SMOOTH",
"37 424 LINE SMOOTH"
);
},
{
closed = 1;
nodes = (
"649 424 LINE SMOOTH",
"666 520 LINE SMOOTH",
"404 520 LINE SMOOTH",
"387 424 LINE SMOOTH"
);
}
);
width = 646;
}
);
leftKerningGroup = H;
leftMetricsKey = "=H";
rightKerningGroup = K;
unicode = 004B;
},
{
glyphname = L;
lastChange = "2015-11-11 18:40:05 +0000";
layers = (
{
anchors = (
{
name = bottom;
position = "{349, 0}";
},
{
name = center;
position = "{392, 245}";
},
{
name = top;
position = "{441, 520}";
},
{
name = topright;
position = "{827, 490}";
}
);
layerId = "B29C398E-974A-40D0-A0A0-00935056D4B4";
name = "Light Extended";
paths = (
{
closed = 1;
nodes = (
"726 0 LINE",
"758 183 LINE",
"733 183 LINE",
"705 23 LINE",
"-3 23 LINE",
"-7 0 LINE"
);
},
{
closed = 1;
nodes = (
"202 13 LINE",
"289 507 LINE",
"264 507 LINE",
"177 13 LINE"
);
},
{
closed = 1;
nodes = (
"470 497 LINE",
"474 520 LINE",
"85 520 LINE",
"81 497 LINE"
);
}
);
width = 834;
},
{
anchors = (
{
name = bottom;
position = "{160, 0}";
},
{
name = center;
position = "{203, 245}";
},
{
name = top;
position = "{246, 490}";
},
{
name = topright;
position = "{458, 490}";
}
);
layerId = "543F9737-16F7-428D-9F96-2EBD9FC8D3B6";
name = Light;
paths = (
{
closed = 1;
nodes = (
"454 0 LINE",
"478 136 LINE",
"454 136 LINE",
"434 23 LINE",
"-29 23 LINE",
"-33 0 LINE"
);
},
{
closed = 1;
nodes = (
"107 13 LINE",
"194 507 LINE",
"169 507 LINE",
"82 13 LINE"
);
},
{
closed = 1;
nodes = (
"306 497 LINE",
"310 520 LINE",
"59 520 LINE",
"55 497 LINE"
);
}
);
width = 522;
},
{
anchors = (
{
name = bottom;
position = "{216, 0}";
},
{
name = center;
position = "{259, 245}";
},
{
name = top;
position = "{309, 527}";
},
{
name = topright;
position = "{502, 490}";
}
);
layerId = "EB38A4D2-CD30-49BA-8E45-1F04A566FFE8";
name = Bold;
paths = (
{
closed = 1;
nodes = (
"481 0 LINE",
"519 218 LINE",
"403 218 LINE",
"382 96 LINE",
"-21 96 LINE",
"-38 0 LINE"
);
},
{
closed = 1;
nodes = (
"178 53 LINE",
"250 458 LINE",
"128 458 LINE",
"56 53 LINE"
);
},
{
closed = 1;
nodes = (
"328 424 LINE",
"345 520 LINE",
"54 520 LINE",
"37 424 LINE"
);
}
);
width = 543;
}
);
leftKerningGroup = H;
leftMetricsKey = "=H";
rightKerningGroup = L;
unicode = 004C;
},
{
glyphname = M;
lastChange = "2015-11-11 18:40:05 +0000";
layers = (
{
anchors = (
{
name = bottom;
position = "{553, -20}";
},
{
name = top;
position = "{642, 490}";
}
);
background = {
paths = (
{
closed = 1;
nodes = (
"629 3 LINE",
"263 490 LINE",
"232 490 LINE",
"619 -27 LINE"
);
},
{
closed = 1;
nodes = (
"400 0 LINE",
"400 23 LINE",
"61 23 LINE",
"61 0 LINE"
);
},
{
closed = 1;
nodes = (
"263 12 LINE",
"263 477 LINE",
"238 477 LINE",
"238 12 LINE"
);
},
{
closed = 1;
nodes = (
"263 467 LINE",
"263 490 LINE",
"61 490 LINE",
"61 467 LINE"
);
},
{
closed = 1;
nodes = (
"1176 0 LINE",
"1176 23 LINE",
"837 23 LINE",
"837 0 LINE"
);
},
{
closed = 1;
nodes = (
"1006 490 LINE",
"972 490 LINE",
"611 3 LINE",
"619 -27 LINE"
);
},
{
closed = 1;
nodes = (
"999 12 LINE",
"999 477 LINE",
"974 477 LINE",
"974 12 LINE"
);
},
{
closed = 1;
nodes = (
"1176 467 LINE",
"1176 490 LINE",
"974 490 LINE",
"974 467 LINE"
);
}
);
};
layerId = "B29C398E-974A-40D0-A0A0-00935056D4B4";
name = "Light Extended";
paths = (
{
closed = 1;
nodes = (
"556 -11 LINE",
"569 14 LINE",
"292 520 LINE",
"261 520 LINE",
"551 -11 LINE"
);
},
{
closed = 1;
nodes = (
"350 0 LINE",
"354 23 LINE",
"-3 23 LINE",
"-7 0 LINE"
);
},
{
closed = 1;
nodes = (
"202 12 LINE",
"280 453 LINE",
"284 475 OFFCURVE",
"288 498 OFFCURVE",
"292 520 CURVE",
"267 520 LINE",
"177 12 LINE"
);
},
{
closed = 1;
nodes = (
"288 497 LINE",
"292 520 LINE",
"85 520 LINE",
"81 497 LINE"
);
},
{
closed = 1;
nodes = (
"1118 0 LINE",
"1122 23 LINE",
"765 23 LINE",
"761 0 LINE"
);
},
{
closed = 1;
nodes = (
"557 -11 LINE",
"1035 520 LINE",
"1003 520 LINE",
"551 14 LINE",
"552 -11 LINE"
);
},
{
closed = 1;
nodes = (
"938 12 LINE",
"1028 520 LINE",
"1003 520 LINE",
"999 498 OFFCURVE",
"995 475 OFFCURVE",
"991 453 CURVE",
"913 12 LINE"
);
},
{
closed = 1;
nodes = (
"1206 497 LINE",
"1210 520 LINE",
"1003 520 LINE",
"999 497 LINE"
);
}
);
width = 1237;
},
{
anchors = (
{
name = bottom;
position = "{342, -25}";
},
{
name = top;
position = "{429, 480}";
}
);
background = {
paths = (
{
closed = 1;
nodes = (
"33 23 LINE",
"263 23 LINE",
"263 0 LINE",
"33 0 LINE"
);
},
{
closed = 1;
nodes = (
"141 490 LINE",
"166 490 LINE",
"166 12 LINE",
"141 12 LINE"
);
},
{
closed = 1;
nodes = (
"33 490 LINE",
"166 490 LINE",
"166 467 LINE",
"33 467 LINE"
);
},
{
closed = 1;
nodes = (
"410 -27 LINE",
"144 490 LINE",
"170 490 LINE",
"420 6 LINE"
);
},
{
closed = 1;
nodes = (
"650 490 LINE",
"676 490 LINE",
"410 -27 LINE",
"402 6 LINE"
);
},
{
closed = 1;
nodes = (
"557 0 LINE",
"557 23 LINE",
"787 23 LINE",
"787 0 LINE"
);
},
{
closed = 1;
nodes = (
"654 12 LINE",
"654 490 LINE",
"679 490 LINE",
"679 12 LINE"
);
},
{
closed = 1;
nodes = (
"654 467 LINE",
"654 490 LINE",
"787 490 LINE",
"787 467 LINE"
);
}
);
};
layerId = "543F9737-16F7-428D-9F96-2EBD9FC8D3B6";
name = Light;
paths = (
{
closed = 1;
nodes = (
"347 -11 LINE",
"361 14 LINE",
"199 520 LINE",
"172 520 LINE",
"342 -11 LINE"
);
},
{
closed = 1;
nodes = (
"206 0 LINE",
"210 23 LINE",
"-29 23 LINE",
"-33 0 LINE"
);
},
{
closed = 1;
nodes = (
"105 12 LINE",
"182 447 LINE",
"186 471 OFFCURVE",
"191 496 OFFCURVE",
"195 520 CURVE",
"170 520 LINE",
"80 12 LINE"
);
},
{
closed = 1;
nodes = (
"191 497 LINE",
"195 520 LINE",
"59 520 LINE",
"55 497 LINE"
);
},
{
closed = 1;
nodes = (
"729 0 LINE",
"733 23 LINE",
"492 23 LINE",
"488 0 LINE"
);
},
{
closed = 1;
nodes = (
"348 -11 LINE",
"705 520 LINE",
"679 520 LINE",
"342 14 LINE",
"343 -11 LINE"
);
},
{
closed = 1;
nodes = (
"618 12 LINE",
"708 520 LINE",
"683 520 LINE",
"679 496 OFFCURVE",
"674 471 OFFCURVE",
"670 447 CURVE",
"593 12 LINE"
);
},
{
closed = 1;
nodes = (
"817 497 LINE",
"821 520 LINE",
"683 520 LINE",
"679 497 LINE"
);
}
);
width = 822;
},
{
anchors = (
{
name = bottom;
position = "{361, 3}";
},
{
name = top;
position = "{444, 492}";
}
);
layerId = "EB38A4D2-CD30-49BA-8E45-1F04A566FFE8";
name = Bold;
paths = (
{
closed = 1;
nodes = (
"372 -1 LINE",
"414 86 LINE",
"273 520 LINE",
"147 520 LINE",
"323 -1 LINE"
);
},
{
closed = 1;
nodes = (
"240 0 LINE",
"257 96 LINE",
"-21 96 LINE",
"-38 0 LINE"
);
},
{
closed = 1;
nodes = (
"172 54 LINE",
"202 229 LINE",
"218 316 OFFCURVE",
"217 463 OFFCURVE",
"214 520 CURVE",
"139 520 LINE",
"57 54 LINE"
);
},
{
closed = 1;
nodes = (
"234 424 LINE",
"251 520 LINE",
"54 520 LINE",
"37 424 LINE"
);
},
{
closed = 1;
nodes = (
"757 0 LINE",
"774 96 LINE",
"490 96 LINE",
"473 0 LINE"
);
},
{
closed = 1;
nodes = (
"390 -1 LINE",
"750 520 LINE",
"629 520 LINE",
"339 86 LINE",
"345 -1 LINE"
);
},
{
closed = 1;
nodes = (
"682 54 LINE",
"764 520 LINE",
"692 520 LINE",
"665 463 OFFCURVE",
"606 316 OFFCURVE",
"590 229 CURVE SMOOTH",
"560 54 LINE"
);
},
{
closed = 1;
nodes = (
"832 424 LINE",
"849 520 LINE",
"646 520 LINE",
"629 424 LINE"
);
}
);
width = 845;
}
);
leftKerningGroup = M;
leftMetricsKey = "=H";
rightKerningGroup = M;
rightMetricsKey = "=H";
unicode = 004D;
},
{
glyphname = N;
lastChange = "2015-11-11 18:40:05 +0000";
layers = (
{
anchors = (
{
name = bottom;
position = "{488, 0}";
},
{
name = top;
position = "{574, 490}";
}
);
background = {
paths = (
{
closed = 1;
nodes = (
"905 -5 LINE",
"910 -5 LINE",
"910 507 LINE",
"885 507 LINE",
"885 57 LINE",
"496 520 LINE",
"461 520 LINE"
);
}
);
};
layerId = "B29C398E-974A-40D0-A0A0-00935056D4B4";
name = "Light Extended";
paths = (
{
closed = 1;
nodes = (
"846 -5 LINE",
"936 507 LINE",
"911 507 LINE",
"830 43 LINE",
"292 520 LINE",
"248 520 LINE",
"841 -5 LINE"
);
},
{
closed = 1;
nodes = (
"382 0 LINE",
"386 23 LINE",
"-3 23 LINE",
"-7 0 LINE"
);
},
{
closed = 1;
nodes = (
"202 12 LINE",
"292 520 LINE",
"267 520 LINE",
"177 12 LINE"
);
},
{
closed = 1;
nodes = (
"288 497 LINE",
"292 520 LINE",
"85 520 LINE",
"81 497 LINE"
);
},
{
closed = 1;
nodes = (
"1117 497 LINE",
"1121 520 LINE",
"732 520 LINE",
"728 497 LINE"
);
}
);
width = 1107;
},
{
anchors = (
{
name = bottom;
position = "{317, 0}";
},
{
name = top;
position = "{403, 490}";
}
);
background = {
paths = (
{
closed = 1;
nodes = (
"558 242 LINE",
"558 265 LINE",
"162 265 LINE",
"162 242 LINE"
);
},
{
closed = 1;
nodes = (
"271 0 LINE",
"271 23 LINE",
"30 23 LINE",
"30 0 LINE"
);
},
{
closed = 1;
nodes = (
"167 13 LINE",
"167 509 LINE",
"143 509 LINE",
"143 13 LINE"
);
},
{
closed = 1;
nodes = (
"271 497 LINE",
"271 520 LINE",
"30 520 LINE",
"30 497 LINE"
);
},
{
closed = 1;
nodes = (
"689 0 LINE",
"689 23 LINE",
"448 23 LINE",
"448 0 LINE"
);
},
{
closed = 1;
nodes = (
"577 13 LINE",
"577 509 LINE",
"552 509 LINE",
"552 13 LINE"
);
},
{
closed = 1;
nodes = (
"689 497 LINE",
"689 520 LINE",
"448 520 LINE",
"448 497 LINE"
);
}
);
};
layerId = "543F9737-16F7-428D-9F96-2EBD9FC8D3B6";
name = Light;
paths = (
{
closed = 1;
nodes = (
"518 -5 LINE",
"608 507 LINE",
"583 507 LINE",
"504 57 LINE",
"197 520 LINE",
"162 520 LINE",
"513 -5 LINE"
);
},
{
closed = 1;
nodes = (
"209 0 LINE",
"213 23 LINE",
"-29 23 LINE",
"-33 0 LINE"
);
},
{
closed = 1;
nodes = (
"107 12 LINE",
"197 520 LINE",
"172 520 LINE",
"82 12 LINE"
);
},
{
closed = 1;
nodes = (
"193 497 LINE",
"197 520 LINE",
"59 520 LINE",
"55 497 LINE"
);
},
{
closed = 1;
nodes = (
"720 497 LINE",
"724 520 LINE",
"473 520 LINE",
"469 497 LINE"
);
}
);
width = 705;
},
{
anchors = (
{
name = bottom;
position = "{311, 24}";
},
{
name = top;
position = "{393, 490}";
}
);
layerId = "EB38A4D2-CD30-49BA-8E45-1F04A566FFE8";
name = Bold;
paths = (
{
closed = 1;
nodes = (
"555 -4 LINE",
"645 507 LINE",
"533 507 LINE",
"479 201 LINE",
"257 520 LINE",
"106 520 LINE",
"489 -5 LINE"
);
},
{
closed = 1;
nodes = (
"255 0 LINE",
"272 96 LINE",
"-21 96 LINE",
"-38 0 LINE"
);
},
{
closed = 1;
nodes = (
"167 12 LINE",
"257 520 LINE",
"139 520 LINE",
"49 12 LINE"
);
},
{
closed = 1;
nodes = (
"236 424 LINE",
"257 520 LINE",
"54 520 LINE",
"37 424 LINE"
);
},
{
closed = 1;
nodes = (
"716 424 LINE",
"733 520 LINE",
"451 520 LINE",
"434 424 LINE"
);
}
);
width = 708;
}
);
leftKerningGroup = H;
leftMetricsKey = "=H";
rightKerningGroup = H;
unicode = 004E;
},
{
glyphname = O;
lastChange = "2015-11-11 18:40:05 +0000";
layers = (
{
anchors = (
{
name = bottom;
position = "{388, -10}";
},
{
name = center;
position = "{433, 245}";
},
{
name = ogonek;
position = "{391, -8}";
},
{
name = top;
position = "{484, 530}";
},
{
name = topright;
position = "{909, 490}";
}
);
background = {
paths = (
{
closed = 1;
nodes = (
"669 -20 OFFCURVE",
"836 78 OFFCURVE",
"836 248 CURVE",
"836 417 OFFCURVE",
"669 516 OFFCURVE",
"453 516 CURVE",
"237 516 OFFCURVE",
"70 417 OFFCURVE",
"70 248 CURVE",
"70 78 OFFCURVE",
"237 -20 OFFCURVE",
"453 -20 CURVE"
);
},
{
closed = 1;
nodes = (
"247 3 OFFCURVE",
"95 96 OFFCURVE",
"95 248 CURVE",
"95 400 OFFCURVE",
"247 493 OFFCURVE",
"453 493 CURVE",
"658 493 OFFCURVE",
"811 400 OFFCURVE",
"811 248 CURVE",
"811 96 OFFCURVE",
"658 3 OFFCURVE",
"453 3 CURVE"
);
}
);
};
layerId = "B29C398E-974A-40D0-A0A0-00935056D4B4";
name = "Light Extended";
paths = (
{
closed = 1;
nodes = (
"604 -10 OFFCURVE",
"789 88 OFFCURVE",
"819 260 CURVE",
"849 431 OFFCURVE",
"700 530 OFFCURVE",
"484 530 CURVE",
"268 530 OFFCURVE",
"83 431 OFFCURVE",
"53 260 CURVE",
"23 88 OFFCURVE",
"172 -10 OFFCURVE",
"388 -10 CURVE"
);
},
{
closed = 1;
nodes = (
"186 13 OFFCURVE",
"51 106 OFFCURVE",
"78 260 CURVE",
"105 414 OFFCURVE",
"273 507 OFFCURVE",
"479 507 CURVE",
"684 507 OFFCURVE",
"821 414 OFFCURVE",
"794 260 CURVE",
"767 106 OFFCURVE",
"597 13 OFFCURVE",
"392 13 CURVE"
);
}
);
width = 906;
},
{
anchors = (
{
name = bottom;
position = "{235, -27}";
},
{
name = center;
position = "{283, 245}";
},
{
name = ogonek;
position = "{237, -15}";
},
{
name = top;
position = "{331, 517}";
},
{
name = topright;
position = "{563, 490}";
}
);
layerId = "543F9737-16F7-428D-9F96-2EBD9FC8D3B6";
name = Light;
paths = (
{
closed = 1;
nodes = (
"376 -10 OFFCURVE",
"509 89 OFFCURVE",
"539 260 CURVE",
"569 431 OFFCURVE",
"472 530 OFFCURVE",
"334 530 CURVE",
"195 530 OFFCURVE",
"63 431 OFFCURVE",
"33 260 CURVE",
"3 89 OFFCURVE",
"99 -10 OFFCURVE",
"238 -10 CURVE"
);
},
{
closed = 1;
nodes = (
"114 14 OFFCURVE",
"30 107 OFFCURVE",
"57 260 CURVE",
"84 413 OFFCURVE",
"200 506 OFFCURVE",
"329 506 CURVE",
"457 506 OFFCURVE",
"542 413 OFFCURVE",
"515 260 CURVE",
"488 107 OFFCURVE",
"371 14 OFFCURVE",
"243 14 CURVE"
);
}
);
width = 606;
},
{
anchors = (
{
name = bottom;
position = "{243, -6}";
},
{
name = center;
position = "{289, 245}";
},
{
name = ogonek;
position = "{293, -9}";
},
{
name = top;
position = "{339, 534}";
},
{
name = topright;
position = "{569, 490}";
}
);
layerId = "EB38A4D2-CD30-49BA-8E45-1F04A566FFE8";
name = Bold;
paths = (
{
closed = 1;
nodes = (
"407 -10 OFFCURVE",
"548 110 OFFCURVE",
"575 260 CURVE",
"601 410 OFFCURVE",
"503 530 OFFCURVE",
"340 530 CURVE",
"176 530 OFFCURVE",
"34 410 OFFCURVE",
"8 260 CURVE",
"-19 110 OFFCURVE",
"80 -10 OFFCURVE",
"244 -10 CURVE"
);
},
{
closed = 1;
nodes = (
"163 89 OFFCURVE",
"120 167 OFFCURVE",
"137 260 CURVE",
"153 351 OFFCURVE",
"223 431 OFFCURVE",
"321 431 CURVE",
"420 431 OFFCURVE",
"462 353 OFFCURVE",
"446 260 CURVE",
"430 169 OFFCURVE",
"360 89 OFFCURVE",
"261 89 CURVE"
);
}
);
width = 617;
}
);
leftKerningGroup = O;
rightKerningGroup = O;
unicode = 004F;
},
{
glyphname = Oslash;
lastChange = "2015-11-11 18:40:05 +0000";
layers = (
{
components = (
{
name = O;
transform = "{1, 0, 0, 1, -63, 0}";
}
);
layerId = "B29C398E-974A-40D0-A0A0-00935056D4B4";
name = "Light Extended";
paths = (
{
closed = 1;
nodes = (
"274 9 LINE",
"278 15 LINE",
"617 503 LINE",
"622 510 LINE",
"671 581 LINE",
"643 581 LINE",
"597 514 LINE",
"591 507 LINE",
"254 23 LINE",
"248 14 LINE",
"198 -59 LINE",
"226 -59 LINE"
);
}
);
width = 906;
},
{
components = (
{
name = O;
transform = "{1, 0, 0, 1, -63, 0}";
}
);
layerId = "543F9737-16F7-428D-9F96-2EBD9FC8D3B6";
name = Light;
paths = (
{
closed = 1;
nodes = (
"158 11 LINE",
"162 19 LINE",
"422 498 LINE",
"426 506 LINE",
"466 581 LINE",
"441 581 LINE",
"405 513 LINE",
"400 506 LINE",
"143 28 LINE",
"139 21 LINE",
"96 -59 LINE",
"121 -59 LINE"
);
}
);
width = 606;
},
{
components = (
{
name = O;
transform = "{1, 0, 0, 1, -63, 0}";
}
);
layerId = "EB38A4D2-CD30-49BA-8E45-1F04A566FFE8";
name = Bold;
paths = (
{
closed = 1;
nodes = (
"204 43 LINE",
"203 58 LINE",
"445 439 LINE",
"461 445 LINE",
"545 581 LINE",
"443 581 LINE",
"380 480 LINE",
"380 465 LINE",
"129 69 LINE",
"111 59 LINE",
"37 -59 LINE",
"139 -59 LINE"
);
}
);
width = 617;
}
);
leftKerningGroup = O;
rightKerningGroup = O;
unicode = 00D8;
},
{
color = 0;
glyphname = OE;
lastChange = "2015-11-11 18:40:05 +0000";
layers = (
{
anchors = (
{
name = bottom;
position = "{693, 0}";
},
{
name = center;
position = "{736, 245}";
},
{
name = ogonek;
position = "{1257, 0}";
},
{
name = top;
position = "{785, 520}";
}
);
layerId = "B29C398E-974A-40D0-A0A0-00935056D4B4";
name = "Light Extended";
paths = (
{
closed = 1;
nodes = (
"1257 0 LINE",
"1289 183 LINE",
"1265 183 LINE",
"1237 23 LINE",
"355 23 LINE SMOOTH",
"161 23 OFFCURVE",
"50 102 OFFCURVE",
"78 260 CURVE SMOOTH",
"106 418 OFFCURVE",
"245 497 OFFCURVE",
"439 497 CURVE SMOOTH",
"1320 497 LINE",
"1291 337 LINE",
"1316 337 LINE",
"1349 520 LINE",
"443 520 LINE SMOOTH",
"238 520 OFFCURVE",
"84 435 OFFCURVE",
"53 260 CURVE SMOOTH",
"22 85 OFFCURVE",
"146 0 OFFCURVE",
"351 0 CURVE SMOOTH"
);
},
{
closed = 1;
nodes = (
"660 13 LINE",
"747 507 LINE",
"722 507 LINE",
"635 13 LINE"
);
},
{
closed = 1;
nodes = (
"1024 261 LINE",
"1028 284 LINE",
"705 284 LINE",
"701 261 LINE"
);
},
{
closed = 1;
nodes = (
"1018 153 LINE",
"1060 392 LINE",
"1035 392 LINE",
"993 153 LINE"
);
}
);
width = 1425;
},
{
anchors = (
{
name = bottom;
position = "{393, 0}";
},
{
name = center;
position = "{436, 245}";
},
{
name = ogonek;
position = "{695, 0}";
},
{
name = top;
position = "{485, 520}";
}
);
layerId = "543F9737-16F7-428D-9F96-2EBD9FC8D3B6";
name = Light;
paths = (
{
closed = 1;
nodes = (
"695 0 LINE",
"719 136 LINE",
"695 136 LINE",
"675 23 LINE",
"281 23 LINE SMOOTH",
"118 23 OFFCURVE",
"32 111 OFFCURVE",
"57 255 CURVE SMOOTH",
"82 399 OFFCURVE",
"202 497 OFFCURVE",
"365 497 CURVE SMOOTH",
"758 497 LINE",
"738 384 LINE",
"763 384 LINE",
"787 520 LINE",
"369 520 LINE SMOOTH",
"196 520 OFFCURVE",
"60 416 OFFCURVE",
"32 255 CURVE SMOOTH",
"4 94 OFFCURVE",
"104 0 OFFCURVE",
"277 0 CURVE SMOOTH"
);
},
{
closed = 1;
nodes = (
"378 13 LINE",
"465 507 LINE",
"440 507 LINE",
"353 13 LINE"
);
},
{
closed = 1;
nodes = (
"582 261 LINE",
"586 284 LINE",
"423 284 LINE",
"419 261 LINE"
);
},
{
closed = 1;
nodes = (
"580 178 LINE",
"614 367 LINE",
"589 367 LINE",
"555 178 LINE"
);
}
);
width = 818;
},
{
anchors = (
{
name = bottom;
position = "{429, 0}";
},
{
name = center;
position = "{475, 263}";
},
{
name = ogonek;
position = "{771, 0}";
},
{
name = top;
position = "{521, 520}";
}
);
layerId = "EB38A4D2-CD30-49BA-8E45-1F04A566FFE8";
name = Bold;
paths = (
{
closed = 1;
nodes = (
"771 0 LINE",
"805 190 LINE",
"697 190 LINE",
"680 96 LINE",
"301 96 LINE SMOOTH",
"223 96 OFFCURVE",
"111 117 OFFCURVE",
"136 261 CURVE SMOOTH",
"162 406 OFFCURVE",
"281 424 OFFCURVE",
"359 424 CURVE SMOOTH",
"738 424 LINE",
"721 329 LINE",
"829 329 LINE",
"863 520 LINE",
"346 520 LINE SMOOTH",
"203 520 OFFCURVE",
"41 448 OFFCURVE",
"8 261 CURVE SMOOTH",
"-25 74 OFFCURVE",
"111 0 OFFCURVE",
"254 0 CURVE SMOOTH"
);
},
{
closed = 1;
nodes = (
"455 53 LINE",
"527 458 LINE",
"405 458 LINE",
"333 53 LINE"
);
},
{
closed = 1;
nodes = (
"607 206 LINE",
"624 302 LINE",
"421 302 LINE",
"404 206 LINE"
);
},
{
closed = 1;
nodes = (
"639 151 LINE",
"675 357 LINE",
"579 357 LINE",
"543 151 LINE"
);
}
);
width = 888;
}
);
leftKerningGroup = O;
leftMetricsKey = "=O";
rightKerningGroup = E;
rightMetricsKey = "=E";
unicode = 0152;
},
{
glyphname = P;
lastChange = "2015-11-11 18:40:05 +0000";
layers = (
{
anchors = (
{
name = bottom;
position = "{399, 0}";
},
{
name = top;
position = "{491, 520}";
}
);
background = {
paths = (
{
closed = 1;
nodes = (
"263 13 LINE",
"263 477 LINE",
"238 477 LINE",
"238 13 LINE"
);
},
{
closed = 1;
nodes = (
"455 0 LINE",
"455 23 LINE",
"56 23 LINE",
"56 0 LINE"
);
},
{
closed = 1;
nodes = (
"694 193 LINE SMOOTH",
"806 193 OFFCURVE",
"874 258 OFFCURVE",
"874 340 CURVE SMOOTH",
"874 431 OFFCURVE",
"804 490 OFFCURVE",
"694 490 CURVE SMOOTH",
"56 490 LINE",
"56 467 LINE",
"701 467 LINE SMOOTH",
"790 467 OFFCURVE",
"849 415 OFFCURVE",
"849 340 CURVE SMOOTH",
"849 267 OFFCURVE",
"787 216 OFFCURVE",
"701 216 CURVE SMOOTH",
"251 216 LINE",
"251 193 LINE"
);
}
);
};
layerId = "B29C398E-974A-40D0-A0A0-00935056D4B4";
name = "Light Extended";
paths = (
{
closed = 1;
nodes = (
"669 213 LINE SMOOTH",
"781 213 OFFCURVE",
"860 278 OFFCURVE",
"875 365 CURVE SMOOTH",
"892 461 OFFCURVE",
"833 520 OFFCURVE",
"723 520 CURVE SMOOTH",
"85 520 LINE",
"81 497 LINE",
"726 497 LINE SMOOTH",
"815 497 OFFCURVE",
"865 445 OFFCURVE",
"850 365 CURVE SMOOTH",
"837 287 OFFCURVE",
"766 236 OFFCURVE",
"680 236 CURVE SMOOTH",
"230 236 LINE",
"226 213 LINE"
);
},
{
closed = 1;
nodes = (
"392 0 LINE",
"396 23 LINE",
"-3 23 LINE",
"-7 0 LINE"
);
},
{
closed = 1;
nodes = (
"202 13 LINE",
"289 507 LINE",
"264 507 LINE",
"177 13 LINE"
);
}
);
width = 934;
},
{
anchors = (
{
name = bottom;
position = "{210, 0}";
},
{
name = top;
position = "{296, 490}";
}
);
layerId = "543F9737-16F7-428D-9F96-2EBD9FC8D3B6";
name = Light;
paths = (
{
closed = 1;
nodes = (
"302 214 LINE SMOOTH",
"419 214 OFFCURVE",
"511 259 OFFCURVE",
"530 366 CURVE SMOOTH",
"549 475 OFFCURVE",
"485 520 OFFCURVE",
"368 520 CURVE SMOOTH",
"59 520 LINE",
"55 497 LINE",
"358 497 LINE SMOOTH",
"460 497 OFFCURVE",
"522 465 OFFCURVE",
"504 365 CURVE SMOOTH",
"488 273 OFFCURVE",
"400 240 OFFCURVE",
"301 238 CURVE SMOOTH",
"138 235 LINE",
"134 212 LINE"
);
},
{
closed = 1;
nodes = (
"223 0 LINE",
"227 23 LINE",
"-29 23 LINE",
"-33 0 LINE"
);
},
{
closed = 1;
nodes = (
"107 13 LINE",
"194 507 LINE",
"169 507 LINE",
"82 13 LINE"
);
}
);
width = 553;
},
{
anchors = (
{
name = bottom;
position = "{223, 0}";
},
{
name = top;
position = "{316, 527}";
}
);
layerId = "EB38A4D2-CD30-49BA-8E45-1F04A566FFE8";
name = Bold;
paths = (
{
closed = 1;
nodes = (
"320 176 LINE SMOOTH",
"446 176 OFFCURVE",
"540 247 OFFCURVE",
"558 352 CURVE SMOOTH",
"576 453 OFFCURVE",
"504 520 OFFCURVE",
"379 520 CURVE SMOOTH",
"54 520 LINE",
"37 424 LINE",
"354 424 LINE SMOOTH",
"399 424 OFFCURVE",
"447 410 OFFCURVE",
"437 353 CURVE SMOOTH",
"425 283 OFFCURVE",
"371 272 OFFCURVE",
"330 272 CURVE SMOOTH",
"175 273 LINE",
"158 176 LINE"
);
},
{
closed = 1;
nodes = (
"260 0 LINE",
"277 96 LINE",
"-21 96 LINE",
"-38 0 LINE"
);
},
{
closed = 1;
nodes = (
"179 53 LINE",
"253 468 LINE",
"130 468 LINE",
"56 53 LINE"
);
}
);
width = 569;
}
);
leftKerningGroup = H;
leftMetricsKey = "=H";
rightKerningGroup = P;
unicode = 0050;
},
{
glyphname = Thorn;
lastChange = "2015-11-11 18:40:05 +0000";
layers = (
{
background = {
paths = (
{
closed = 1;
nodes = (
"455 0 LINE SMOOTH",
"455 23 LINE SMOOTH",
"56 23 LINE SMOOTH",
"56 0 LINE SMOOTH"
);
}
);
};
layerId = "B29C398E-974A-40D0-A0A0-00935056D4B4";
name = "Light Extended";
paths = (
{
closed = 1;
nodes = (
"634 143 LINE SMOOTH",
"726 143 OFFCURVE",
"792 188 OFFCURVE",
"805 260 CURVE SMOOTH",
"818 332 OFFCURVE",
"768 377 OFFCURVE",
"676 377 CURVE SMOOTH",
"253 377 LINE",
"248 354 LINE",
"678 354 LINE SMOOTH",
"744 354 OFFCURVE",
"791 323 OFFCURVE",
"780 260 CURVE SMOOTH",
"769 197 OFFCURVE",
"711 166 OFFCURVE",
"645 166 CURVE SMOOTH",
"215 166 LINE",
"211 143 LINE"
);
},
{
closed = 1;
nodes = (
"382 0 LINE",
"386 23 LINE",
"-3 23 LINE",
"-7 0 LINE"
);
},
{
closed = 1;
nodes = (
"202 13 LINE SMOOTH",
"289 507 LINE SMOOTH",
"264 507 LINE SMOOTH",
"177 13 LINE SMOOTH"
);
},
{
closed = 1;
nodes = (
"470 497 LINE SMOOTH",
"474 520 LINE SMOOTH",
"85 520 LINE SMOOTH",
"81 497 LINE SMOOTH"
);
}
);
width = 882;
},
{
layerId = "543F9737-16F7-428D-9F96-2EBD9FC8D3B6";
name = Light;
paths = (
{
closed = 1;
nodes = (
"309 142 LINE SMOOTH",
"406 142 OFFCURVE",
"477 182 OFFCURVE",
"491 258 CURVE SMOOTH",
"504 334 OFFCURVE",
"447 376 OFFCURVE",
"350 376 CURVE SMOOTH",
"154 376 LINE",
"150 353 LINE",
"346 353 LINE SMOOTH",
"428 353 OFFCURVE",
"476 320 OFFCURVE",
"466 259 CURVE SMOOTH",
"455 198 OFFCURVE",
"395 165 OFFCURVE",
"313 165 CURVE SMOOTH",
"117 165 LINE",
"113 142 LINE"
);
},
{
closed = 1;
nodes = (
"223 0 LINE",
"227 23 LINE",
"-29 23 LINE",
"-33 0 LINE"
);
},
{
closed = 1;
nodes = (
"107 13 LINE",
"195 508 LINE",
"170 508 LINE",
"82 13 LINE"
);
},
{
closed = 1;
nodes = (
"311 497 LINE",
"315 520 LINE",
"59 520 LINE",
"55 497 LINE"
);
}
);
width = 538;
},
{
layerId = "EB38A4D2-CD30-49BA-8E45-1F04A566FFE8";
name = Bold;
paths = (
{
closed = 1;
nodes = (
"327 133 LINE SMOOTH",
"426 134 OFFCURVE",
"507 174 OFFCURVE",
"522 259 CURVE SMOOTH",
"537 346 OFFCURVE",
"470 384 OFFCURVE",
"371 384 CURVE SMOOTH",
"198 384 LINE",
"182 297 LINE",
"336 297 LINE SMOOTH",
"371 297 OFFCURVE",
"406 292 OFFCURVE",
"400 259 CURVE SMOOTH",
"393 221 OFFCURVE",
"353 218 OFFCURVE",
"322 218 CURVE SMOOTH",
"167 218 LINE",
"152 132 LINE"
);
},
{
closed = 1;
nodes = (
"253 0 LINE",
"270 96 LINE",
"-21 96 LINE",
"-38 0 LINE"
);
},
{
closed = 1;
nodes = (
"180 53 LINE",
"254 468 LINE",
"130 468 LINE",
"56 53 LINE"
);
},
{
closed = 1;
nodes = (
"328 424 LINE",
"345 520 LINE",
"54 520 LINE",
"37 424 LINE"
);
}
);
width = 544;
}
);
leftKerningGroup = H;
leftMetricsKey = "=I";
rightKerningGroup = Thorn;
unicode = 00DE;
},
{
glyphname = Q;
lastChange = "2015-11-11 18:40:05 +0000";
layers = (
{
anchors = (
{
name = bottom;
position = "{386, -10}";
},
{
name = top;
position = "{482, 530}";
}
);
background = {
paths = (
{
closed = 1;
nodes = (
"669 -20 OFFCURVE",
"836 78 OFFCURVE",
"836 248 CURVE",
"836 417 OFFCURVE",
"669 516 OFFCURVE",
"453 516 CURVE",
"237 516 OFFCURVE",
"70 417 OFFCURVE",
"70 248 CURVE",
"70 78 OFFCURVE",
"237 -20 OFFCURVE",
"453 -20 CURVE"
);
},
{
closed = 1;
nodes = (
"247 3 OFFCURVE",
"95 96 OFFCURVE",
"95 248 CURVE",
"95 400 OFFCURVE",
"247 493 OFFCURVE",
"453 493 CURVE",
"658 493 OFFCURVE",
"811 400 OFFCURVE",
"811 248 CURVE",
"811 96 OFFCURVE",
"658 3 OFFCURVE",
"453 3 CURVE"
);
}
);
};
layerId = "B29C398E-974A-40D0-A0A0-00935056D4B4";
name = "Light Extended";
paths = (
{
closed = 1;
nodes = (
"604 -10 OFFCURVE",
"789 88 OFFCURVE",
"819 260 CURVE",
"849 431 OFFCURVE",
"700 530 OFFCURVE",
"484 530 CURVE",
"268 530 OFFCURVE",
"83 431 OFFCURVE",
"53 260 CURVE",
"23 88 OFFCURVE",
"172 -10 OFFCURVE",
"388 -10 CURVE"
);
},
{
closed = 1;
nodes = (
"732 -158 OFFCURVE",
"806 -99 OFFCURVE",
"832 -13 CURVE",
"809 -9 LINE",
"786 -87 OFFCURVE",
"721 -135 OFFCURVE",
"644 -135 CURVE SMOOTH",
"566 -135 OFFCURVE",
"520 -80 OFFCURVE",
"465 2 CURVE SMOOTH",
"451 23 LINE SMOOTH",
"378 134 OFFCURVE",
"326 223 OFFCURVE",
"150 223 CURVE SMOOTH",
"69 223 LINE",
"65 200 LINE",
"146 200 LINE SMOOTH",
"308 200 OFFCURVE",
"361 113 OFFCURVE",
"425 17 CURVE SMOOTH",
"435 1 LINE SMOOTH",
"501 -99 OFFCURVE",
"548 -158 OFFCURVE",
"640 -158 CURVE SMOOTH"
);
},
{
closed = 1;
nodes = (
"186 13 OFFCURVE",
"51 106 OFFCURVE",
"78 260 CURVE",
"105 414 OFFCURVE",
"273 507 OFFCURVE",
"479 507 CURVE",
"684 507 OFFCURVE",
"821 414 OFFCURVE",
"794 260 CURVE",
"767 106 OFFCURVE",
"597 13 OFFCURVE",
"392 13 CURVE"
);
}
);
width = 912;
},
{
anchors = (
{
name = bottom;
position = "{236, -10}";
},
{
name = top;
position = "{332, 530}";
}
);
layerId = "543F9737-16F7-428D-9F96-2EBD9FC8D3B6";
name = Light;
paths = (
{
closed = 1;
nodes = (
"376 -10 OFFCURVE",
"509 89 OFFCURVE",
"539 260 CURVE",
"569 431 OFFCURVE",
"472 530 OFFCURVE",
"334 530 CURVE",
"195 530 OFFCURVE",
"63 431 OFFCURVE",
"33 260 CURVE",
"3 89 OFFCURVE",
"99 -10 OFFCURVE",
"238 -10 CURVE"
);
},
{
closed = 1;
nodes = (
"502 -158 OFFCURVE",
"547 -96 OFFCURVE",
"569 -31 CURVE",
"548 -26 LINE",
"530 -84 OFFCURVE",
"493 -135 OFFCURVE",
"433 -135 CURVE SMOOTH",
"372 -135 OFFCURVE",
"351 -73 OFFCURVE",
"317 42 CURVE",
"309 73 LINE",
"270 208 OFFCURVE",
"218 253 OFFCURVE",
"102 253 CURVE SMOOTH",
"46 253 LINE",
"42 230 LINE",
"98 230 LINE SMOOTH",
"209 230 OFFCURVE",
"250 183 OFFCURVE",
"283 67 CURVE",
"292 34 LINE",
"330 -96 OFFCURVE",
"359 -158 OFFCURVE",
"429 -158 CURVE SMOOTH"
);
},
{
closed = 1;
nodes = (
"114 14 OFFCURVE",
"30 107 OFFCURVE",
"57 260 CURVE",
"84 413 OFFCURVE",
"200 506 OFFCURVE",
"329 506 CURVE",
"457 506 OFFCURVE",
"542 413 OFFCURVE",
"515 260 CURVE",
"488 107 OFFCURVE",
"371 14 OFFCURVE",
"243 14 CURVE"
);
}
);
width = 608;
},
{
anchors = (
{
name = bottom;
position = "{242, -10}";
},
{
name = top;
position = "{338, 530}";
}
);
layerId = "EB38A4D2-CD30-49BA-8E45-1F04A566FFE8";
name = Bold;
paths = (
{
closed = 1;
nodes = (
"407 -10 OFFCURVE",
"548 110 OFFCURVE",
"575 260 CURVE",
"601 410 OFFCURVE",
"503 530 OFFCURVE",
"340 530 CURVE",
"176 530 OFFCURVE",
"34 410 OFFCURVE",
"8 260 CURVE",
"-19 110 OFFCURVE",
"80 -10 OFFCURVE",
"244 -10 CURVE"
);
},
{
closed = 1;
nodes = (
"516 -152 OFFCURVE",
"566 -96 OFFCURVE",
"592 -38 CURVE",
"512 -9 LINE",
"498 -42 OFFCURVE",
"482 -56 OFFCURVE",
"456 -56 CURVE SMOOTH",
"427 -56 OFFCURVE",
"412 -36 OFFCURVE",
"386 54 CURVE",
"356 157 LINE",
"324 265 OFFCURVE",
"258 285 OFFCURVE",
"164 285 CURVE SMOOTH",
"137 285 LINE",
"122 198 LINE",
"149 198 LINE SMOOTH",
"213 198 OFFCURVE",
"230 173 OFFCURVE",
"247 115 CURVE",
"277 17 LINE",
"314 -106 OFFCURVE",
"357 -152 OFFCURVE",
"439 -152 CURVE SMOOTH"
);
},
{
closed = 1;
nodes = (
"158 81 OFFCURVE",
"116 162 OFFCURVE",
"133 260 CURVE",
"150 357 OFFCURVE",
"221 439 OFFCURVE",
"322 439 CURVE",
"423 439 OFFCURVE",
"466 358 OFFCURVE",
"449 260 CURVE",
"432 163 OFFCURVE",
"360 81 OFFCURVE",
"259 81 CURVE"
);
}
);
width = 628;
}
);
leftKerningGroup = O;
leftMetricsKey = "=O";
rightKerningGroup = O;
unicode = 0051;
},
{
glyphname = Q.alt;
lastChange = "2015-11-11 18:40:05 +0000";
layers = (
{
anchors = (
{
name = bottom;
position = "{386, -10}";
},
{
name = top;
position = "{482, 530}";
}
);
background = {
paths = (
{
closed = 1;
nodes = (
"538 196 OFFCURVE",
"428 265 OFFCURVE",
"130 265 CURVE SMOOTH",
"83 265 LINE",
"83 242 LINE",
"130 242 LINE SMOOTH",
"395 242 OFFCURVE",
"507 191 OFFCURVE",
"661 -1 CURVE SMOOTH",
"830 -214 OFFCURVE",
"952 -351 OFFCURVE",
"1156 -351 CURVE SMOOTH",
"1296 -351 OFFCURVE",
"1387 -305 OFFCURVE",
"1465 -234 CURVE",
"1449 -216 LINE",
"1378 -281 OFFCURVE",
"1292 -328 OFFCURVE",
"1156 -328 CURVE SMOOTH",
"973 -328 OFFCURVE",
"853 -205 OFFCURVE",
"692 0 CURVE SMOOTH"
);
},
{
closed = 1;
nodes = (
"669 -20 OFFCURVE",
"836 78 OFFCURVE",
"836 248 CURVE",
"836 417 OFFCURVE",
"669 516 OFFCURVE",
"453 516 CURVE",
"237 516 OFFCURVE",
"70 417 OFFCURVE",
"70 248 CURVE",
"70 78 OFFCURVE",
"237 -20 OFFCURVE",
"453 -20 CURVE"
);
},
{
closed = 1;
nodes = (
"247 3 OFFCURVE",
"95 96 OFFCURVE",
"95 248 CURVE",
"95 400 OFFCURVE",
"247 493 OFFCURVE",
"453 493 CURVE",
"658 493 OFFCURVE",
"811 400 OFFCURVE",
"811 248 CURVE",
"811 96 OFFCURVE",
"658 3 OFFCURVE",
"453 3 CURVE"
);
}
);
};
guideLines = (
{
position = "{603, 27}";
}
);
layerId = "B29C398E-974A-40D0-A0A0-00935056D4B4";
name = "Light Extended";
paths = (
{
closed = 1;
nodes = (
"1244 -280 OFFCURVE",
"1353 -227 OFFCURVE",
"1427 -184 CURVE",
"1417 -165 LINE",
"1349 -206 OFFCURVE",
"1244 -257 OFFCURVE",
"1104 -257 CURVE SMOOTH",
"935 -257 OFFCURVE",
"818 -177 OFFCURVE",
"657 20 CURVE SMOOTH",
"522 185 OFFCURVE",
"412 265 OFFCURVE",
"164 265 CURVE SMOOTH",
"67 265 LINE",
"63 242 LINE",
"160 242 LINE SMOOTH",
"387 242 OFFCURVE",
"495 174 OFFCURVE",
"621 19 CURVE SMOOTH",
"787 -185 OFFCURVE",
"910 -280 OFFCURVE",
"1100 -280 CURVE SMOOTH"
);
},
{
closed = 1;
nodes = (
"604 -10 OFFCURVE",
"789 88 OFFCURVE",
"819 258 CURVE",
"848 427 OFFCURVE",
"699 526 OFFCURVE",
"483 526 CURVE",
"267 526 OFFCURVE",
"82 427 OFFCURVE",
"53 258 CURVE",
"23 88 OFFCURVE",
"172 -10 OFFCURVE",
"388 -10 CURVE"
);
},
{
closed = 1;
nodes = (
"186 13 OFFCURVE",
"51 106 OFFCURVE",
"78 258 CURVE",
"104 410 OFFCURVE",
"273 503 OFFCURVE",
"479 503 CURVE",
"684 503 OFFCURVE",
"820 410 OFFCURVE",
"794 258 CURVE",
"767 106 OFFCURVE",
"597 13 OFFCURVE",
"392 13 CURVE"
);
}
);
width = 905;
},
{
anchors = (
{
name = bottom;
position = "{236, -10}";
},
{
name = top;
position = "{332, 530}";
}
);
layerId = "543F9737-16F7-428D-9F96-2EBD9FC8D3B6";
name = Light;
paths = (
{
closed = 1;
nodes = (
"797 -188 OFFCURVE",
"858 -165 OFFCURVE",
"906 -136 CURVE",
"897 -117 LINE",
"853 -144 OFFCURVE",
"793 -165 OFFCURVE",
"728 -165 CURVE SMOOTH",
"615 -165 OFFCURVE",
"529 -104 OFFCURVE",
"423 61 CURVE SMOOTH",
"310 237 OFFCURVE",
"223 253 OFFCURVE",
"72 253 CURVE SMOOTH",
"46 253 LINE",
"42 230 LINE",
"68 230 LINE SMOOTH",
"219 230 OFFCURVE",
"294 213 OFFCURVE",
"395 55 CURVE SMOOTH",
"509 -123 OFFCURVE",
"601 -188 OFFCURVE",
"724 -188 CURVE SMOOTH"
);
},
{
closed = 1;
nodes = (
"376 -10 OFFCURVE",
"509 89 OFFCURVE",
"539 260 CURVE",
"569 431 OFFCURVE",
"472 530 OFFCURVE",
"334 530 CURVE",
"195 530 OFFCURVE",
"63 431 OFFCURVE",
"33 260 CURVE",
"3 89 OFFCURVE",
"99 -10 OFFCURVE",
"238 -10 CURVE"
);
},
{
closed = 1;
nodes = (
"114 14 OFFCURVE",
"30 107 OFFCURVE",
"57 260 CURVE",
"84 413 OFFCURVE",
"200 506 OFFCURVE",
"329 506 CURVE",
"457 506 OFFCURVE",
"542 413 OFFCURVE",
"515 260 CURVE",
"488 107 OFFCURVE",
"371 14 OFFCURVE",
"243 14 CURVE"
);
}
);
width = 617;
},
{
anchors = (
{
name = bottom;
position = "{242, -10}";
},
{
name = top;
position = "{338, 530}";
}
);
layerId = "EB38A4D2-CD30-49BA-8E45-1F04A566FFE8";
name = Bold;
paths = (
{
closed = 1;
nodes = (
"779 -228 OFFCURVE",
"853 -198 OFFCURVE",
"906 -164 CURVE",
"876 -79 LINE",
"826 -110 OFFCURVE",
"777 -128 OFFCURVE",
"717 -128 CURVE SMOOTH",
"627 -128 OFFCURVE",
"570 -72 OFFCURVE",
"496 59 CURVE SMOOTH",
"397 233 OFFCURVE",
"330 284 OFFCURVE",
"128 284 CURVE SMOOTH",
"85 284 LINE",
"70 197 LINE",
"116 197 LINE SMOOTH",
"260 197 OFFCURVE",
"313 156 OFFCURVE",
"392 11 CURVE SMOOTH",
"495 -179 OFFCURVE",
"574 -228 OFFCURVE",
"700 -228 CURVE SMOOTH"
);
},
{
closed = 1;
nodes = (
"407 -10 OFFCURVE",
"548 110 OFFCURVE",
"575 260 CURVE",
"601 410 OFFCURVE",
"503 530 OFFCURVE",
"340 530 CURVE",
"176 530 OFFCURVE",
"34 410 OFFCURVE",
"8 260 CURVE",
"-19 110 OFFCURVE",
"80 -10 OFFCURVE",
"244 -10 CURVE"
);
},
{
closed = 1;
nodes = (
"158 81 OFFCURVE",
"116 162 OFFCURVE",
"133 260 CURVE",
"150 357 OFFCURVE",
"221 439 OFFCURVE",
"322 439 CURVE",
"423 439 OFFCURVE",
"466 358 OFFCURVE",
"449 260 CURVE",
"432 163 OFFCURVE",
"360 81 OFFCURVE",
"259 81 CURVE"
);
}
);
width = 625;
}
);
leftKerningGroup = Q.alt;
leftMetricsKey = "=O";
rightKerningGroup = Q.alt;
},
{
glyphname = R;
lastChange = "2015-11-11 18:40:05 +0000";
layers = (
{
anchors = (
{
name = bottom;
position = "{501, 0}";
},
{
name = top;
position = "{553, 520}";
}
);
background = {
paths = (
{
closed = 1;
nodes = (
"452 239 LINE SMOOTH",
"536 239 OFFCURVE",
"581 169 OFFCURVE",
"630 110 CURVE SMOOTH",
"685 44 OFFCURVE",
"747 -37 OFFCURVE",
"839 -37 CURVE SMOOTH",
"949 -37 OFFCURVE",
"1012 37 OFFCURVE",
"1012 148 CURVE SMOOTH",
"1012 169 LINE",
"987 169 LINE",
"987 148 LINE SMOOTH",
"987 48 OFFCURVE",
"931 -14 OFFCURVE",
"839 -14 CURVE SMOOTH",
"756 -14 OFFCURVE",
"705 60 OFFCURVE",
"651 123 CURVE SMOOTH",
"588 197 OFFCURVE",
"548 253 OFFCURVE",
"440 253 CURVE SMOOTH",
"258 253 LINE",
"258 239 LINE"
);
},
{
closed = 1;
nodes = (
"263 13 LINE",
"263 507 LINE",
"238 507 LINE",
"238 13 LINE"
);
},
{
closed = 1;
nodes = (
"454 0 LINE",
"454 23 LINE",
"56 22 LINE",
"56 -1 LINE"
);
},
{
closed = 1;
nodes = (
"717 241 LINE SMOOTH",
"841 241 OFFCURVE",
"900 309 OFFCURVE",
"900 378 CURVE SMOOTH",
"900 457 OFFCURVE",
"840 520 OFFCURVE",
"717 520 CURVE SMOOTH",
"56 520 LINE",
"56 497 LINE",
"717 497 LINE SMOOTH",
"826 497 OFFCURVE",
"875 441 OFFCURVE",
"875 378 CURVE SMOOTH",
"875 317 OFFCURVE",
"823 262 OFFCURVE",
"717 262 CURVE SMOOTH",
"258 262 LINE",
"258 241 LINE"
);
}
);
};
layerId = "B29C398E-974A-40D0-A0A0-00935056D4B4";
name = "Light Extended";
paths = (
{
closed = 1;
nodes = (
"697 241 LINE SMOOTH",
"821 241 OFFCURVE",
"892 309 OFFCURVE",
"904 378 CURVE SMOOTH",
"918 457 OFFCURVE",
"869 520 OFFCURVE",
"746 520 CURVE SMOOTH",
"85 520 LINE",
"81 497 LINE",
"742 497 LINE SMOOTH",
"851 497 OFFCURVE",
"890 441 OFFCURVE",
"879 378 CURVE SMOOTH",
"868 317 OFFCURVE",
"806 262 OFFCURVE",
"700 262 CURVE SMOOTH",
"241 262 LINE",
"238 241 LINE"
);
},
{
closed = 1;
nodes = (
"382 0 LINE",
"386 23 LINE",
"-3 22 LINE",
"-7 -1 LINE"
);
},
{
closed = 1;
nodes = (
"202 13 LINE",
"289 507 LINE",
"264 507 LINE",
"177 13 LINE"
);
},
{
closed = 1;
nodes = (
"884 -10 OFFCURVE",
"960 64 OFFCURVE",
"976 155 CURVE SMOOTH",
"980 176 LINE",
"955 176 LINE",
"951 155 LINE SMOOTH",
"937 75 OFFCURVE",
"870 13 OFFCURVE",
"793 13 CURVE SMOOTH",
"713 13 OFFCURVE",
"683 67 OFFCURVE",
"636 138 CURVE SMOOTH",
"578 227 OFFCURVE",
"550 253 OFFCURVE",
"442 253 CURVE SMOOTH",
"240 253 LINE",
"237 239 LINE",
"451 239 LINE SMOOTH",
"535 239 OFFCURVE",
"567 201 OFFCURVE",
"613 125 CURVE SMOOTH",
"659 49 OFFCURVE",
"700 -10 OFFCURVE",
"789 -10 CURVE SMOOTH"
);
}
);
width = 1047;
},
{
anchors = (
{
name = bottom;
position = "{272, 0}";
},
{
name = top;
position = "{324, 520}";
}
);
layerId = "543F9737-16F7-428D-9F96-2EBD9FC8D3B6";
name = Light;
paths = (
{
closed = 1;
nodes = (
"332 241 LINE SMOOTH",
"446 241 OFFCURVE",
"517 309 OFFCURVE",
"529 378 CURVE SMOOTH",
"543 457 OFFCURVE",
"494 520 OFFCURVE",
"381 520 CURVE SMOOTH",
"59 520 LINE",
"55 497 LINE",
"377 497 LINE SMOOTH",
"476 497 OFFCURVE",
"515 441 OFFCURVE",
"504 378 CURVE SMOOTH",
"493 317 OFFCURVE",
"431 262 OFFCURVE",
"335 262 CURVE SMOOTH",
"146 262 LINE",
"143 241 LINE"
);
},
{
closed = 1;
nodes = (
"218 0 LINE",
"222 23 LINE",
"-29 22 LINE",
"-33 -1 LINE"
);
},
{
closed = 1;
nodes = (
"107 13 LINE",
"194 507 LINE",
"169 507 LINE",
"82 13 LINE"
);
},
{
closed = 1;
nodes = (
"503 -10 OFFCURVE",
"542 44 OFFCURVE",
"551 95 CURVE SMOOTH",
"555 116 LINE",
"530 116 LINE",
"526 95 LINE SMOOTH",
"519 55 OFFCURVE",
"493 13 OFFCURVE",
"448 13 CURVE SMOOTH",
"400 13 OFFCURVE",
"389 52 OFFCURVE",
"364 150 CURVE SMOOTH",
"338 246 OFFCURVE",
"275 253 OFFCURVE",
"187 253 CURVE SMOOTH",
"145 253 LINE",
"142 239 LINE",
"216 239 LINE SMOOTH",
"280 239 OFFCURVE",
"323 214 OFFCURVE",
"340 137 CURVE SMOOTH",
"363 35 OFFCURVE",
"390 -10 OFFCURVE",
"444 -10 CURVE SMOOTH"
);
}
);
width = 607;
},
{
anchors = (
{
name = bottom;
position = "{297, 0}";
},
{
name = top;
position = "{349, 520}";
}
);
background = {
paths = (
{
closed = 1;
nodes = (
"357 217 LINE SMOOTH",
"489 217 OFFCURVE",
"554 297 OFFCURVE",
"554 369 CURVE SMOOTH",
"554 457 OFFCURVE",
"488 520 OFFCURVE",
"357 520 CURVE SMOOTH",
"25 520 LINE",
"25 424 LINE",
"350 424 LINE SMOOTH",
"387 424 OFFCURVE",
"432 415 OFFCURVE",
"432 369 CURVE SMOOTH",
"432 319 OFFCURVE",
"384 307 OFFCURVE",
"350 307 CURVE SMOOTH",
"190 307 LINE",
"190 217 LINE"
);
},
{
closed = 1;
nodes = (
"318 0 LINE",
"318 96 LINE",
"25 97 LINE",
"25 0 LINE"
);
},
{
closed = 1;
nodes = (
"233 53 LINE",
"233 464 LINE",
"110 464 LINE",
"110 53 LINE"
);
},
{
closed = 1;
nodes = (
"587 -11 OFFCURVE",
"639 57 OFFCURVE",
"639 138 CURVE SMOOTH",
"639 161 LINE",
"534 161 LINE",
"534 136 LINE SMOOTH",
"534 111 OFFCURVE",
"522 91 OFFCURVE",
"497 91 CURVE SMOOTH",
"475 91 OFFCURVE",
"463 105 OFFCURVE",
"450 133 CURVE SMOOTH",
"429 177 OFFCURVE",
"409 235 OFFCURVE",
"340 235 CURVE SMOOTH",
"247 235 LINE",
"247 217 LINE",
"266 217 LINE SMOOTH",
"297 217 OFFCURVE",
"313 173 OFFCURVE",
"337 119 CURVE SMOOTH",
"359 68 OFFCURVE",
"401 -11 OFFCURVE",
"497 -11 CURVE SMOOTH"
);
}
);
};
layerId = "EB38A4D2-CD30-49BA-8E45-1F04A566FFE8";
name = Bold;
paths = (
{
closed = 1;
nodes = (
"332 217 LINE SMOOTH",
"453 217 OFFCURVE",
"539 272 OFFCURVE",
"556 369 CURVE SMOOTH",
"573 466 OFFCURVE",
"497 520 OFFCURVE",
"376 520 CURVE SMOOTH",
"54 520 LINE",
"37 424 LINE",
"362 424 LINE SMOOTH",
"399 424 OFFCURVE",
"442 415 OFFCURVE",
"434 369 CURVE SMOOTH",
"425 319 OFFCURVE",
"375 307 OFFCURVE",
"341 307 CURVE SMOOTH",
"181 307 LINE",
"165 217 LINE"
);
},
{
closed = 1;
nodes = (
"250 0 LINE",
"267 96 LINE",
"-21 97 LINE",
"-38 0 LINE"
);
},
{
closed = 1;
nodes = (
"179 53 LINE",
"252 464 LINE",
"129 464 LINE",
"56 53 LINE"
);
},
{
closed = 1;
nodes = (
"507 -11 OFFCURVE",
"570 53 OFFCURVE",
"585 134 CURVE SMOOTH",
"589 161 LINE",
"484 161 LINE",
"479 132 LINE SMOOTH",
"475 107 OFFCURVE",
"461 91 OFFCURVE",
"444 91 CURVE SMOOTH",
"427 91 OFFCURVE",
"420 99 OFFCURVE",
"411 133 CURVE SMOOTH",
"391 206 OFFCURVE",
"360 235 OFFCURVE",
"313 235 CURVE SMOOTH",
"205 235 LINE",
"202 217 LINE",
"231 217 LINE SMOOTH",
"262 217 OFFCURVE",
"276 173 OFFCURVE",
"290 119 CURVE SMOOTH",
"303 68 OFFCURVE",
"321 -11 OFFCURVE",
"426 -11 CURVE SMOOTH"
);
}
);
width = 639;
}
);
leftKerningGroup = H;
leftMetricsKey = "=H";
rightKerningGroup = R;
unicode = 0052;
},
{
glyphname = R.alt;
lastChange = "2015-11-11 18:40:05 +0000";
layers = (
{
anchors = (
{
name = bottom;
position = "{384, 0}";
},
{
name = top;
position = "{476, 520}";
}
);
background = {
paths = (
{
closed = 1;
nodes = (
"263 18 LINE",
"263 475 LINE",
"238 475 LINE",
"238 18 LINE"
);
},
{
closed = 1;
nodes = (
"456 0 LINE",
"456 23 LINE",
"56 23 LINE",
"56 0 LINE"
);
},
{
closed = 1;
nodes = (
"613 213 LINE SMOOTH",
"729 213 OFFCURVE",
"815 264 OFFCURVE",
"815 350 CURVE SMOOTH",
"815 433 OFFCURVE",
"754 490 OFFCURVE",
"638 490 CURVE SMOOTH",
"56 490 LINE",
"56 467 LINE",
"638 467 LINE SMOOTH",
"741 467 OFFCURVE",
"790 417 OFFCURVE",
"790 350 CURVE SMOOTH",
"790 276 OFFCURVE",
"711 236 OFFCURVE",
"613 236 CURVE SMOOTH",
"251 236 LINE",
"251 213 LINE"
);
},
{
closed = 1;
nodes = (
"302 225 LINE",
"281 213 LINE",
"403 213 LINE SMOOTH",
"566 213 OFFCURVE",
"642 173 OFFCURVE",
"762 -8 CURVE SMOOTH",
"904 -223 OFFCURVE",
"1051 -353 OFFCURVE",
"1266 -353 CURVE SMOOTH",
"1433 -353 OFFCURVE",
"1537 -286 OFFCURVE",
"1595 -248 CURVE",
"1584 -229 LINE",
"1531 -265 OFFCURVE",
"1429 -330 OFFCURVE",
"1266 -330 CURVE SMOOTH",
"1072 -330 OFFCURVE",
"928 -214 OFFCURVE",
"790 -7 CURVE SMOOTH",
"672 170 OFFCURVE",
"610 225 OFFCURVE",
"405 225 CURVE SMOOTH"
);
}
);
};
guideLines = (
{
position = "{475, -263}";
}
);
layerId = "B29C398E-974A-40D0-A0A0-00935056D4B4";
name = "Light Extended";
paths = (
{
closed = 1;
nodes = (
"1301 -280 OFFCURVE",
"1407 -214 OFFCURVE",
"1472 -176 CURVE",
"1464 -156 LINE",
"1404 -192 OFFCURVE",
"1301 -257 OFFCURVE",
"1138 -257 CURVE SMOOTH",
"944 -257 OFFCURVE",
"826 -143 OFFCURVE",
"734 13 CURVE SMOOTH",
"630 189 OFFCURVE",
"574 247 OFFCURVE",
"386 247 CURVE SMOOTH",
"232 247 LINE",
"230 233 LINE",
"381 233 LINE SMOOTH",
"544 233 OFFCURVE",
"597 187 OFFCURVE",
"701 12 CURVE SMOOTH",
"796 -147 OFFCURVE",
"919 -280 OFFCURVE",
"1134 -280 CURVE SMOOTH"
);
},
{
closed = 1;
nodes = (
"382 0 LINE",
"386 23 LINE",
"-3 23 LINE",
"-7 0 LINE"
);
},
{
closed = 1;
nodes = (
"203 18 LINE",
"289 505 LINE",
"264 505 LINE",
"178 18 LINE"
);
},
{
closed = 1;
nodes = (
"609 234 LINE SMOOTH",
"733 234 OFFCURVE",
"804 303 OFFCURVE",
"818 378 CURVE SMOOTH",
"833 462 OFFCURVE",
"783 520 OFFCURVE",
"660 520 CURVE SMOOTH",
"85 520 LINE",
"81 497 LINE",
"656 497 LINE SMOOTH",
"765 497 OFFCURVE",
"805 446 OFFCURVE",
"793 378 CURVE SMOOTH",
"781 311 OFFCURVE",
"719 255 OFFCURVE",
"613 255 CURVE SMOOTH",
"240 255 LINE",
"236 234 LINE"
);
}
);
width = 926;
},
{
anchors = (
{
name = bottom;
position = "{262, 0}";
},
{
name = top;
position = "{314, 520}";
}
);
layerId = "543F9737-16F7-428D-9F96-2EBD9FC8D3B6";
name = Light;
paths = (
{
closed = 1;
nodes = (
"771 -188 OFFCURVE",
"832 -163 OFFCURVE",
"875 -136 CURVE",
"866 -117 LINE",
"827 -142 OFFCURVE",
"767 -165 OFFCURVE",
"705 -165 CURVE SMOOTH",
"599 -165 OFFCURVE",
"528 -118 OFFCURVE",
"451 70 CURVE SMOOTH",
"386 230 OFFCURVE",
"347 253 OFFCURVE",
"259 253 CURVE SMOOTH",
"185 253 LINE",
"183 241 LINE",
"257 241 LINE SMOOTH",
"321 241 OFFCURVE",
"362 224 OFFCURVE",
"428 60 CURVE SMOOTH",
"507 -138 OFFCURVE",
"582 -188 OFFCURVE",
"701 -188 CURVE SMOOTH"
);
},
{
closed = 1;
nodes = (
"218 0 LINE",
"222 23 LINE",
"-29 22 LINE",
"-33 -1 LINE"
);
},
{
closed = 1;
nodes = (
"107 13 LINE",
"194 507 LINE",
"169 507 LINE",
"82 13 LINE"
);
},
{
closed = 1;
nodes = (
"332 241 LINE SMOOTH",
"446 241 OFFCURVE",
"517 309 OFFCURVE",
"529 378 CURVE SMOOTH",
"543 457 OFFCURVE",
"494 520 OFFCURVE",
"381 520 CURVE SMOOTH",
"59 520 LINE",
"55 497 LINE",
"377 497 LINE SMOOTH",
"476 497 OFFCURVE",
"515 441 OFFCURVE",
"504 378 CURVE SMOOTH",
"493 317 OFFCURVE",
"431 262 OFFCURVE",
"335 262 CURVE SMOOTH",
"146 262 LINE",
"143 241 LINE"
);
}
);
width = 597;
},
{
anchors = (
{
name = bottom;
position = "{294, 0}";
},
{
name = top;
position = "{346, 520}";
}
);
layerId = "EB38A4D2-CD30-49BA-8E45-1F04A566FFE8";
name = Bold;
paths = (
{
closed = 1;
nodes = (
"836 -193 OFFCURVE",
"928 -154 OFFCURVE",
"997 -107 CURVE",
"962 -22 LINE",
"901 -63 OFFCURVE",
"835 -89 OFFCURVE",
"756 -89 CURVE SMOOTH",
"660 -89 OFFCURVE",
"567 -52 OFFCURVE",
"486 72 CURVE SMOOTH",
"417 180 OFFCURVE",
"382 229 OFFCURVE",
"314 229 CURVE SMOOTH",
"179 229 LINE",
"176 210 LINE",
"223 210 LINE SMOOTH",
"279 210 OFFCURVE",
"279 156 OFFCURVE",
"368 22 CURVE SMOOTH",
"452 -98 OFFCURVE",
"560 -193 OFFCURVE",
"720 -193 CURVE SMOOTH"
);
},
{
closed = 1;
nodes = (
"255 0 LINE",
"272 96 LINE",
"-21 97 LINE",
"-38 0 LINE"
);
},
{
closed = 1;
nodes = (
"179 53 LINE",
"252 464 LINE",
"129 464 LINE",
"56 53 LINE"
);
},
{
closed = 1;
nodes = (
"331 210 LINE SMOOTH",
"463 210 OFFCURVE",
"541 285 OFFCURVE",
"556 366 CURVE SMOOTH",
"572 457 OFFCURVE",
"517 520 OFFCURVE",
"386 520 CURVE SMOOTH",
"54 520 LINE",
"37 424 LINE",
"362 424 LINE SMOOTH",
"399 424 OFFCURVE",
"442 415 OFFCURVE",
"434 366 CURVE SMOOTH",
"423 307 OFFCURVE",
"374 301 OFFCURVE",
"340 301 CURVE SMOOTH",
"180 301 LINE",
"164 210 LINE"
);
}
);
width = 587;
}
);
leftKerningGroup = R.alt;
leftMetricsKey = "=H";
rightKerningGroup = R.alt;
},
{
glyphname = S;
lastChange = "2015-11-11 18:40:05 +0000";
layers = (
{
anchors = (
{
name = bottom;
position = "{399, -10}";
},
{
name = top;
position = "{475, 530}";
}
);
background = {
paths = (
{
closed = 1;
nodes = (
"237 494 OFFCURVE",
"136 450 OFFCURVE",
"136 375 CURVE SMOOTH",
"136 305 OFFCURVE",
"221 281 OFFCURVE",
"424 258 CURVE SMOOTH",
"658 232 OFFCURVE",
"771 218 OFFCURVE",
"771 119 CURVE SMOOTH",
"771 20 OFFCURVE",
"652 -20 OFFCURVE",
"491 -20 CURVE",
"319 -20 OFFCURVE",
"165 55 OFFCURVE",
"112 120 CURVE",
"134 120 LINE",
"134 0 LINE",
"109 0 LINE",
"109 158 LINE",
"185 64 OFFCURVE",
"343 3 OFFCURVE",
"492 3 CURVE",
"636 3 OFFCURVE",
"747 43 OFFCURVE",
"747 119 CURVE SMOOTH",
"747 196 OFFCURVE",
"652 209 OFFCURVE",
"423 234 CURVE SMOOTH",
"206 257 OFFCURVE",
"111 281 OFFCURVE",
"111 375 CURVE SMOOTH",
"111 466 OFFCURVE",
"211 517 OFFCURVE",
"368 517 CURVE",
"567 517 OFFCURVE",
"680 440 OFFCURVE",
"732 375 CURVE",
"711 375 LINE",
"711 490 LINE",
"736 490 LINE",
"736 338 LINE",
"659 431 OFFCURVE",
"543 494 OFFCURVE",
"366 494 CURVE"
);
}
);
};
layerId = "B29C398E-974A-40D0-A0A0-00935056D4B4";
name = "Light Extended";
paths = (
{
closed = 1;
nodes = (
"602 -10 OFFCURVE",
"714 34 OFFCURVE",
"730 124 CURVE SMOOTH",
"746 218 OFFCURVE",
"654 249 OFFCURVE",
"418 268 CURVE SMOOTH",
"198 286 OFFCURVE",
"129 316 OFFCURVE",
"141 386 CURVE SMOOTH",
"156 468 OFFCURVE",
"253 507 OFFCURVE",
"392 507 CURVE SMOOTH",
"559 507 OFFCURVE",
"659 444 OFFCURVE",
"728 344 CURVE",
"734 346 LINE",
"765 520 LINE",
"742 520 LINE",
"717 378 LINE",
"731 378 LINE",
"677 453 OFFCURVE",
"583 530 OFFCURVE",
"399 530 CURVE SMOOTH",
"237 530 OFFCURVE",
"133 479 OFFCURVE",
"116 386 CURVE SMOOTH",
"102 305 OFFCURVE",
"171 261 OFFCURVE",
"413 244 CURVE SMOOTH",
"636 228 OFFCURVE",
"719 201 OFFCURVE",
"706 124 CURVE SMOOTH",
"692 47 OFFCURVE",
"590 13 OFFCURVE",
"466 13 CURVE SMOOTH",
"317 13 OFFCURVE",
"155 73 OFFCURVE",
"83 177 CURVE",
"77 175 LINE",
"46 0 LINE",
"69 0 LINE",
"94 140 LINE",
"79 140 LINE",
"139 65 OFFCURVE",
"289 -10 OFFCURVE",
"461 -10 CURVE SMOOTH"
);
}
);
width = 848;
},
{
anchors = (
{
name = bottom;
position = "{229, -10}";
},
{
name = top;
position = "{305, 530}";
}
);
background = {
paths = (
{
closed = 0;
nodes = (
"337 13 LINE",
"253 13 OFFCURVE",
"145 64 OFFCURVE",
"59 178 CURVE",
"59 0 LINE",
"82 0 LINE",
"82 140 LINE",
"67 140 LINE",
"130 55 OFFCURVE",
"229 -10 OFFCURVE",
"337 -10 CURVE"
);
}
);
};
layerId = "543F9737-16F7-428D-9F96-2EBD9FC8D3B6";
name = Light;
paths = (
{
closed = 1;
nodes = (
"367 -10 OFFCURVE",
"446 44 OFFCURVE",
"459 119 CURVE SMOOTH",
"473 198 OFFCURVE",
"405 230 OFFCURVE",
"268 269 CURVE SMOOTH",
"147 304 OFFCURVE",
"83 338 OFFCURVE",
"95 406 CURVE SMOOTH",
"106 468 OFFCURVE",
"163 507 OFFCURVE",
"252 507 CURVE SMOOTH",
"345 507 OFFCURVE",
"421 462 OFFCURVE",
"471 361 CURVE",
"477 362 LINE",
"505 520 LINE",
"482 520 LINE",
"459 389 LINE",
"475 388 LINE",
"434 480 OFFCURVE",
"352 530 OFFCURVE",
"257 530 CURVE SMOOTH",
"152 530 OFFCURVE",
"83 479 OFFCURVE",
"69 404 CURVE SMOOTH",
"56 328 OFFCURVE",
"120 283 OFFCURVE",
"263 244 CURVE SMOOTH",
"388 210 OFFCURVE",
"446 181 OFFCURVE",
"435 119 CURVE SMOOTH",
"424 55 OFFCURVE",
"355 13 OFFCURVE",
"266 13 CURVE SMOOTH",
"164 13 OFFCURVE",
"77 63 OFFCURVE",
"31 159 CURVE",
"25 158 LINE",
"-3 0 LINE",
"20 0 LINE",
"43 131 LINE",
"26 132 LINE",
"64 45 OFFCURVE",
"158 -10 OFFCURVE",
"262 -10 CURVE SMOOTH"
);
}
);
width = 546;
},
{
anchors = (
{
name = bottom;
position = "{247, -10}";
},
{
name = top;
position = "{323, 530}";
}
);
layerId = "EB38A4D2-CD30-49BA-8E45-1F04A566FFE8";
name = Bold;
paths = (
{
closed = 1;
nodes = (
"402 -10 OFFCURVE",
"489 45 OFFCURVE",
"505 138 CURVE SMOOTH",
"523 239 OFFCURVE",
"440 284 OFFCURVE",
"331 315 CURVE SMOOTH",
"230 344 OFFCURVE",
"194 358 OFFCURVE",
"199 387 CURVE SMOOTH",
"205 417 OFFCURVE",
"235 434 OFFCURVE",
"278 434 CURVE SMOOTH",
"351 434 OFFCURVE",
"417 385 OFFCURVE",
"441 332 CURVE",
"513 336 LINE",
"546 520 LINE",
"437 520 LINE",
"416 405 LINE",
"475 400 LINE",
"434 474 OFFCURVE",
"375 530 OFFCURVE",
"275 530 CURVE SMOOTH",
"174 530 OFFCURVE",
"86 468 OFFCURVE",
"69 376 CURVE SMOOTH",
"55 296 OFFCURVE",
"95 237 OFFCURVE",
"210 206 CURVE SMOOTH",
"336 172 OFFCURVE",
"380 155 OFFCURVE",
"375 123 CURVE SMOOTH",
"370 97 OFFCURVE",
"344 84 OFFCURVE",
"308 84 CURVE SMOOTH",
"238 84 OFFCURVE",
"156 128 OFFCURVE",
"112 194 CURVE",
"36 190 LINE",
"2 1 LINE",
"112 1 LINE",
"132 114 LINE",
"66 121 LINE",
"125 50 OFFCURVE",
"192 -10 OFFCURVE",
"299 -10 CURVE SMOOTH"
);
}
);
width = 582;
}
);
leftKerningGroup = S;
rightKerningGroup = S;
unicode = 0053;
},
{
glyphname = Germandbls;
lastChange = "2015-11-11 18:40:05 +0000";
layers = (
{
layerId = "B29C398E-974A-40D0-A0A0-00935056D4B4";
name = "Light Extended";
paths = (
{
closed = 1;
nodes = (
"328 0 LINE",
"351 130 LINE",
"336 130 LINE",
"396 55 OFFCURVE",
"502 -20 OFFCURVE",
"639 -20 CURVE SMOOTH",
"740 -20 OFFCURVE",
"826 24 OFFCURVE",
"839 98 CURVE SMOOTH",
"854 182 OFFCURVE",
"767 234 OFFCURVE",
"517 253 CURVE",
"878 499 LINE",
"868 518 LINE",
"461 238 LINE",
"772 215 OFFCURVE",
"826 160 OFFCURVE",
"815 98 CURVE SMOOTH",
"805 37 OFFCURVE",
"728 3 OFFCURVE",
"644 3 CURVE SMOOTH",
"530 3 OFFCURVE",
"418 61 OFFCURVE",
"340 165 CURVE",
"334 163 LINE",
"305 0 LINE"
);
},
{
closed = 1;
nodes = (
"298 532 OFFCURVE",
"197 443 OFFCURVE",
"172 300 CURVE SMOOTH",
"123 23 LINE",
"-59 23 LINE",
"-63 0 LINE",
"144 0 LINE",
"197 302 LINE SMOOTH",
"220 429 OFFCURVE",
"311 509 OFFCURVE",
"447 509 CURVE SMOOTH",
"568 509 OFFCURVE",
"643 441 OFFCURVE",
"698 385 CURVE",
"720 400 LINE",
"665 458 OFFCURVE",
"576 532 OFFCURVE",
"453 532 CURVE SMOOTH"
);
}
);
width = 935;
},
{
background = {
paths = (
{
closed = 1;
nodes = (
"495 238 LINE",
"810 215 OFFCURVE",
"874 160 OFFCURVE",
"874 98 CURVE SMOOTH",
"874 37 OFFCURVE",
"803 3 OFFCURVE",
"719 3 CURVE SMOOTH",
"605 3 OFFCURVE",
"477 64 OFFCURVE",
"381 168 CURVE",
"381 0 LINE",
"404 0 LINE",
"404 130 LINE",
"389 130 LINE",
"462 55 OFFCURVE",
"581 -20 OFFCURVE",
"718 -20 CURVE SMOOTH",
"819 -20 OFFCURVE",
"898 24 OFFCURVE",
"898 98 CURVE SMOOTH",
"898 182 OFFCURVE",
"802 234 OFFCURVE",
"548 253 CURVE",
"866 499 LINE",
"853 518 LINE"
);
},
{
closed = 1;
nodes = (
"212 0 LINE",
"212 23 LINE",
"13 23 LINE",
"13 0 LINE"
);
},
{
closed = 1;
nodes = (
"725 400 LINE",
"660 458 OFFCURVE",
"568 518 OFFCURVE",
"445 518 CURVE SMOOTH",
"290 518 OFFCURVE",
"195 424 OFFCURVE",
"195 286 CURVE SMOOTH",
"195 0 LINE",
"220 0 LINE",
"220 288 LINE SMOOTH",
"220 410 OFFCURVE",
"307 495 OFFCURVE",
"443 495 CURVE SMOOTH",
"564 495 OFFCURVE",
"641 441 OFFCURVE",
"706 385 CURVE"
);
}
);
};
layerId = "543F9737-16F7-428D-9F96-2EBD9FC8D3B6";
name = Light;
paths = (
{
closed = 1;
nodes = (
"187 0 LINE",
"207 111 LINE",
"192 122 LINE",
"220 38 OFFCURVE",
"290 -10 OFFCURVE",
"369 -10 CURVE SMOOTH",
"449 -10 OFFCURVE",
"522 39 OFFCURVE",
"534 109 CURVE SMOOTH",
"547 183 OFFCURVE",
"493 232 OFFCURVE",
"342 262 CURVE",
"577 513 LINE",
"562 525 LINE",
"304 248 LINE",
"479 215 OFFCURVE",
"520 166 OFFCURVE",
"510 109 CURVE SMOOTH",
"500 52 OFFCURVE",
"437 13 OFFCURVE",
"373 13 CURVE SMOOTH",
"296 13 OFFCURVE",
"235 61 OFFCURVE",
"196 149 CURVE",
"190 148 LINE",
"164 0 LINE"
);
},
{
closed = 1;
nodes = (
"208 532 OFFCURVE",
"132 466 OFFCURVE",
"112 353 CURVE SMOOTH",
"54 23 LINE",
"-59 23 LINE",
"-63 0 LINE",
"75 0 LINE",
"138 355 LINE SMOOTH",
"156 457 OFFCURVE",
"223 509 OFFCURVE",
"300 509 CURVE SMOOTH",
"363 509 OFFCURVE",
"422 478 OFFCURVE",
"478 414 CURVE",
"497 432 LINE",
"440 498 OFFCURVE",
"377 532 OFFCURVE",
"304 532 CURVE SMOOTH"
);
}
);
width = 608;
},
{
layerId = "EB38A4D2-CD30-49BA-8E45-1F04A566FFE8";
name = Bold;
paths = (
{
closed = 1;
nodes = (
"308 0 LINE",
"329 118 LINE",
"275 123 LINE",
"321 27 OFFCURVE",
"358 -10 OFFCURVE",
"438 -10 CURVE SMOOTH",
"526 -10 OFFCURVE",
"620 50 OFFCURVE",
"637 146 CURVE SMOOTH",
"653 237 OFFCURVE",
"594 296 OFFCURVE",
"541 345 CURVE",
"683 492 LINE",
"615 557 LINE",
"370 297 LINE",
"505 228 OFFCURVE",
"514 178 OFFCURVE",
"509 146 CURVE SMOOTH",
"503 111 OFFCURVE",
"470 84 OFFCURVE",
"431 84 CURVE SMOOTH",
"388 84 OFFCURVE",
"339 117 OFFCURVE",
"309 197 CURVE",
"232 192 LINE",
"198 0 LINE"
);
},
{
closed = 1;
nodes = (
"202 536 OFFCURVE",
"101 467 OFFCURVE",
"75 318 CURVE SMOOTH",
"36 96 LINE",
"-40 96 LINE",
"-57 0 LINE",
"140 0 LINE",
"196 320 LINE SMOOTH",
"211 402 OFFCURVE",
"261 434 OFFCURVE",
"324 434 CURVE SMOOTH",
"395 434 OFFCURVE",
"446 395 OFFCURVE",
"496 341 CURVE",
"574 414 LINE",
"496 496 OFFCURVE",
"424 536 OFFCURVE",
"338 536 CURVE SMOOTH"
);
}
);
width = 698;
}
);
leftKerningGroup = Germandbls;
rightKerningGroup = Germandbls;
unicode = 1E9E;
},
{
glyphname = T;
lastChange = "2015-11-11 18:40:05 +0000";
layers = (
{
anchors = (
{
name = bottom;
position = "{368, 0}";
},
{
name = center;
position = "{411, 245}";
},
{
name = top;
position = "{460, 520}";
}
);
layerId = "B29C398E-974A-40D0-A0A0-00935056D4B4";
name = "Light Extended";
paths = (
{
closed = 1;
nodes = (
"81 337 LINE",
"110 497 LINE",
"801 497 LINE",
"772 337 LINE",
"797 337 LINE",
"830 520 LINE",
"89 520 LINE",
"56 337 LINE"
);
},
{
closed = 1;
nodes = (
"572 0 LINE",
"576 23 LINE",
"167 23 LINE",
"163 0 LINE"
);
},
{
closed = 1;
nodes = (
"382 13 LINE",
"469 507 LINE",
"444 507 LINE",
"357 13 LINE"
);
}
);
width = 861;
},
{
anchors = (
{
name = bottom;
position = "{207, 0}";
},
{
name = center;
position = "{250, 245}";
},
{
name = top;
position = "{293, 490}";
}
);
layerId = "543F9737-16F7-428D-9F96-2EBD9FC8D3B6";
name = Light;
paths = (
{
closed = 1;
nodes = (
"55 384 LINE",
"75 497 LINE",
"524 497 LINE",
"504 384 LINE",
"529 384 LINE",
"553 520 LINE",
"54 520 LINE",
"30 384 LINE"
);
},
{
closed = 1;
nodes = (
"342 0 LINE",
"346 23 LINE",
"85 23 LINE",
"81 0 LINE"
);
},
{
closed = 1;
nodes = (
"226 13 LINE",
"313 507 LINE",
"288 507 LINE",
"201 13 LINE"
);
}
);
width = 549;
},
{
anchors = (
{
name = bottom;
position = "{228, 0}";
},
{
name = center;
position = "{271, 245}";
},
{
name = top;
position = "{321, 527}";
}
);
layerId = "EB38A4D2-CD30-49BA-8E45-1F04A566FFE8";
name = Bold;
paths = (
{
closed = 1;
nodes = (
"114 320 LINE",
"133 424 LINE",
"475 424 LINE",
"456 320 LINE",
"564 320 LINE",
"600 520 LINE",
"42 520 LINE",
"6 320 LINE"
);
},
{
closed = 1;
nodes = (
"373 0 LINE",
"390 96 LINE",
"101 96 LINE",
"84 0 LINE"
);
},
{
closed = 1;
nodes = (
"301 62 LINE",
"372 467 LINE",
"250 467 LINE",
"179 62 LINE"
);
}
);
width = 584;
}
);
leftKerningGroup = T;
rightKerningGroup = T;
unicode = 0054;
},
{
glyphname = U;
lastChange = "2015-11-11 18:40:05 +0000";
layers = (
{
anchors = (
{
name = bottom;
position = "{451, -10}";
},
{
name = ogonek;
position = "{460, -9}";
},
{
name = top;
position = "{539, 490}";
},
{
name = topright;
position = "{1030, 490}";
}
);
background = {
paths = (
{
closed = 1;
nodes = (
"850 160 LINE SMOOTH",
"850 133 OFFCURVE",
"842 108 OFFCURVE",
"825 85 CURVE SMOOTH",
"801 51 OFFCURVE",
"760 22 OFFCURVE",
"708 1 CURVE SMOOTH",
"657 -19 OFFCURVE",
"596 -31 OFFCURVE",
"533 -31 CURVE SMOOTH",
"455 -31 OFFCURVE",
"377 -10 OFFCURVE",
"320 25 CURVE SMOOTH",
"291 41 OFFCURVE",
"267 62 OFFCURVE",
"251 85 CURVE SMOOTH",
"235 108 OFFCURVE",
"227 133 OFFCURVE",
"226 160 CURVE",
"226 477 LINE",
"201 477 LINE",
"201 160 LINE SMOOTH",
"201 127 OFFCURVE",
"211 97 OFFCURVE",
"230 70 CURVE SMOOTH",
"258 31 OFFCURVE",
"303 -1 OFFCURVE",
"356 -22 CURVE SMOOTH",
"410 -44 OFFCURVE",
"471 -57 OFFCURVE",
"533 -57 CURVE SMOOTH",
"621 -57 OFFCURVE",
"705 -35 OFFCURVE",
"769 2 CURVE SMOOTH",
"801 21 OFFCURVE",
"828 43 OFFCURVE",
"846 70 CURVE SMOOTH",
"866 97 OFFCURVE",
"876 127 OFFCURVE",
"876 160 CURVE SMOOTH",
"876 477 LINE",
"850 477 LINE"
);
},
{
closed = 1;
nodes = (
"424 464 LINE",
"424 490 LINE",
"-11 490 LINE",
"-11 464 LINE"
);
},
{
closed = 1;
nodes = (
"1086 464 LINE",
"1086 490 LINE",
"651 490 LINE",
"651 464 LINE"
);
}
);
};
layerId = "B29C398E-974A-40D0-A0A0-00935056D4B4";
name = "Light Extended";
paths = (
{
closed = 1;
nodes = (
"644 -10 OFFCURVE",
"785 79 OFFCURVE",
"816 254 CURVE SMOOTH",
"860 507 LINE",
"838 507 LINE",
"789 242 LINE SMOOTH",
"760 89 OFFCURVE",
"629 13 OFFCURVE",
"455 13 CURVE",
"280 13 OFFCURVE",
"177 89 OFFCURVE",
"202 243 CURVE SMOOTH",
"245 507 LINE",
"223 507 LINE",
"179 254 LINE SMOOTH",
"148 79 OFFCURVE",
"258 -10 OFFCURVE",
"451 -10 CURVE"
);
},
{
closed = 1;
nodes = (
"426 497 LINE",
"430 520 LINE",
"44 520 LINE",
"40 497 LINE"
);
},
{
closed = 1;
nodes = (
"1041 497 LINE",
"1045 520 LINE",
"659 520 LINE",
"655 497 LINE"
);
}
);
width = 1031;
},
{
anchors = (
{
name = bottom;
position = "{272, -10}";
},
{
name = ogonek;
position = "{281, -9}";
},
{
name = top;
position = "{365, 490}";
},
{
name = topright;
position = "{681, 490}";
}
);
background = {
paths = (
{
closed = 1;
nodes = (
"533 242 LINE",
"533 265 LINE",
"137 265 LINE",
"137 242 LINE"
);
},
{
closed = 1;
nodes = (
"246 0 LINE",
"246 23 LINE",
"5 23 LINE",
"5 0 LINE"
);
},
{
closed = 1;
nodes = (
"142 13 LINE",
"142 509 LINE",
"118 509 LINE",
"118 13 LINE"
);
},
{
closed = 1;
nodes = (
"246 497 LINE",
"246 520 LINE",
"5 520 LINE",
"5 497 LINE"
);
},
{
closed = 1;
nodes = (
"664 0 LINE",
"664 23 LINE",
"423 23 LINE",
"423 0 LINE"
);
},
{
closed = 1;
nodes = (
"552 13 LINE",
"552 509 LINE",
"527 509 LINE",
"527 13 LINE"
);
},
{
closed = 1;
nodes = (
"664 497 LINE",
"664 520 LINE",
"423 520 LINE",
"423 497 LINE"
);
}
);
};
layerId = "543F9737-16F7-428D-9F96-2EBD9FC8D3B6";
name = Light;
paths = (
{
closed = 1;
nodes = (
"410 -10 OFFCURVE",
"506 79 OFFCURVE",
"526 194 CURVE SMOOTH",
"581 507 LINE",
"555 507 LINE",
"499 189 LINE SMOOTH",
"482 89 OFFCURVE",
"392 13 OFFCURVE",
"276 13 CURVE SMOOTH",
"159 13 OFFCURVE",
"97 89 OFFCURVE",
"115 190 CURVE SMOOTH",
"170 507 LINE",
"144 507 LINE",
"89 194 LINE SMOOTH",
"69 79 OFFCURVE",
"134 -10 OFFCURVE",
"272 -10 CURVE SMOOTH"
);
},
{
closed = 1;
nodes = (
"282 497 LINE",
"286 520 LINE",
"34 520 LINE",
"30 497 LINE"
);
},
{
closed = 1;
nodes = (
"693 497 LINE",
"697 520 LINE",
"445 520 LINE",
"441 497 LINE"
);
}
);
width = 673;
},
{
anchors = (
{
name = bottom;
position = "{273, -10}";
},
{
name = ogonek;
position = "{282, -9}";
},
{
name = top;
position = "{366, 520}";
},
{
name = topright;
position = "{680, 490}";
}
);
layerId = "EB38A4D2-CD30-49BA-8E45-1F04A566FFE8";
name = Bold;
paths = (
{
closed = 1;
nodes = (
"410 -10 OFFCURVE",
"533 79 OFFCURVE",
"555 206 CURVE SMOOTH",
"602 468 LINE",
"480 468 LINE",
"437 215 LINE SMOOTH",
"424 140 OFFCURVE",
"359 91 OFFCURVE",
"289 91 CURVE SMOOTH",
"218 91 OFFCURVE",
"175 139 OFFCURVE",
"188 213 CURVE SMOOTH",
"234 468 LINE",
"110 468 LINE",
"63 206 LINE SMOOTH",
"41 79 OFFCURVE",
"126 -10 OFFCURVE",
"271 -10 CURVE SMOOTH"
);
},
{
closed = 1;
nodes = (
"306 424 LINE",
"323 520 LINE",
"34 520 LINE",
"17 424 LINE"
);
},
{
closed = 1;
nodes = (
"678 424 LINE",
"695 520 LINE",
"409 520 LINE",
"392 424 LINE"
);
}
);
width = 671;
}
);
leftKerningGroup = U;
rightKerningGroup = U;
unicode = 0055;
},
{
color = 0;
glyphname = V;
lastChange = "2015-11-11 18:40:05 +0000";
layers = (
{
anchors = (
{
name = bottom;
position = "{409, -10}";
},
{
name = top;
position = "{497, 490}";
}
);
layerId = "B29C398E-974A-40D0-A0A0-00935056D4B4";
name = "Light Extended";
paths = (
{
closed = 1;
nodes = (
"29 520 LINE",
"25 497 LINE",
"362 497 LINE",
"366 520 LINE"
);
},
{
closed = 1;
nodes = (
"638 520 LINE",
"634 497 LINE",
"971 497 LINE",
"975 520 LINE"
);
},
{
closed = 1;
nodes = (
"411 -10 LINE",
"818 507 LINE",
"789 507 LINE",
"416 28 LINE",
"212 507 LINE",
"181 507 LINE",
"405 -10 LINE"
);
}
);
width = 946;
},
{
anchors = (
{
name = bottom;
position = "{260, 0}";
},
{
name = top;
position = "{346, 490}";
}
);
layerId = "543F9737-16F7-428D-9F96-2EBD9FC8D3B6";
name = Light;
paths = (
{
closed = 1;
nodes = (
"29 520 LINE",
"25 497 LINE",
"252 497 LINE",
"256 520 LINE"
);
},
{
closed = 1;
nodes = (
"438 520 LINE",
"434 497 LINE",
"671 497 LINE",
"675 520 LINE"
);
},
{
closed = 1;
nodes = (
"262 -10 LINE",
"578 507 LINE",
"549 507 LINE",
"268 40 LINE",
"150 507 LINE",
"121 507 LINE",
"254 -10 LINE"
);
}
);
width = 646;
},
{
anchors = (
{
name = bottom;
position = "{276, 0}";
},
{
name = top;
position = "{362, 490}";
}
);
layerId = "EB38A4D2-CD30-49BA-8E45-1F04A566FFE8";
name = Bold;
paths = (
{
closed = 1;
nodes = (
"29 520 LINE",
"12 424 LINE",
"288 424 LINE",
"305 520 LINE"
);
},
{
closed = 1;
nodes = (
"434 520 LINE",
"417 424 LINE",
"691 424 LINE",
"708 520 LINE"
);
},
{
closed = 1;
nodes = (
"306 -10 LINE",
"666 507 LINE",
"544 507 LINE",
"305 144 LINE",
"193 507 LINE",
"65 507 LINE",
"242 -10 LINE"
);
}
);
width = 679;
}
);
leftKerningGroup = V;
rightKerningGroup = V;
unicode = 0056;
},
{
color = 0;
glyphname = W;
lastChange = "2015-11-11 18:40:05 +0000";
layers = (
{
anchors = (
{
name = bottom;
position = "{570, 0}";
},
{
name = top;
position = "{662, 520}";
}
);
background = {
paths = (
{
closed = 1;
nodes = (
"762 477 LINE",
"454 13 LINE",
"186 477 LINE",
"157 477 LINE",
"451 -31 LINE",
"789 477 LINE"
);
},
{
closed = 1;
nodes = (
"0 490 LINE",
"0 468 LINE",
"323 468 LINE",
"323 490 LINE"
);
},
{
closed = 1;
nodes = (
"397 490 LINE",
"397 468 LINE",
"867 468 LINE",
"867 490 LINE"
);
},
{
closed = 1;
nodes = (
"1084 477 LINE",
"815 13 LINE",
"507 477 LINE",
"479 477 LINE",
"815 -31 LINE",
"1109 477 LINE"
);
},
{
closed = 1;
nodes = (
"943 490 LINE",
"943 468 LINE",
"1266 468 LINE",
"1266 490 LINE"
);
}
);
};
layerId = "B29C398E-974A-40D0-A0A0-00935056D4B4";
name = "Light Extended";
paths = (
{
closed = 1;
nodes = (
"390 -10 LINE",
"815 507 LINE",
"788 507 LINE",
"396 28 LINE",
"212 507 LINE",
"183 507 LINE",
"383 -10 LINE"
);
},
{
closed = 1;
nodes = (
"348 498 LINE",
"352 520 LINE",
"29 520 LINE",
"25 498 LINE"
);
},
{
closed = 1;
nodes = (
"753 -10 LINE",
"1135 507 LINE",
"1110 507 LINE",
"757 28 LINE",
"533 507 LINE",
"505 507 LINE",
"746 -10 LINE"
);
},
{
closed = 1;
nodes = (
"892 498 LINE",
"896 520 LINE",
"426 520 LINE",
"422 498 LINE"
);
},
{
closed = 1;
nodes = (
"1291 498 LINE",
"1295 520 LINE",
"972 520 LINE",
"968 498 LINE"
);
}
);
width = 1266;
},
{
anchors = (
{
name = bottom;
position = "{396, 0}";
},
{
name = top;
position = "{488, 520}";
}
);
background = {
anchors = (
{
name = top;
position = "{462, 520}";
}
);
};
layerId = "543F9737-16F7-428D-9F96-2EBD9FC8D3B6";
name = Light;
paths = (
{
closed = 1;
nodes = (
"242 -10 LINE",
"598 507 LINE",
"572 507 LINE",
"251 40 LINE",
"170 507 LINE",
"141 507 LINE",
"234 -10 LINE"
);
},
{
closed = 1;
nodes = (
"272 497 LINE",
"276 520 LINE",
"49 520 LINE",
"45 497 LINE"
);
},
{
closed = 1;
nodes = (
"547 -10 LINE",
"823 507 LINE",
"796 507 LINE",
"551 40 LINE",
"395 507 LINE",
"366 507 LINE",
"539 -10 LINE"
);
},
{
closed = 1;
nodes = (
"656 497 LINE",
"660 520 LINE",
"304 520 LINE",
"300 497 LINE"
);
},
{
closed = 1;
nodes = (
"916 497 LINE",
"920 520 LINE",
"683 520 LINE",
"679 497 LINE"
);
}
);
width = 911;
},
{
anchors = (
{
name = bottom;
position = "{372, 0}";
},
{
name = top;
position = "{464, 520}";
}
);
layerId = "EB38A4D2-CD30-49BA-8E45-1F04A566FFE8";
name = Bold;
paths = (
{
closed = 1;
nodes = (
"252 -10 LINE",
"582 507 LINE",
"468 507 LINE",
"258 149 LINE",
"180 507 LINE",
"48 507 LINE",
"187 -10 LINE"
);
},
{
closed = 1;
nodes = (
"265 424 LINE",
"282 520 LINE",
"31 520 LINE",
"14 424 LINE"
);
},
{
closed = 1;
nodes = (
"554 -10 LINE",
"901 507 LINE",
"787 507 LINE",
"560 149 LINE",
"492 432 LINE",
"412 294 LINE",
"490 -10 LINE"
);
},
{
closed = 1;
nodes = (
"583 424 LINE",
"600 520 LINE",
"353 520 LINE",
"336 424 LINE"
);
},
{
closed = 1;
nodes = (
"907 424 LINE",
"924 520 LINE",
"650 520 LINE",
"633 424 LINE"
);
}
);
width = 896;
}
);
leftKerningGroup = W;
rightKerningGroup = W;
unicode = 0057;
},
{
color = 0;
glyphname = X;
lastChange = "2015-11-11 18:40:05 +0000";
layers = (
{
anchors = (
{
name = bottom;
position = "{397, 0}";
},
{
name = top;
position = "{483, 490}";
}
);
layerId = "B29C398E-974A-40D0-A0A0-00935056D4B4";
name = "Light Extended";
paths = (
{
closed = 1;
nodes = (
"827 0 LINE",
"831 23 LINE",
"495 23 LINE",
"491 0 LINE"
);
},
{
closed = 1;
nodes = (
"303 0 LINE",
"307 23 LINE",
"-29 23 LINE",
"-33 0 LINE"
);
},
{
closed = 1;
nodes = (
"683 12 LINE",
"454 261 LINE",
"451 261 LINE",
"225 507 LINE",
"188 507 LINE",
"429 246 LINE",
"432 246 LINE",
"646 12 LINE"
);
},
{
closed = 1;
nodes = (
"152 12 LINE",
"448 246 LINE",
"451 246 LINE",
"784 507 LINE",
"749 507 LINE",
"437 261 LINE",
"434 261 LINE",
"117 12 LINE"
);
},
{
closed = 1;
nodes = (
"392 497 LINE",
"396 520 LINE SMOOTH",
"59 520 LINE",
"55 497 LINE"
);
},
{
closed = 1;
nodes = (
"915 497 LINE",
"919 520 LINE",
"582 520 LINE SMOOTH",
"578 497 LINE"
);
}
);
width = 920;
},
{
anchors = (
{
name = bottom;
position = "{242, 0}";
},
{
name = top;
position = "{328, 490}";
}
);
background = {
anchors = (
{
name = bottom;
position = "{310, 0}";
},
{
name = top;
position = "{310, 490}";
}
);
paths = (
{
closed = 1;
nodes = (
"509 12 LINE",
"119 507 LINE",
"82 507 LINE",
"472 12 LINE"
);
},
{
closed = 1;
nodes = (
"236 0 LINE",
"236 23 LINE",
"0 23 LINE",
"0 0 LINE"
);
},
{
closed = 1;
nodes = (
"605 0 LINE",
"605 23 LINE",
"369 23 LINE",
"369 0 LINE"
);
},
{
closed = 1;
nodes = (
"133 12 LINE",
"310 240 LINE",
"314 240 LINE",
"523 507 LINE",
"488 507 LINE",
"299 263 LINE",
"295 263 LINE",
"98 12 LINE"
);
},
{
closed = 1;
nodes = (
"237 497 LINE",
"237 520 LINE SMOOTH",
"0 520 LINE",
"0 497 LINE"
);
},
{
closed = 1;
nodes = (
"605 497 LINE",
"605 520 LINE",
"368 520 LINE SMOOTH",
"368 497 LINE"
);
}
);
};
layerId = "543F9737-16F7-428D-9F96-2EBD9FC8D3B6";
name = Light;
paths = (
{
closed = 1;
nodes = (
"542 0 LINE",
"546 23 LINE",
"310 23 LINE",
"306 0 LINE"
);
},
{
closed = 1;
nodes = (
"173 0 LINE",
"177 23 LINE",
"-59 23 LINE",
"-63 0 LINE"
);
},
{
closed = 1;
nodes = (
"448 12 LINE",
"297 263 LINE",
"293 263 LINE",
"145 507 LINE",
"108 507 LINE",
"270 240 LINE",
"274 240 LINE",
"411 12 LINE"
);
},
{
closed = 1;
nodes = (
"72 12 LINE",
"291 239 LINE",
"296 245 LINE",
"549 507 LINE",
"514 507 LINE",
"280 264 LINE",
"275 258 LINE",
"37 12 LINE"
);
},
{
closed = 1;
nodes = (
"262 497 LINE",
"266 520 LINE SMOOTH",
"29 520 LINE",
"25 497 LINE"
);
},
{
closed = 1;
nodes = (
"630 497 LINE",
"634 520 LINE",
"397 520 LINE SMOOTH",
"393 497 LINE"
);
}
);
width = 605;
},
{
anchors = (
{
name = bottom;
position = "{254, 0}";
},
{
name = top;
position = "{340, 490}";
}
);
layerId = "EB38A4D2-CD30-49BA-8E45-1F04A566FFE8";
name = Bold;
paths = (
{
closed = 1;
nodes = (
"561 0 LINE",
"578 96 LINE",
"309 96 LINE",
"292 0 LINE"
);
},
{
closed = 1;
nodes = (
"218 0 LINE",
"235 96 LINE",
"-34 96 LINE",
"-51 0 LINE"
);
},
{
closed = 1;
nodes = (
"546 79 LINE",
"362 292 LINE",
"349 292 LINE",
"226 442 LINE",
"59 442 LINE",
"247 225 LINE",
"261 225 LINE",
"379 79 LINE"
);
},
{
closed = 1;
nodes = (
"140 79 LINE",
"319 233 LINE",
"337 232 LINE",
"592 442 LINE",
"452 442 LINE",
"286 299 LINE",
"267 301 LINE",
"-1 79 LINE"
);
},
{
closed = 1;
nodes = (
"294 424 LINE",
"311 520 LINE SMOOTH",
"41 520 LINE",
"24 424 LINE"
);
},
{
closed = 1;
nodes = (
"636 424 LINE",
"653 520 LINE",
"383 520 LINE SMOOTH",
"366 424 LINE"
);
}
);
width = 636;
}
);
leftKerningGroup = X;
rightKerningGroup = X;
unicode = 0058;
},
{
color = 0;
glyphname = Y;
lastChange = "2015-11-11 18:40:05 +0000";
layers = (
{
anchors = (
{
name = bottom;
position = "{396, 0}";
},
{
name = top;
position = "{482, 490}";
}
);
background = {
paths = (
{
closed = 1;
nodes = (
"320 18 LINE",
"115 18 LINE",
"115 0 LINE",
"338 0 LINE",
"338 106 LINE",
"320 106 LINE"
);
},
{
closed = 1;
nodes = (
"546 0 LINE",
"546 18 LINE",
"328 18 LINE",
"328 0 LINE"
);
},
{
closed = 1;
nodes = (
"515 350 LINE",
"322 112 LINE",
"336 100 LINE",
"523 332 LINE",
"694 332 LINE",
"694 350 LINE"
);
},
{
closed = 1;
nodes = (
"144 350 LINE",
"-36 350 LINE",
"-36 332 LINE",
"135 332 LINE",
"323 100 LINE",
"337 112 LINE"
);
}
);
};
layerId = "B29C398E-974A-40D0-A0A0-00935056D4B4";
name = "Light Extended";
paths = (
{
closed = 1;
nodes = (
"436 178 LINE",
"790 508 LINE",
"757 508 LINE",
"433 206 LINE",
"219 505 LINE",
"183 505 LINE",
"418 178 LINE"
);
},
{
closed = 1;
nodes = (
"591 0 LINE",
"595 23 LINE",
"206 23 LINE",
"202 0 LINE"
);
},
{
closed = 1;
nodes = (
"409 0 LINE",
"445 204 LINE",
"420 204 LINE",
"384 0 LINE"
);
},
{
closed = 1;
nodes = (
"366 497 LINE",
"370 520 LINE",
"33 520 LINE",
"29 497 LINE"
);
},
{
closed = 1;
nodes = (
"939 497 LINE",
"943 520 LINE",
"607 520 LINE",
"603 497 LINE"
);
}
);
width = 918;
},
{
anchors = (
{
name = bottom;
position = "{246, 0}";
},
{
name = top;
position = "{332, 490}";
}
);
layerId = "543F9737-16F7-428D-9F96-2EBD9FC8D3B6";
name = Light;
paths = (
{
closed = 1;
nodes = (
"287 178 LINE",
"557 510 LINE",
"529 510 LINE",
"285 207 LINE",
"144 511 LINE",
"115 511 LINE",
"269 178 LINE"
);
},
{
closed = 1;
nodes = (
"378 0 LINE",
"382 23 LINE",
"121 23 LINE",
"117 0 LINE"
);
},
{
closed = 1;
nodes = (
"260 0 LINE",
"296 204 LINE",
"271 204 LINE",
"235 0 LINE"
);
},
{
closed = 1;
nodes = (
"257 497 LINE",
"261 520 LINE",
"34 520 LINE",
"30 497 LINE"
);
},
{
closed = 1;
nodes = (
"640 497 LINE",
"644 520 LINE",
"418 520 LINE",
"414 497 LINE"
);
}
);
width = 620;
},
{
anchors = (
{
name = bottom;
position = "{250, 0}";
},
{
name = top;
position = "{342, 520}";
}
);
layerId = "EB38A4D2-CD30-49BA-8E45-1F04A566FFE8";
name = Bold;
paths = (
{
closed = 1;
nodes = (
"310 174 LINE",
"586 449 LINE",
"451 449 LINE",
"307 290 LINE",
"208 450 LINE",
"63 450 LINE",
"248 174 LINE"
);
},
{
closed = 1;
nodes = (
"397 0 LINE",
"414 96 LINE",
"118 96 LINE",
"101 0 LINE"
);
},
{
closed = 1;
nodes = (
"320 50 LINE",
"355 250 LINE",
"231 250 LINE",
"196 50 LINE"
);
},
{
closed = 1;
nodes = (
"261 424 LINE",
"278 520 LINE",
"39 520 LINE",
"22 424 LINE"
);
},
{
closed = 1;
nodes = (
"625 424 LINE",
"642 520 LINE",
"403 520 LINE",
"386 424 LINE"
);
}
);
width = 623;
}
);
leftKerningGroup = Y;
rightKerningGroup = Y;
unicode = 0059;
},
{
glyphname = Z;
lastChange = "2015-11-11 18:40:05 +0000";
layers = (
{
anchors = (
{
name = bottom;
position = "{361, 0}";
},
{
name = top;
position = "{453, 520}";
}
);
layerId = "B29C398E-974A-40D0-A0A0-00935056D4B4";
name = "Light Extended";
paths = (
{
closed = 1;
nodes = (
"690 0 LINE",
"722 183 LINE",
"697 183 LINE",
"669 23 LINE",
"108 23 LINE",
"78 20 LINE",
"78 21 LINE",
"110 32 LINE",
"775 507 LINE",
"778 520 LINE",
"124 520 LINE",
"91 337 LINE",
"116 337 LINE",
"145 497 LINE",
"705 497 LINE",
"735 500 LINE",
"735 499 LINE",
"703 488 LINE",
"37 13 LINE",
"35 0 LINE"
);
}
);
width = 843;
},
{
anchors = (
{
name = bottom;
position = "{209, 0}";
},
{
name = top;
position = "{301, 520}";
}
);
layerId = "543F9737-16F7-428D-9F96-2EBD9FC8D3B6";
name = Light;
paths = (
{
closed = 1;
nodes = (
"425 0 LINE",
"449 136 LINE",
"424 136 LINE",
"404 23 LINE",
"33 23 LINE",
"13 20 LINE",
"13 21 LINE",
"35 32 LINE",
"510 507 LINE",
"513 520 LINE",
"69 520 LINE",
"45 384 LINE",
"70 384 LINE",
"90 497 LINE",
"460 497 LINE",
"480 500 LINE",
"480 499 LINE",
"458 488 LINE",
"-18 13 LINE",
"-20 0 LINE"
);
}
);
width = 518;
},
{
anchors = (
{
name = bottom;
position = "{253, 0}";
},
{
name = top;
position = "{345, 520}";
}
);
layerId = "EB38A4D2-CD30-49BA-8E45-1F04A566FFE8";
name = Bold;
paths = (
{
closed = 1;
nodes = (
"483 0 LINE",
"518 200 LINE",
"410 200 LINE",
"392 96 LINE",
"82 96 LINE",
"33 31 LINE",
"37 21 LINE",
"96 32 LINE",
"556 434 LINE",
"571 520 LINE",
"81 520 LINE",
"45 320 LINE",
"153 320 LINE",
"172 424 LINE",
"481 424 LINE",
"530 493 LINE",
"526 499 LINE",
"467 488 LINE",
"7 86 LINE",
"-8 0 LINE"
);
}
);
width = 595;
}
);
leftKerningGroup = Z;
rightKerningGroup = Z;
unicode = 005A;
},
{
glyphname = a;
lastChange = "2015-11-11 18:40:05 +0000";
layers = (
{
anchors = (
{
name = bottom;
position = "{212, -10}";
},
{
name = ogonek;
position = "{722, 19}";
},
{
name = top;
position = "{376, 367}";
}
);
background = {
paths = (
{
closed = 1;
nodes = (
"637 98 LINE",
"637 32 OFFCURVE",
"684 -16 OFFCURVE",
"747 -16 CURVE SMOOTH",
"837 -16 OFFCURVE",
"865 63 OFFCURVE",
"865 116 CURVE",
"840 116 LINE",
"840 60 OFFCURVE",
"813 8 OFFCURVE",
"749 8 CURVE SMOOTH",
"703 8 OFFCURVE",
"661 43 OFFCURVE",
"661 98 CURVE",
"661 207 LINE",
"661 307 OFFCURVE",
"604 377 OFFCURVE",
"460 377 CURVE",
"347 377 OFFCURVE",
"234 364 OFFCURVE",
"109 336 CURVE",
"109 310 LINE",
"235 339 OFFCURVE",
"347 353 OFFCURVE",
"460 353 CURVE",
"591 353 OFFCURVE",
"637 291 OFFCURVE",
"637 207 CURVE"
);
},
{
closed = 1;
nodes = (
"80 15 OFFCURVE",
"154 -20 OFFCURVE",
"254 -20 CURVE",
"383 -20 OFFCURVE",
"525 22 OFFCURVE",
"647 77 CURVE",
"647 100 LINE",
"520 46 OFFCURVE",
"381 4 OFFCURVE",
"254 4 CURVE",
"169 4 OFFCURVE",
"105 32 OFFCURVE",
"105 99 CURVE",
"105 167 OFFCURVE",
"196 205 OFFCURVE",
"312 205 CURVE",
"417 205 OFFCURVE",
"538 185 OFFCURVE",
"647 157 CURVE",
"647 181 LINE",
"538 207 OFFCURVE",
"432 229 OFFCURVE",
"312 229 CURVE",
"182 229 OFFCURVE",
"80 185 OFFCURVE",
"80 99 CURVE"
);
}
);
};
layerId = "B29C398E-974A-40D0-A0A0-00935056D4B4";
name = "Light Extended";
paths = (
{
closed = 1;
nodes = (
"90 287 LINE",
"197 319 OFFCURVE",
"299 344 OFFCURVE",
"402 344 CURVE SMOOTH",
"547 344 OFFCURVE",
"599 281 OFFCURVE",
"584 197 CURVE SMOOTH",
"565 93 LINE SMOOTH",
"554 28 OFFCURVE",
"584 -10 OFFCURVE",
"635 -10 CURVE SMOOTH",
"666 -10 OFFCURVE",
"695 2 OFFCURVE",
"722 19 CURVE",
"716 39 LINE",
"690 22 OFFCURVE",
"667 13 OFFCURVE",
"640 13 CURVE SMOOTH",
"607 13 OFFCURVE",
"581 38 OFFCURVE",
"590 93 CURVE SMOOTH",
"609 197 LINE SMOOTH",
"626 297 OFFCURVE",
"564 367 OFFCURVE",
"406 367 CURVE SMOOTH",
"307 367 OFFCURVE",
"201 346 OFFCURVE",
"86 310 CURVE"
);
},
{
closed = 1;
nodes = (
"322 -10 OFFCURVE",
"455 20 OFFCURVE",
"573 76 CURVE",
"577 98 LINE",
"454 44 OFFCURVE",
"324 13 OFFCURVE",
"216 13 CURVE SMOOTH",
"123 13 OFFCURVE",
"48 33 OFFCURVE",
"59 96 CURVE",
"71 162 OFFCURVE",
"166 183 OFFCURVE",
"290 183 CURVE SMOOTH",
"393 183 OFFCURVE",
"503 168 OFFCURVE",
"587 153 CURVE",
"591 176 LINE",
"507 191 OFFCURVE",
"399 206 OFFCURVE",
"278 206 CURVE SMOOTH",
"156 206 OFFCURVE",
"48 178 OFFCURVE",
"34 96 CURVE",
"20 16 OFFCURVE",
"91 -10 OFFCURVE",
"212 -10 CURVE SMOOTH"
);
}
);
width = 797;
},
{
anchors = (
{
name = bottom;
position = "{110, -10}";
},
{
name = ogonek;
position = "{365, 7}";
},
{
name = top;
position = "{228, 377}";
}
);
background = {
paths = (
{
closed = 1;
nodes = (
"205 -11 OFFCURVE",
"268 18 OFFCURVE",
"313 61 CURVE",
"315 126 LINE",
"265 87 OFFCURVE",
"207 70 OFFCURVE",
"175 70 CURVE SMOOTH",
"145 70 OFFCURVE",
"126 79 OFFCURVE",
"126 105 CURVE SMOOTH",
"126 140 OFFCURVE",
"167 147 OFFCURVE",
"204 147 CURVE SMOOTH",
"235 147 OFFCURVE",
"268 143 OFFCURVE",
"315 131 CURVE",
"315 193 LINE",
"271 209 OFFCURVE",
"228 218 OFFCURVE",
"177 218 CURVE SMOOTH",
"98 218 OFFCURVE",
"17 180 OFFCURVE",
"17 101 CURVE SMOOTH",
"17 23 OFFCURVE",
"82 -11 OFFCURVE",
"146 -11 CURVE SMOOTH"
);
},
{
closed = 1;
nodes = (
"59 248 LINE",
"111 270 OFFCURVE",
"161 283 OFFCURVE",
"206 283 CURVE SMOOTH",
"253 283 OFFCURVE",
"294 266 OFFCURVE",
"294 225 CURVE SMOOTH",
"294 90 LINE SMOOTH",
"294 27 OFFCURVE",
"334 -6 OFFCURVE",
"386 -6 CURVE SMOOTH",
"404 -6 OFFCURVE",
"420 -3 OFFCURVE",
"435 1 CURVE",
"435 82 LINE",
"428 79 OFFCURVE",
"423 78 OFFCURVE",
"416 78 CURVE SMOOTH",
"404 78 OFFCURVE",
"392 84 OFFCURVE",
"392 110 CURVE SMOOTH",
"392 221 LINE SMOOTH",
"392 310 OFFCURVE",
"334 366 OFFCURVE",
"225 366 CURVE SMOOTH",
"158 366 OFFCURVE",
"101 351 OFFCURVE",
"37 323 CURVE"
);
}
);
};
layerId = "543F9737-16F7-428D-9F96-2EBD9FC8D3B6";
name = Light;
paths = (
{
closed = 1;
nodes = (
"63 306 LINE",
"113 327 OFFCURVE",
"164 343 OFFCURVE",
"222 343 CURVE SMOOTH",
"279 343 OFFCURVE",
"324 317 OFFCURVE",
"309 233 CURVE SMOOTH",
"281 73 LINE SMOOTH",
"272 23 OFFCURVE",
"286 -5 OFFCURVE",
"323 -5 CURVE SMOOTH",
"340 -5 OFFCURVE",
"355 1 OFFCURVE",
"365 7 CURVE",
"361 28 LINE",
"352 23 OFFCURVE",
"341 18 OFFCURVE",
"329 18 CURVE SMOOTH",
"306 18 OFFCURVE",
"299 37 OFFCURVE",
"305 73 CURVE SMOOTH",
"333 233 LINE SMOOTH",
"351 333 OFFCURVE",
"296 367 OFFCURVE",
"226 367 CURVE SMOOTH",
"168 367 OFFCURVE",
"111 350 OFFCURVE",
"60 329 CURVE"
);
},
{
closed = 1;
nodes = (
"164 -10 OFFCURVE",
"232 25 OFFCURVE",
"295 67 CURVE",
"299 90 LINE",
"236 46 OFFCURVE",
"171 13 OFFCURVE",
"114 13 CURVE SMOOTH",
"59 13 OFFCURVE",
"15 43 OFFCURVE",
"25 100 CURVE SMOOTH",
"35 161 OFFCURVE",
"101 191 OFFCURVE",
"165 190 CURVE SMOOTH",
"215 189 OFFCURVE",
"260 180 OFFCURVE",
"311 160 CURVE",
"315 183 LINE",
"267 201 OFFCURVE",
"225 213 OFFCURVE",
"169 213 CURVE SMOOTH",
"82 213 OFFCURVE",
"12 168 OFFCURVE",
"0 100 CURVE SMOOTH",
"-13 29 OFFCURVE",
"41 -10 OFFCURVE",
"110 -10 CURVE SMOOTH"
);
}
);
width = 452;
},
{
anchors = (
{
name = bottom;
position = "{98, -10}";
},
{
name = ogonek;
position = "{404, 10}";
},
{
name = top;
position = "{236, 365}";
}
);
layerId = "EB38A4D2-CD30-49BA-8E45-1F04A566FFE8";
name = Bold;
paths = (
{
closed = 1;
nodes = (
"56 235 LINE",
"114 257 OFFCURVE",
"161 270 OFFCURVE",
"203 270 CURVE SMOOTH",
"248 270 OFFCURVE",
"283 255 OFFCURVE",
"277 223 CURVE SMOOTH",
"256 100 LINE SMOOTH",
"244 31 OFFCURVE",
"281 -6 OFFCURVE",
"332 -6 CURVE SMOOTH",
"365 -6 OFFCURVE",
"394 3 OFFCURVE",
"409 11 CURVE",
"400 92 LINE",
"396 90 OFFCURVE",
"390 88 OFFCURVE",
"382 88 CURVE SMOOTH",
"372 88 OFFCURVE",
"364 94 OFFCURVE",
"367 111 CURVE SMOOTH",
"385 218 LINE SMOOTH",
"401 305 OFFCURVE",
"355 366 OFFCURVE",
"237 366 CURVE SMOOTH",
"171 366 OFFCURVE",
"120 351 OFFCURVE",
"47 322 CURVE"
);
},
{
closed = 1;
nodes = (
"154 -11 OFFCURVE",
"213 16 OFFCURVE",
"264 60 CURVE",
"279 134 LINE",
"228 99 OFFCURVE",
"182 83 OFFCURVE",
"149 83 CURVE SMOOTH",
"125 83 OFFCURVE",
"114 93 OFFCURVE",
"117 106 CURVE SMOOTH",
"121 128 OFFCURVE",
"146 137 OFFCURVE",
"171 137 CURVE SMOOTH",
"204 138 OFFCURVE",
"236 135 OFFCURVE",
"277 125 CURVE",
"289 195 LINE",
"250 208 OFFCURVE",
"205 219 OFFCURVE",
"156 219 CURVE SMOOTH",
"84 219 OFFCURVE",
"2 179 OFFCURVE",
"-12 101 CURVE SMOOTH",
"-26 25 OFFCURVE",
"31 -11 OFFCURVE",
"97 -11 CURVE SMOOTH"
);
}
);
width = 483;
}
);
leftKerningGroup = a;
rightKerningGroup = n;
unicode = 0061;
},
{
glyphname = a.alt;
lastChange = "2015-11-11 18:40:05 +0000";
layers = (
{
anchors = (
{
name = bottom;
position = "{379, -10}";
},
{
name = ogonek;
position = "{670, -13}";
},
{
name = top;
position = "{446, 367}";
}
);
layerId = "B29C398E-974A-40D0-A0A0-00935056D4B4";
name = "Light Extended";
paths = (
{
closed = 1;
nodes = (
"709 -5 OFFCURVE",
"743 54 OFFCURVE",
"751 103 CURVE SMOOTH",
"754 117 LINE",
"729 117 LINE",
"726 103 LINE SMOOTH",
"718 54 OFFCURVE",
"690 18 OFFCURVE",
"648 18 CURVE SMOOTH",
"602 18 OFFCURVE",
"589 54 OFFCURVE",
"599 113 CURVE",
"614 197 LINE SMOOTH",
"631 297 OFFCURVE",
"569 367 OFFCURVE",
"411 367 CURVE SMOOTH",
"312 367 OFFCURVE",
"206 346 OFFCURVE",
"91 310 CURVE",
"95 287 LINE",
"202 319 OFFCURVE",
"304 344 OFFCURVE",
"407 344 CURVE SMOOTH",
"552 344 OFFCURVE",
"604 281 OFFCURVE",
"589 197 CURVE SMOOTH",
"574 113 LINE",
"562 44 OFFCURVE",
"579 -5 OFFCURVE",
"642 -5 CURVE SMOOTH"
);
},
{
closed = 1;
nodes = (
"327 -10 OFFCURVE",
"460 20 OFFCURVE",
"578 76 CURVE",
"582 98 LINE",
"459 44 OFFCURVE",
"329 13 OFFCURVE",
"221 13 CURVE SMOOTH",
"128 13 OFFCURVE",
"53 33 OFFCURVE",
"64 96 CURVE",
"76 162 OFFCURVE",
"171 183 OFFCURVE",
"295 183 CURVE SMOOTH",
"398 183 OFFCURVE",
"508 168 OFFCURVE",
"592 153 CURVE",
"596 176 LINE",
"512 191 OFFCURVE",
"404 206 OFFCURVE",
"283 206 CURVE SMOOTH",
"161 206 OFFCURVE",
"53 178 OFFCURVE",
"39 96 CURVE",
"25 16 OFFCURVE",
"96 -10 OFFCURVE",
"217 -10 CURVE SMOOTH"
);
}
);
width = 811;
},
{
anchors = (
{
name = bottom;
position = "{105, -10}";
},
{
name = ogonek;
position = "{346, -13}";
},
{
name = top;
position = "{214, 377}";
}
);
background = {
paths = (
{
closed = 1;
nodes = (
"452 -5 OFFCURVE",
"481 28 OFFCURVE",
"481 70 CURVE SMOOTH",
"481 89 LINE",
"458 89 LINE",
"458 70 LINE SMOOTH",
"458 39 OFFCURVE",
"444 19 OFFCURVE",
"412 19 CURVE SMOOTH",
"383 19 OFFCURVE",
"364 37 OFFCURVE",
"364 70 CURVE SMOOTH",
"364 256 LINE",
"364 321 OFFCURVE",
"320 377 OFFCURVE",
"225 377 CURVE",
"182 377 OFFCURVE",
"128 369 OFFCURVE",
"59 350 CURVE",
"59 326 LINE",
"128 346 OFFCURVE",
"182 353 OFFCURVE",
"225 353 CURVE",
"307 353 OFFCURVE",
"340 305 OFFCURVE",
"340 256 CURVE",
"340 70 LINE SMOOTH",
"340 26 OFFCURVE",
"367 -5 OFFCURVE",
"411 -5 CURVE SMOOTH"
);
},
{
closed = 1;
nodes = (
"222 -10 OFFCURVE",
"283 9 OFFCURVE",
"350 77 CURVE",
"350 96 LINE",
"283 35 OFFCURVE",
"220 14 OFFCURVE",
"171 14 CURVE SMOOTH",
"131 14 OFFCURVE",
"69 39 OFFCURVE",
"69 107 CURVE SMOOTH",
"69 168 OFFCURVE",
"129 201 OFFCURVE",
"187 201 CURVE SMOOTH",
"229 201 OFFCURVE",
"283 197 OFFCURVE",
"350 175 CURVE",
"350 194 LINE",
"287 214 OFFCURVE",
"244 225 OFFCURVE",
"187 225 CURVE SMOOTH",
"122 225 OFFCURVE",
"45 185 OFFCURVE",
"45 107 CURVE SMOOTH",
"45 22 OFFCURVE",
"116 -10 OFFCURVE",
"171 -10 CURVE SMOOTH"
);
}
);
};
layerId = "543F9737-16F7-428D-9F96-2EBD9FC8D3B6";
name = Light;
paths = (
{
closed = 1;
nodes = (
"370 -5 OFFCURVE",
"401 26 OFFCURVE",
"408 68 CURVE SMOOTH",
"411 87 LINE",
"388 87 LINE",
"385 68 LINE SMOOTH",
"380 39 OFFCURVE",
"362 18 OFFCURVE",
"336 18 CURVE SMOOTH",
"311 18 OFFCURVE",
"299 37 OFFCURVE",
"304 70 CURVE SMOOTH",
"333 233 LINE SMOOTH",
"351 333 OFFCURVE",
"296 367 OFFCURVE",
"226 367 CURVE SMOOTH",
"168 367 OFFCURVE",
"111 350 OFFCURVE",
"60 329 CURVE",
"63 306 LINE",
"113 327 OFFCURVE",
"164 343 OFFCURVE",
"222 343 CURVE SMOOTH",
"279 343 OFFCURVE",
"324 317 OFFCURVE",
"309 233 CURVE SMOOTH",
"280 70 LINE SMOOTH",
"273 26 OFFCURVE",
"293 -5 OFFCURVE",
"332 -5 CURVE SMOOTH"
);
},
{
closed = 1;
nodes = (
"164 -10 OFFCURVE",
"232 25 OFFCURVE",
"295 67 CURVE",
"299 90 LINE",
"236 46 OFFCURVE",
"171 13 OFFCURVE",
"114 13 CURVE SMOOTH",
"59 13 OFFCURVE",
"15 43 OFFCURVE",
"25 100 CURVE SMOOTH",
"35 161 OFFCURVE",
"101 191 OFFCURVE",
"165 190 CURVE SMOOTH",
"215 189 OFFCURVE",
"260 180 OFFCURVE",
"311 160 CURVE",
"315 183 LINE",
"267 201 OFFCURVE",
"225 213 OFFCURVE",
"169 213 CURVE SMOOTH",
"82 213 OFFCURVE",
"12 168 OFFCURVE",
"0 100 CURVE SMOOTH",
"-13 29 OFFCURVE",
"41 -10 OFFCURVE",
"110 -10 CURVE SMOOTH"
);
}
);
width = 464;
},
{
anchors = (
{
name = bottom;
position = "{97, -11}";
},
{
name = ogonek;
position = "{392, 9}";
},
{
name = top;
position = "{222, 365}";
}
);
layerId = "EB38A4D2-CD30-49BA-8E45-1F04A566FFE8";
name = Bold;
paths = (
{
closed = 1;
nodes = (
"389 -6 OFFCURVE",
"438 27 OFFCURVE",
"449 90 CURVE SMOOTH",
"458 143 LINE",
"401 143 LINE",
"392 89 LINE SMOOTH",
"390 78 OFFCURVE",
"385 68 OFFCURVE",
"373 68 CURVE SMOOTH",
"362 68 OFFCURVE",
"361 79 OFFCURVE",
"363 88 CURVE SMOOTH",
"385 218 LINE SMOOTH",
"401 305 OFFCURVE",
"355 366 OFFCURVE",
"237 366 CURVE SMOOTH",
"171 366 OFFCURVE",
"120 351 OFFCURVE",
"47 322 CURVE",
"56 235 LINE",
"114 257 OFFCURVE",
"161 270 OFFCURVE",
"203 270 CURVE SMOOTH",
"248 270 OFFCURVE",
"283 255 OFFCURVE",
"277 223 CURVE SMOOTH",
"254 90 LINE SMOOTH",
"244 32 OFFCURVE",
"274 -6 OFFCURVE",
"336 -6 CURVE SMOOTH"
);
},
{
closed = 1;
nodes = (
"154 -11 OFFCURVE",
"213 16 OFFCURVE",
"264 60 CURVE",
"279 134 LINE",
"228 99 OFFCURVE",
"182 83 OFFCURVE",
"149 83 CURVE SMOOTH",
"125 83 OFFCURVE",
"114 93 OFFCURVE",
"117 106 CURVE SMOOTH",
"121 128 OFFCURVE",
"146 137 OFFCURVE",
"171 137 CURVE SMOOTH",
"204 138 OFFCURVE",
"236 135 OFFCURVE",
"277 125 CURVE",
"289 195 LINE",
"250 208 OFFCURVE",
"205 219 OFFCURVE",
"156 219 CURVE SMOOTH",
"84 219 OFFCURVE",
"2 179 OFFCURVE",
"-12 101 CURVE SMOOTH",
"-26 25 OFFCURVE",
"31 -11 OFFCURVE",
"97 -11 CURVE SMOOTH"
);
}
);
width = 488;
}
);
leftKerningGroup = a.alt;
rightKerningGroup = a.alt;
},
{
glyphname = a.alt2;
lastChange = "2015-11-11 18:40:05 +0000";
layers = (
{
anchors = (
{
name = bottom;
position = "{358, -20}";
},
{
name = ogonek;
position = "{731, -2}";
},
{
name = top;
position = "{428, 377}";
}
);
background = {
paths = (
{
closed = 1;
nodes = (
"795 -20 OFFCURVE",
"818 -8 OFFCURVE",
"842 9 CURVE",
"833 29 LINE",
"809 12 OFFCURVE",
"791 3 OFFCURVE",
"765 3 CURVE SMOOTH",
"732 3 OFFCURVE",
"697 28 OFFCURVE",
"697 84 CURVE",
"697 207 LINE",
"672 207 LINE",
"672 84 LINE",
"672 18 OFFCURVE",
"713 -20 OFFCURVE",
"763 -20 CURVE SMOOTH"
);
},
{
closed = 1;
nodes = (
"697 181 LINE",
"697 357 LINE",
"672 357 LINE",
"672 181 LINE"
);
},
{
closed = 1;
nodes = (
"616 334 OFFCURVE",
"512 376 OFFCURVE",
"382 375 CURVE",
"230 376 OFFCURVE",
"80 300 OFFCURVE",
"80 164 CURVE",
"80 48 OFFCURVE",
"175 -20 OFFCURVE",
"318 -20 CURVE",
"448 -20 OFFCURVE",
"570 44 OFFCURVE",
"686 127 CURVE",
"686 151 LINE",
"561 62 OFFCURVE",
"432 3 OFFCURVE",
"318 3 CURVE",
"185 3 OFFCURVE",
"105 69 OFFCURVE",
"105 164 CURVE",
"105 283 OFFCURVE",
"240 353 OFFCURVE",
"382 352 CURVE",
"501 353 OFFCURVE",
"615 310 OFFCURVE",
"688 270 CURVE",
"688 293 LINE"
);
}
);
};
layerId = "B29C398E-974A-40D0-A0A0-00935056D4B4";
name = "Light Extended";
paths = (
{
closed = 1;
nodes = (
"383 -11 OFFCURVE",
"516 53 OFFCURVE",
"647 137 CURVE",
"651 160 LINE",
"511 72 OFFCURVE",
"371 12 OFFCURVE",
"257 12 CURVE",
"124 12 OFFCURVE",
"55 73 OFFCURVE",
"70 161 CURVE",
"90 271 OFFCURVE",
"229 344 OFFCURVE",
"381 343 CURVE",
"500 344 OFFCURVE",
"605 301 OFFCURVE",
"672 261 CURVE",
"676 283 LINE",
"611 324 OFFCURVE",
"514 366 OFFCURVE",
"385 366 CURVE",
"222 366 OFFCURVE",
"68 289 OFFCURVE",
"45 161 CURVE",
"26 53 OFFCURVE",
"110 -11 OFFCURVE",
"253 -11 CURVE"
);
},
{
closed = 1;
nodes = (
"727 -10 OFFCURVE",
"756 2 OFFCURVE",
"783 19 CURVE",
"777 39 LINE",
"751 22 OFFCURVE",
"728 13 OFFCURVE",
"701 13 CURVE SMOOTH",
"668 13 OFFCURVE",
"642 38 OFFCURVE",
"652 94 CURVE SMOOTH",
"698 357 LINE",
"672 352 LINE",
"627 94 LINE SMOOTH",
"615 28 OFFCURVE",
"645 -10 OFFCURVE",
"696 -10 CURVE SMOOTH"
);
}
);
width = 858;
},
{
anchors = (
{
name = bottom;
position = "{149, -10}";
},
{
name = ogonek;
position = "{385, -2}";
},
{
name = top;
position = "{216, 367}";
}
);
background = {
paths = (
{
closed = 1;
nodes = (
"382 83 LINE SMOOTH",
"382 39 OFFCURVE",
"412 8 OFFCURVE",
"456 8 CURVE SMOOTH",
"497 8 OFFCURVE",
"523 45 OFFCURVE",
"523 83 CURVE SMOOTH",
"523 102 LINE",
"501 102 LINE",
"501 83 LINE SMOOTH",
"501 55 OFFCURVE",
"490 32 OFFCURVE",
"457 32 CURVE SMOOTH",
"428 32 OFFCURVE",
"407 50 OFFCURVE",
"407 83 CURVE SMOOTH",
"407 221 LINE",
"382 221 LINE"
);
}
);
};
layerId = "543F9737-16F7-428D-9F96-2EBD9FC8D3B6";
name = Light;
paths = (
{
closed = 1;
nodes = (
"215 -10 OFFCURVE",
"278 31 OFFCURVE",
"321 67 CURVE",
"326 94 LINE",
"276 52 OFFCURVE",
"220 14 OFFCURVE",
"150 13 CURVE SMOOTH",
"72 12 OFFCURVE",
"20 72 OFFCURVE",
"37 171 CURVE SMOOTH",
"55 272 OFFCURVE",
"138 345 OFFCURVE",
"221 345 CURVE SMOOTH",
"288 345 OFFCURVE",
"330 311 OFFCURVE",
"363 268 CURVE",
"367 291 LINE",
"334 333 OFFCURVE",
"292 367 OFFCURVE",
"225 367 CURVE SMOOTH",
"131 367 OFFCURVE",
"33 290 OFFCURVE",
"12 170 CURVE SMOOTH",
"-8 59 OFFCURVE",
"55 -10 OFFCURVE",
"146 -10 CURVE SMOOTH"
);
},
{
closed = 1;
nodes = (
"366 -10 OFFCURVE",
"381 -5 OFFCURVE",
"392 2 CURVE",
"390 24 LINE",
"382 18 OFFCURVE",
"369 14 OFFCURVE",
"356 14 CURVE SMOOTH",
"336 14 OFFCURVE",
"325 29 OFFCURVE",
"332 68 CURVE SMOOTH",
"383 357 LINE",
"358 352 LINE",
"308 68 LINE SMOOTH",
"299 18 OFFCURVE",
"313 -10 OFFCURVE",
"350 -10 CURVE SMOOTH"
);
}
);
width = 485;
},
{
anchors = (
{
name = bottom;
position = "{142, -12}";
},
{
name = ogonek;
position = "{439, 12}";
},
{
name = top;
position = "{206, 367}";
}
);
layerId = "EB38A4D2-CD30-49BA-8E45-1F04A566FFE8";
name = Bold;
paths = (
{
closed = 1;
nodes = (
"236 -11 OFFCURVE",
"301 58 OFFCURVE",
"346 98 CURVE",
"361 181 LINE",
"312 139 OFFCURVE",
"247 87 OFFCURVE",
"193 86 CURVE SMOOTH",
"134 85 OFFCURVE",
"108 125 OFFCURVE",
"117 177 CURVE SMOOTH",
"127 232 OFFCURVE",
"172 272 OFFCURVE",
"235 272 CURVE SMOOTH",
"288 272 OFFCURVE",
"335 225 OFFCURVE",
"359 182 CURVE",
"373 259 LINE",
"349 301 OFFCURVE",
"313 367 OFFCURVE",
"222 367 CURVE SMOOTH",
"103 367 OFFCURVE",
"8 285 OFFCURVE",
"-11 177 CURVE SMOOTH",
"-30 69 OFFCURVE",
"40 -11 OFFCURVE",
"142 -11 CURVE SMOOTH"
);
},
{
closed = 1;
nodes = (
"395 -5 OFFCURVE",
"419 4 OFFCURVE",
"439 12 CURVE",
"430 92 LINE",
"425 91 OFFCURVE",
"423 90 OFFCURVE",
"416 90 CURVE SMOOTH",
"405 90 OFFCURVE",
"395 94 OFFCURVE",
"398 113 CURVE SMOOTH",
"443 369 LINE",
"323 347 LINE",
"280 101 LINE SMOOTH",
"268 35 OFFCURVE",
"306 -5 OFFCURVE",
"362 -5 CURVE SMOOTH"
);
}
);
width = 492;
}
);
leftKerningGroup = a.alt2;
leftMetricsKey = "=d";
rightKerningGroup = a.alt2;
rightMetricsKey = d.alt;
},
{
glyphname = ae;
lastChange = "2015-11-11 18:40:05 +0000";
layers = (
{
anchors = (
{
name = bottom;
position = "{524, -10}";
},
{
name = ogonek;
position = "{1067, 55}";
},
{
name = top;
position = "{586, 367}";
}
);
layerId = "B29C398E-974A-40D0-A0A0-00935056D4B4";
name = "Light Extended";
paths = (
{
closed = 1;
nodes = (
"880 -20 OFFCURVE",
"982 9 OFFCURVE",
"1067 55 CURVE",
"1059 74 LINE",
"975 30 OFFCURVE",
"879 2 OFFCURVE",
"783 3 CURVE",
"672 2 OFFCURVE",
"543 62 OFFCURVE",
"561 167 CURVE SMOOTH",
"583 290 OFFCURVE",
"755 353 OFFCURVE",
"881 353 CURVE SMOOTH",
"991 353 OFFCURVE",
"1088 324 OFFCURVE",
"1077 258 CURVE SMOOTH",
"1063 184 OFFCURVE",
"951 165 OFFCURVE",
"856 165 CURVE SMOOTH",
"758 165 OFFCURVE",
"661 176 OFFCURVE",
"559 188 CURVE",
"554 165 LINE",
"657 152 OFFCURVE",
"755 142 OFFCURVE",
"852 142 CURVE SMOOTH",
"962 142 OFFCURVE",
"1086 171 OFFCURVE",
"1102 260 CURVE SMOOTH",
"1116 340 OFFCURVE",
"1008 376 OFFCURVE",
"889 376 CURVE SMOOTH",
"739 376 OFFCURVE",
"588 306 OFFCURVE",
"553 197 CURVE",
"563 197 LINE",
"580 297 OFFCURVE",
"530 377 OFFCURVE",
"388 377 CURVE SMOOTH",
"291 377 OFFCURVE",
"196 356 OFFCURVE",
"96 322 CURVE",
"99 300 LINE",
"192 331 OFFCURVE",
"282 354 OFFCURVE",
"383 354 CURVE SMOOTH",
"518 354 OFFCURVE",
"558 276 OFFCURVE",
"544 197 CURVE SMOOTH",
"538 167 LINE",
"516 41 OFFCURVE",
"660 -20 OFFCURVE",
"779 -20 CURVE"
);
},
{
closed = 1;
nodes = (
"296 -20 OFFCURVE",
"442 21 OFFCURVE",
"553 92 CURVE",
"557 114 LINE",
"441 45 OFFCURVE",
"298 3 OFFCURVE",
"195 3 CURVE",
"122 3 OFFCURVE",
"47 28 OFFCURVE",
"58 89 CURVE",
"70 158 OFFCURVE",
"162 188 OFFCURVE",
"266 188 CURVE SMOOTH",
"369 188 OFFCURVE",
"458 176 OFFCURVE",
"549 165 CURVE",
"553 188 LINE",
"462 199 OFFCURVE",
"375 211 OFFCURVE",
"270 211 CURVE SMOOTH",
"152 211 OFFCURVE",
"48 174 OFFCURVE",
"33 89 CURVE",
"19 11 OFFCURVE",
"90 -20 OFFCURVE",
"191 -20 CURVE"
);
}
);
width = 1194;
},
{
anchors = (
{
name = bottom;
position = "{294, -10}";
},
{
name = ogonek;
position = "{604, 49}";
},
{
name = top;
position = "{356, 367}";
}
);
layerId = "543F9737-16F7-428D-9F96-2EBD9FC8D3B6";
name = Light;
paths = (
{
closed = 1;
nodes = (
"512 -10 OFFCURVE",
"560 16 OFFCURVE",
"604 49 CURVE",
"593 67 LINE",
"553 36 OFFCURVE",
"513 14 OFFCURVE",
"453 13 CURVE SMOOTH",
"372 12 OFFCURVE",
"305 72 OFFCURVE",
"321 167 CURVE SMOOTH",
"342 282 OFFCURVE",
"439 343 OFFCURVE",
"516 343 CURVE SMOOTH",
"579 343 OFFCURVE",
"625 315 OFFCURVE",
"615 260 CURVE SMOOTH",
"605 205 OFFCURVE",
"540 176 OFFCURVE",
"479 176 CURVE SMOOTH",
"422 176 OFFCURVE",
"371 184 OFFCURVE",
"321 194 CURVE",
"319 173 LINE",
"368 163 OFFCURVE",
"418 153 OFFCURVE",
"475 153 CURVE SMOOTH",
"551 153 OFFCURVE",
"628 192 OFFCURVE",
"640 260 CURVE SMOOTH",
"652 326 OFFCURVE",
"596 366 OFFCURVE",
"520 366 CURVE SMOOTH",
"447 366 OFFCURVE",
"357 320 OFFCURVE",
"319 217 CURVE",
"326 217 LINE",
"347 333 OFFCURVE",
"297 367 OFFCURVE",
"221 367 CURVE SMOOTH",
"165 367 OFFCURVE",
"111 350 OFFCURVE",
"60 329 CURVE",
"63 306 LINE",
"113 327 OFFCURVE",
"161 343 OFFCURVE",
"217 343 CURVE SMOOTH",
"283 343 OFFCURVE",
"325 317 OFFCURVE",
"306 207 CURVE SMOOTH",
"300 177 LINE",
"278 51 OFFCURVE",
"358 -10 OFFCURVE",
"449 -10 CURVE SMOOTH"
);
},
{
closed = 1;
nodes = (
"184 -10 OFFCURVE",
"242 25 OFFCURVE",
"318 80 CURVE",
"312 98 LINE",
"247 49 OFFCURVE",
"183 13 OFFCURVE",
"114 13 CURVE SMOOTH",
"59 13 OFFCURVE",
"15 43 OFFCURVE",
"25 100 CURVE SMOOTH",
"35 161 OFFCURVE",
"101 191 OFFCURVE",
"165 190 CURVE SMOOTH",
"215 189 OFFCURVE",
"264 182 OFFCURVE",
"314 173 CURVE",
"317 194 LINE",
"268 203 OFFCURVE",
"225 213 OFFCURVE",
"169 213 CURVE SMOOTH",
"82 213 OFFCURVE",
"12 168 OFFCURVE",
"0 100 CURVE SMOOTH",
"-13 29 OFFCURVE",
"41 -10 OFFCURVE",
"110 -10 CURVE SMOOTH"
);
}
);
width = 708;
},
{
anchors = (
{
name = bottom;
position = "{287, -10}";
},
{
name = ogonek;
position = "{648, 56}";
},
{
name = top;
position = "{349, 367}";
}
);
layerId = "EB38A4D2-CD30-49BA-8E45-1F04A566FFE8";
name = Bold;
paths = (
{
closed = 1;
nodes = (
"528 -11 OFFCURVE",
"598 20 OFFCURVE",
"648 56 CURVE",
"621 139 LINE",
"577 107 OFFCURVE",
"528 85 OFFCURVE",
"478 85 CURVE SMOOTH",
"428 85 OFFCURVE",
"368 117 OFFCURVE",
"380 187 CURVE SMOOTH",
"391 247 OFFCURVE",
"454 281 OFFCURVE",
"495 281 CURVE SMOOTH",
"528 281 OFFCURVE",
"547 265 OFFCURVE",
"543 244 CURVE SMOOTH",
"539 223 OFFCURVE",
"517 204 OFFCURVE",
"470 204 CURVE SMOOTH",
"430 204 OFFCURVE",
"377 211 OFFCURVE",
"315 229 CURVE",
"304 169 LINE",
"364 146 OFFCURVE",
"416 126 OFFCURVE",
"487 126 CURVE SMOOTH",
"554 126 OFFCURVE",
"652 157 OFFCURVE",
"666 240 CURVE SMOOTH",
"679 311 OFFCURVE",
"629 367 OFFCURVE",
"531 367 CURVE SMOOTH",
"434 367 OFFCURVE",
"342 311 OFFCURVE",
"305 218 CURVE",
"368 222 LINE",
"384 305 OFFCURVE",
"349 366 OFFCURVE",
"238 366 CURVE SMOOTH",
"171 366 OFFCURVE",
"120 351 OFFCURVE",
"47 322 CURVE",
"56 235 LINE",
"114 257 OFFCURVE",
"162 270 OFFCURVE",
"204 270 CURVE SMOOTH",
"247 270 OFFCURVE",
"289 255 OFFCURVE",
"284 229 CURVE SMOOTH",
"275 175 LINE",
"255 60 OFFCURVE",
"339 -11 OFFCURVE",
"452 -11 CURVE SMOOTH"
);
},
{
closed = 1;
nodes = (
"162 -11 OFFCURVE",
"229 16 OFFCURVE",
"291 78 CURVE",
"275 132 LINE",
"225 98 OFFCURVE",
"179 83 OFFCURVE",
"149 83 CURVE SMOOTH",
"125 83 OFFCURVE",
"114 93 OFFCURVE",
"117 106 CURVE SMOOTH",
"121 128 OFFCURVE",
"146 137 OFFCURVE",
"171 137 CURVE SMOOTH",
"204 138 OFFCURVE",
"235 134 OFFCURVE",
"277 122 CURVE",
"289 193 LINE",
"250 208 OFFCURVE",
"205 219 OFFCURVE",
"156 219 CURVE SMOOTH",
"84 219 OFFCURVE",
"2 179 OFFCURVE",
"-12 101 CURVE SMOOTH",
"-26 25 OFFCURVE",
"31 -11 OFFCURVE",
"97 -11 CURVE SMOOTH"
);
}
);
width = 708;
}
);
leftKerningGroup = a;
leftMetricsKey = "=a";
rightKerningGroup = e;
rightMetricsKey = "=e";
unicode = 00E6;
},
{
glyphname = b;
lastChange = "2015-11-11 18:40:05 +0000";
layers = (
{
anchors = (
{
name = bottom;
position = "{367, -10}";
},
{
name = top;
position = "{434, 367}";
}
);
layerId = "B29C398E-974A-40D0-A0A0-00935056D4B4";
name = "Light Extended";
paths = (
{
closed = 1;
nodes = (
"193 497 LINE",
"197 520 LINE",
"-1 520 LINE",
"-5 497 LINE"
);
},
{
closed = 1;
nodes = (
"403 367 OFFCURVE",
"269 303 OFFCURVE",
"139 219 CURVE",
"135 196 LINE",
"275 284 OFFCURVE",
"415 344 OFFCURVE",
"529 344 CURVE",
"662 344 OFFCURVE",
"731 283 OFFCURVE",
"715 195 CURVE",
"696 85 OFFCURVE",
"557 12 OFFCURVE",
"405 13 CURVE",
"286 12 OFFCURVE",
"181 55 OFFCURVE",
"114 95 CURVE",
"110 73 LINE",
"175 32 OFFCURVE",
"272 -10 OFFCURVE",
"401 -10 CURVE",
"564 -10 OFFCURVE",
"718 67 OFFCURVE",
"740 195 CURVE",
"759 303 OFFCURVE",
"676 367 OFFCURVE",
"533 367 CURVE"
);
},
{
closed = 1;
nodes = (
"112 -11 LINE",
"206 520 LINE",
"181 520 LINE",
"87 -11 LINE"
);
}
);
width = 849;
},
{
anchors = (
{
name = bottom;
position = "{209, 0}";
},
{
name = top;
position = "{276, 377}";
}
);
background = {
paths = (
{
closed = 1;
nodes = (
"200 367 OFFCURVE",
"145 326 OFFCURVE",
"108 290 CURVE",
"108 263 LINE",
"150 305 OFFCURVE",
"200 343 OFFCURVE",
"269 344 CURVE SMOOTH",
"347 345 OFFCURVE",
"410 285 OFFCURVE",
"410 186 CURVE SMOOTH",
"410 85 OFFCURVE",
"340 12 OFFCURVE",
"257 12 CURVE SMOOTH",
"190 12 OFFCURVE",
"142 46 OFFCURVE",
"101 89 CURVE",
"101 66 LINE",
"142 24 OFFCURVE",
"190 -10 OFFCURVE",
"257 -10 CURVE SMOOTH",
"351 -10 OFFCURVE",
"435 67 OFFCURVE",
"435 187 CURVE SMOOTH",
"435 298 OFFCURVE",
"360 367 OFFCURVE",
"269 367 CURVE SMOOTH"
);
}
);
};
layerId = "543F9737-16F7-428D-9F96-2EBD9FC8D3B6";
name = Light;
paths = (
{
closed = 1;
nodes = (
"146 497 LINE",
"150 520 LINE",
"34 520 LINE",
"30 497 LINE"
);
},
{
closed = 1;
nodes = (
"202 367 OFFCURVE",
"140 326 OFFCURVE",
"96 290 CURVE",
"91 263 LINE",
"141 305 OFFCURVE",
"198 343 OFFCURVE",
"267 344 CURVE SMOOTH",
"345 345 OFFCURVE",
"397 285 OFFCURVE",
"380 186 CURVE SMOOTH",
"362 85 OFFCURVE",
"279 12 OFFCURVE",
"196 12 CURVE SMOOTH",
"129 12 OFFCURVE",
"87 46 OFFCURVE",
"54 89 CURVE",
"50 66 LINE",
"83 24 OFFCURVE",
"125 -10 OFFCURVE",
"192 -10 CURVE SMOOTH",
"286 -10 OFFCURVE",
"384 67 OFFCURVE",
"405 187 CURVE SMOOTH",
"425 298 OFFCURVE",
"362 367 OFFCURVE",
"271 367 CURVE SMOOTH"
);
},
{
closed = 1;
nodes = (
"58 0 LINE",
"150 519 LINE",
"126 519 LINE",
"34 0 LINE"
);
}
);
width = 480;
},
{
anchors = (
{
name = bottom;
position = "{231, -12}";
},
{
name = top;
position = "{297, 365}";
}
);
layerId = "EB38A4D2-CD30-49BA-8E45-1F04A566FFE8";
name = Bold;
paths = (
{
closed = 1;
nodes = (
"171 430 LINE",
"187 520 LINE",
"9 520 LINE",
"-7 430 LINE"
);
},
{
closed = 1;
nodes = (
"228 367 OFFCURVE",
"130 292 OFFCURVE",
"74 173 CURVE",
"59 89 LINE",
"111 197 OFFCURVE",
"194 268 OFFCURVE",
"247 269 CURVE SMOOTH",
"301 270 OFFCURVE",
"327 231 OFFCURVE",
"318 179 CURVE SMOOTH",
"308 124 OFFCURVE",
"263 84 OFFCURVE",
"200 84 CURVE SMOOTH",
"147 84 OFFCURVE",
"100 130 OFFCURVE",
"76 173 CURVE",
"62 97 LINE",
"86 55 OFFCURVE",
"122 -11 OFFCURVE",
"213 -11 CURVE SMOOTH",
"332 -11 OFFCURVE",
"427 71 OFFCURVE",
"445 178 CURVE SMOOTH",
"465 287 OFFCURVE",
"402 367 OFFCURVE",
"306 367 CURVE SMOOTH"
);
},
{
closed = 1;
nodes = (
"103 -13 LINE",
"197 520 LINE",
"81 520 LINE",
"-13 -13 LINE"
);
}
);
width = 497;
}
);
leftKerningGroup = h;
rightKerningGroup = o;
rightMetricsKey = "=o";
unicode = 0062;
},
{
glyphname = c;
lastChange = "2015-11-11 18:40:05 +0000";
layers = (
{
anchors = (
{
name = bottom;
position = "{301, -10}";
},
{
name = top;
position = "{379, 367}";
}
);
layerId = "B29C398E-974A-40D0-A0A0-00935056D4B4";
name = "Light Extended";
paths = (
{
closed = 1;
nodes = (
"435 -9 OFFCURVE",
"542 33 OFFCURVE",
"632 96 CURVE",
"620 114 LINE",
"536 56 OFFCURVE",
"428 13 OFFCURVE",
"305 14 CURVE SMOOTH",
"158 15 OFFCURVE",
"56 78 OFFCURVE",
"72 172 CURVE SMOOTH",
"92 286 OFFCURVE",
"240 345 OFFCURVE",
"373 344 CURVE SMOOTH",
"482 344 OFFCURVE",
"590 306 OFFCURVE",
"642 220 CURVE",
"648 221 LINE",
"672 357 LINE",
"649 357 LINE",
"631 257 LINE",
"642 252 LINE",
"603 315 OFFCURVE",
"503 367 OFFCURVE",
"379 367 CURVE SMOOTH",
"234 368 OFFCURVE",
"70 303 OFFCURVE",
"47 172 CURVE SMOOTH",
"27 58 OFFCURVE",
"143 -9 OFFCURVE",
"300 -9 CURVE SMOOTH"
);
}
);
width = 768;
},
{
anchors = (
{
name = bottom;
position = "{151, -10}";
},
{
name = top;
position = "{229, 367}";
}
);
background = {
paths = (
{
closed = 1;
nodes = (
"358 67 LINE",
"324 36 OFFCURVE",
"287 14 OFFCURVE",
"228 13 CURVE SMOOTH",
"147 12 OFFCURVE",
"70 72 OFFCURVE",
"70 167 CURVE SMOOTH",
"70 282 OFFCURVE",
"155 343 OFFCURVE",
"232 343 CURVE SMOOTH",
"300 343 OFFCURVE",
"346 311 OFFCURVE",
"346 257 CURVE SMOOTH",
"346 204 OFFCURVE",
"285 180 OFFCURVE",
"229 180 CURVE SMOOTH",
"169 180 OFFCURVE",
"115 197 OFFCURVE",
"64 215 CURVE",
"65 192 LINE",
"115 174 OFFCURVE",
"169 157 OFFCURVE",
"229 157 CURVE SMOOTH",
"300 157 OFFCURVE",
"371 191 OFFCURVE",
"371 257 CURVE SMOOTH",
"371 322 OFFCURVE",
"313 366 OFFCURVE",
"232 366 CURVE SMOOTH",
"144 366 OFFCURVE",
"45 299 OFFCURVE",
"45 167 CURVE SMOOTH",
"45 51 OFFCURVE",
"137 -10 OFFCURVE",
"228 -10 CURVE SMOOTH",
"291 -10 OFFCURVE",
"335 14 OFFCURVE",
"373 47 CURVE"
);
}
);
};
layerId = "543F9737-16F7-428D-9F96-2EBD9FC8D3B6";
name = Light;
paths = (
{
closed = 1;
nodes = (
"237 -10 OFFCURVE",
"288 23 OFFCURVE",
"331 60 CURVE",
"318 77 LINE",
"278 42 OFFCURVE",
"231 12 OFFCURVE",
"165 13 CURVE SMOOTH",
"91 14 OFFCURVE",
"20 74 OFFCURVE",
"38 174 CURVE SMOOTH",
"55 273 OFFCURVE",
"135 344 OFFCURVE",
"224 344 CURVE SMOOTH",
"296 344 OFFCURVE",
"338 309 OFFCURVE",
"352 237 CURVE",
"364 238 LINE",
"385 357 LINE",
"362 357 LINE",
"347 271 LINE",
"358 264 LINE",
"346 325 OFFCURVE",
"302 366 OFFCURVE",
"228 367 CURVE SMOOTH",
"127 368 OFFCURVE",
"32 285 OFFCURVE",
"13 174 CURVE SMOOTH",
"-8 54 OFFCURVE",
"76 -10 OFFCURVE",
"161 -10 CURVE SMOOTH"
);
}
);
width = 430;
},
{
anchors = (
{
name = bottom;
position = "{153, -10}";
},
{
name = top;
position = "{219, 367}";
}
);
layerId = "EB38A4D2-CD30-49BA-8E45-1F04A566FFE8";
name = Bold;
paths = (
{
closed = 1;
nodes = (
"225 -10 OFFCURVE",
"291 14 OFFCURVE",
"344 60 CURVE",
"303 138 LINE",
"262 108 OFFCURVE",
"230 90 OFFCURVE",
"186 90 CURVE SMOOTH",
"140 90 OFFCURVE",
"108 125 OFFCURVE",
"118 179 CURVE SMOOTH",
"128 238 OFFCURVE",
"177 271 OFFCURVE",
"222 271 CURVE SMOOTH",
"264 271 OFFCURVE",
"283 250 OFFCURVE",
"303 224 CURVE",
"359 227 LINE",
"382 357 LINE",
"303 357 LINE",
"291 288 LINE",
"331 284 LINE",
"307 329 OFFCURVE",
"282 367 OFFCURVE",
"209 367 CURVE SMOOTH",
"119 367 OFFCURVE",
"10 292 OFFCURVE",
"-10 179 CURVE SMOOTH",
"-30 69 OFFCURVE",
"47 -14 OFFCURVE",
"168 -11 CURVE SMOOTH"
);
}
);
width = 415;
}
);
leftKerningGroup = o;
leftMetricsKey = "=o";
rightKerningGroup = c;
unicode = 0063;
},
{
glyphname = d;
lastChange = "2015-11-11 18:40:05 +0000";
layers = (
{
anchors = (
{
name = bottom;
position = "{360, -10}";
},
{
name = center;
position = "{394, 179}";
},
{
name = top;
position = "{427, 367}";
},
{
name = topright;
position = "{818, 357}";
}
);
layerId = "B29C398E-974A-40D0-A0A0-00935056D4B4";
name = "Light Extended";
paths = (
{
closed = 1;
nodes = (
"383 -11 OFFCURVE",
"516 53 OFFCURVE",
"647 137 CURVE",
"651 160 LINE",
"511 72 OFFCURVE",
"371 12 OFFCURVE",
"257 12 CURVE",
"124 12 OFFCURVE",
"55 73 OFFCURVE",
"70 161 CURVE",
"90 271 OFFCURVE",
"229 344 OFFCURVE",
"381 343 CURVE",
"500 344 OFFCURVE",
"605 301 OFFCURVE",
"672 261 CURVE",
"676 283 LINE",
"611 324 OFFCURVE",
"514 366 OFFCURVE",
"385 366 CURVE",
"222 366 OFFCURVE",
"68 289 OFFCURVE",
"45 161 CURVE",
"26 53 OFFCURVE",
"110 -11 OFFCURVE",
"253 -11 CURVE"
);
},
{
closed = 1;
nodes = (
"727 -10 OFFCURVE",
"756 2 OFFCURVE",
"783 19 CURVE",
"777 39 LINE",
"751 22 OFFCURVE",
"728 13 OFFCURVE",
"701 13 CURVE SMOOTH",
"668 13 OFFCURVE",
"642 38 OFFCURVE",
"652 94 CURVE SMOOTH",
"727 520 LINE",
"702 520 LINE",
"627 94 LINE SMOOTH",
"615 28 OFFCURVE",
"645 -10 OFFCURVE",
"696 -10 CURVE SMOOTH"
);
},
{
closed = 1;
nodes = (
"714 497 LINE",
"718 520 LINE",
"520 520 LINE",
"516 497 LINE"
);
}
);
width = 858;
},
{
anchors = (
{
name = bottom;
position = "{143, -20}";
},
{
name = center;
position = "{178, 179}";
},
{
name = top;
position = "{213, 377}";
},
{
name = topright;
position = "{373, 357}";
}
);
background = {
paths = (
{
closed = 1;
nodes = (
"328 330 OFFCURVE",
"284 365 OFFCURVE",
"211 365 CURVE",
"135 365 OFFCURVE",
"45 305 OFFCURVE",
"45 174 CURVE",
"45 46 OFFCURVE",
"115 -20 OFFCURVE",
"203 -20 CURVE SMOOTH",
"272 -20 OFFCURVE",
"326 22 OFFCURVE",
"372 74 CURVE",
"372 94 LINE",
"322 42 OFFCURVE",
"261 4 OFFCURVE",
"203 4 CURVE SMOOTH",
"129 4 OFFCURVE",
"70 69 OFFCURVE",
"70 174 CURVE",
"70 285 OFFCURVE",
"146 342 OFFCURVE",
"211 342 CURVE",
"274 342 OFFCURVE",
"326 307 OFFCURVE",
"375 270 CURVE",
"375 290 LINE"
);
}
);
};
layerId = "543F9737-16F7-428D-9F96-2EBD9FC8D3B6";
name = Light;
paths = (
{
closed = 1;
nodes = (
"215 -10 OFFCURVE",
"278 31 OFFCURVE",
"321 67 CURVE",
"326 94 LINE",
"276 52 OFFCURVE",
"220 14 OFFCURVE",
"150 13 CURVE SMOOTH",
"72 12 OFFCURVE",
"20 72 OFFCURVE",
"37 171 CURVE SMOOTH",
"55 272 OFFCURVE",
"138 345 OFFCURVE",
"221 345 CURVE SMOOTH",
"288 345 OFFCURVE",
"330 311 OFFCURVE",
"363 268 CURVE",
"367 291 LINE",
"334 333 OFFCURVE",
"292 367 OFFCURVE",
"225 367 CURVE SMOOTH",
"131 367 OFFCURVE",
"33 290 OFFCURVE",
"12 170 CURVE SMOOTH",
"-8 59 OFFCURVE",
"55 -10 OFFCURVE",
"146 -10 CURVE SMOOTH"
);
},
{
closed = 1;
nodes = (
"366 -10 OFFCURVE",
"381 -5 OFFCURVE",
"392 2 CURVE",
"390 24 LINE",
"382 18 OFFCURVE",
"369 14 OFFCURVE",
"356 14 CURVE SMOOTH",
"336 14 OFFCURVE",
"325 29 OFFCURVE",
"332 68 CURVE SMOOTH",
"412 520 LINE",
"388 520 LINE",
"308 68 LINE SMOOTH",
"299 18 OFFCURVE",
"313 -10 OFFCURVE",
"350 -10 CURVE SMOOTH"
);
},
{
closed = 1;
nodes = (
"408 497 LINE",
"412 520 LINE",
"296 520 LINE",
"292 497 LINE"
);
}
);
width = 485;
},
{
anchors = (
{
name = bottom;
position = "{143, -8}";
},
{
name = center;
position = "{176, 179}";
},
{
name = top;
position = "{208, 365}";
},
{
name = topright;
position = "{516, 357}";
}
);
layerId = "EB38A4D2-CD30-49BA-8E45-1F04A566FFE8";
name = Bold;
paths = (
{
closed = 1;
nodes = (
"236 -11 OFFCURVE",
"301 58 OFFCURVE",
"346 98 CURVE",
"361 181 LINE",
"312 139 OFFCURVE",
"247 87 OFFCURVE",
"193 86 CURVE SMOOTH",
"134 85 OFFCURVE",
"108 125 OFFCURVE",
"117 177 CURVE SMOOTH",
"127 232 OFFCURVE",
"172 272 OFFCURVE",
"235 272 CURVE SMOOTH",
"288 272 OFFCURVE",
"335 225 OFFCURVE",
"359 182 CURVE",
"373 259 LINE",
"349 301 OFFCURVE",
"313 367 OFFCURVE",
"222 367 CURVE SMOOTH",
"103 367 OFFCURVE",
"8 285 OFFCURVE",
"-11 177 CURVE SMOOTH",
"-30 69 OFFCURVE",
"40 -11 OFFCURVE",
"142 -11 CURVE SMOOTH"
);
},
{
closed = 1;
nodes = (
"397 -6 OFFCURVE",
"426 3 OFFCURVE",
"441 11 CURVE",
"432 92 LINE",
"428 90 OFFCURVE",
"422 88 OFFCURVE",
"414 88 CURVE SMOOTH",
"404 88 OFFCURVE",
"396 94 OFFCURVE",
"399 111 CURVE SMOOTH",
"471 520 LINE",
"355 520 LINE",
"281 100 LINE SMOOTH",
"269 31 OFFCURVE",
"306 -6 OFFCURVE",
"367 -6 CURVE SMOOTH"
);
},
{
closed = 1;
nodes = (
"443 430 LINE",
"459 520 LINE",
"284 520 LINE",
"268 430 LINE"
);
}
);
width = 507;
}
);
leftKerningGroup = o;
leftMetricsKey = "=o";
rightKerningGroup = l;
unicode = 0064;
},
{
glyphname = d.alt;
lastChange = "2015-11-11 18:40:05 +0000";
layers = (
{
anchors = (
{
name = bottom;
position = "{376, -10}";
},
{
name = center;
position = "{410, 179}";
},
{
name = top;
position = "{443, 367}";
},
{
name = topright;
position = "{851, 357}";
}
);
layerId = "B29C398E-974A-40D0-A0A0-00935056D4B4";
name = "Light Extended";
paths = (
{
closed = 1;
nodes = (
"383 -11 OFFCURVE",
"516 53 OFFCURVE",
"647 137 CURVE",
"651 160 LINE",
"511 72 OFFCURVE",
"371 12 OFFCURVE",
"257 12 CURVE",
"124 12 OFFCURVE",
"55 73 OFFCURVE",
"70 161 CURVE",
"90 271 OFFCURVE",
"229 344 OFFCURVE",
"381 343 CURVE",
"500 344 OFFCURVE",
"605 301 OFFCURVE",
"672 261 CURVE",
"676 283 LINE",
"611 324 OFFCURVE",
"514 366 OFFCURVE",
"385 366 CURVE",
"222 366 OFFCURVE",
"68 289 OFFCURVE",
"45 161 CURVE",
"26 53 OFFCURVE",
"110 -11 OFFCURVE",
"253 -11 CURVE"
);
},
{
closed = 1;
nodes = (
"765 -10 OFFCURVE",
"798 49 OFFCURVE",
"806 98 CURVE SMOOTH",
"809 112 LINE",
"785 112 LINE",
"782 98 LINE SMOOTH",
"774 48 OFFCURVE",
"745 13 OFFCURVE",
"703 13 CURVE SMOOTH",
"658 13 OFFCURVE",
"644 48 OFFCURVE",
"654 108 CURVE SMOOTH",
"727 520 LINE",
"702 520 LINE",
"629 108 LINE SMOOTH",
"617 39 OFFCURVE",
"635 -10 OFFCURVE",
"698 -10 CURVE SMOOTH"
);
},
{
closed = 1;
nodes = (
"714 497 LINE",
"718 520 LINE",
"520 520 LINE",
"516 497 LINE"
);
}
);
width = 867;
},
{
anchors = (
{
name = bottom;
position = "{138, -20}";
},
{
name = center;
position = "{153, 179}";
},
{
name = top;
position = "{218, 377}";
},
{
name = topright;
position = "{498, 357}";
}
);
background = {
paths = (
{
closed = 1;
nodes = (
"272 -20 OFFCURVE",
"326 22 OFFCURVE",
"372 74 CURVE",
"372 94 LINE",
"322 42 OFFCURVE",
"261 4 OFFCURVE",
"203 4 CURVE SMOOTH",
"129 4 OFFCURVE",
"70 69 OFFCURVE",
"70 174 CURVE",
"70 285 OFFCURVE",
"146 342 OFFCURVE",
"211 342 CURVE",
"274 342 OFFCURVE",
"326 307 OFFCURVE",
"375 270 CURVE",
"375 290 LINE",
"328 330 OFFCURVE",
"284 365 OFFCURVE",
"211 365 CURVE",
"135 365 OFFCURVE",
"45 305 OFFCURVE",
"45 174 CURVE",
"45 46 OFFCURVE",
"115 -20 OFFCURVE",
"203 -20 CURVE SMOOTH"
);
},
{
closed = 1;
nodes = (
"470 -20 OFFCURVE",
"499 13 OFFCURVE",
"499 55 CURVE SMOOTH",
"499 74 LINE",
"477 74 LINE",
"477 55 LINE SMOOTH",
"477 24 OFFCURVE",
"462 4 OFFCURVE",
"430 4 CURVE SMOOTH",
"401 4 OFFCURVE",
"383 21 OFFCURVE",
"383 55 CURVE SMOOTH",
"383 520 LINE",
"359 520 LINE",
"359 55 LINE SMOOTH",
"359 11 OFFCURVE",
"385 -20 OFFCURVE",
"429 -20 CURVE SMOOTH"
);
},
{
closed = 1;
nodes = (
"383 495 LINE",
"383 520 LINE",
"267 520 LINE",
"267 495 LINE"
);
},
{
closed = 0;
nodes = (
"551 70 LINE SMOOTH",
"551 26 OFFCURVE",
"577 -5 OFFCURVE",
"616 -5 CURVE SMOOTH",
"654 -5 OFFCURVE",
"679 26 OFFCURVE",
"679 68 CURVE SMOOTH",
"679 87 LINE",
"656 87 LINE",
"656 68 LINE SMOOTH",
"656 39 OFFCURVE",
"642 18 OFFCURVE",
"616 18 CURVE SMOOTH",
"591 18 OFFCURVE",
"575 37 OFFCURVE",
"575 70 CURVE SMOOTH"
);
}
);
};
layerId = "543F9737-16F7-428D-9F96-2EBD9FC8D3B6";
name = Light;
paths = (
{
closed = 1;
nodes = (
"215 -10 OFFCURVE",
"278 31 OFFCURVE",
"321 67 CURVE",
"326 94 LINE",
"276 52 OFFCURVE",
"220 14 OFFCURVE",
"150 13 CURVE SMOOTH",
"72 12 OFFCURVE",
"20 72 OFFCURVE",
"37 171 CURVE SMOOTH",
"55 272 OFFCURVE",
"138 345 OFFCURVE",
"221 345 CURVE SMOOTH",
"288 345 OFFCURVE",
"330 311 OFFCURVE",
"363 268 CURVE",
"367 291 LINE",
"334 333 OFFCURVE",
"292 367 OFFCURVE",
"225 367 CURVE SMOOTH",
"131 367 OFFCURVE",
"33 290 OFFCURVE",
"12 170 CURVE SMOOTH",
"-8 59 OFFCURVE",
"55 -10 OFFCURVE",
"146 -10 CURVE SMOOTH"
);
},
{
closed = 1;
nodes = (
"398 -5 OFFCURVE",
"429 26 OFFCURVE",
"436 68 CURVE SMOOTH",
"439 87 LINE",
"416 87 LINE",
"413 68 LINE SMOOTH",
"408 39 OFFCURVE",
"390 18 OFFCURVE",
"364 18 CURVE SMOOTH",
"339 18 OFFCURVE",
"327 37 OFFCURVE",
"332 70 CURVE SMOOTH",
"412 520 LINE",
"388 520 LINE",
"308 70 LINE SMOOTH",
"301 26 OFFCURVE",
"321 -5 OFFCURVE",
"360 -5 CURVE SMOOTH"
);
},
{
closed = 1;
nodes = (
"408 497 LINE",
"412 520 LINE",
"296 520 LINE",
"292 497 LINE"
);
}
);
width = 492;
},
{
anchors = (
{
name = bottom;
position = "{145, -8}";
},
{
name = center;
position = "{182, 179}";
},
{
name = top;
position = "{220, 365}";
},
{
name = topright;
position = "{527, 357}";
}
);
layerId = "EB38A4D2-CD30-49BA-8E45-1F04A566FFE8";
name = Bold;
paths = (
{
closed = 1;
nodes = (
"236 -11 OFFCURVE",
"301 58 OFFCURVE",
"346 98 CURVE",
"361 181 LINE",
"312 139 OFFCURVE",
"247 87 OFFCURVE",
"193 86 CURVE SMOOTH",
"134 85 OFFCURVE",
"108 125 OFFCURVE",
"117 177 CURVE SMOOTH",
"127 232 OFFCURVE",
"172 272 OFFCURVE",
"235 272 CURVE SMOOTH",
"288 272 OFFCURVE",
"335 225 OFFCURVE",
"359 182 CURVE",
"373 259 LINE",
"349 301 OFFCURVE",
"313 367 OFFCURVE",
"222 367 CURVE SMOOTH",
"103 367 OFFCURVE",
"8 285 OFFCURVE",
"-11 177 CURVE SMOOTH",
"-30 69 OFFCURVE",
"40 -11 OFFCURVE",
"142 -11 CURVE SMOOTH"
);
},
{
closed = 1;
nodes = (
"425 -11 OFFCURVE",
"467 22 OFFCURVE",
"478 85 CURVE SMOOTH",
"487 138 LINE",
"430 138 LINE",
"421 84 LINE SMOOTH",
"419 73 OFFCURVE",
"414 63 OFFCURVE",
"403 63 CURVE SMOOTH",
"391 63 OFFCURVE",
"392 74 OFFCURVE",
"394 83 CURVE SMOOTH",
"471 520 LINE",
"355 520 LINE",
"278 85 LINE SMOOTH",
"268 27 OFFCURVE",
"304 -11 OFFCURVE",
"365 -11 CURVE SMOOTH"
);
},
{
closed = 1;
nodes = (
"443 430 LINE",
"459 520 LINE",
"284 520 LINE",
"268 430 LINE"
);
}
);
width = 518;
}
);
leftKerningGroup = d.alt;
leftMetricsKey = "=d";
rightKerningGroup = d.alt;
rightMetricsKey = a.alt;
},
{
glyphname = eth;
lastChange = "2015-11-11 18:40:05 +0000";
layers = (
{
layerId = "B29C398E-974A-40D0-A0A0-00935056D4B4";
name = "Light Extended";
paths = (
{
closed = 1;
nodes = (
"456 -20 OFFCURVE",
"607 62 OFFCURVE",
"636 224 CURVE SMOOTH",
"670 417 OFFCURVE",
"499 541 OFFCURVE",
"253 572 CURVE",
"243 549 LINE",
"493 517 OFFCURVE",
"643 400 OFFCURVE",
"612 224 CURVE SMOOTH",
"585 74 OFFCURVE",
"443 4 OFFCURVE",
"289 4 CURVE SMOOTH",
"145 4 OFFCURVE",
"53 64 OFFCURVE",
"68 148 CURVE SMOOTH",
"83 234 OFFCURVE",
"184 292 OFFCURVE",
"325 292 CURVE SMOOTH",
"444 292 OFFCURVE",
"546 254 OFFCURVE",
"615 199 CURVE",
"620 224 LINE",
"551 276 OFFCURVE",
"442 315 OFFCURVE",
"332 315 CURVE SMOOTH",
"189 315 OFFCURVE",
"62 255 OFFCURVE",
"43 147 CURVE SMOOTH",
"25 43 OFFCURVE",
"138 -20 OFFCURVE",
"285 -20 CURVE SMOOTH"
);
},
{
closed = 1;
nodes = (
"558 605 LINE",
"542 617 LINE",
"332 378 LINE",
"348 367 LINE"
);
}
);
width = 749;
},
{
layerId = "543F9737-16F7-428D-9F96-2EBD9FC8D3B6";
name = Light;
paths = (
{
closed = 1;
nodes = (
"255 -20 OFFCURVE",
"359 72 OFFCURVE",
"384 214 CURVE SMOOTH",
"416 397 OFFCURVE",
"315 531 OFFCURVE",
"133 572 CURVE",
"122 548 LINE",
"303 508 OFFCURVE",
"389 380 OFFCURVE",
"360 214 CURVE SMOOTH",
"337 84 OFFCURVE",
"242 4 OFFCURVE",
"143 4 CURVE SMOOTH",
"52 4 OFFCURVE",
"-1 66 OFFCURVE",
"13 146 CURVE SMOOTH",
"27 228 OFFCURVE",
"101 292 OFFCURVE",
"191 292 CURVE SMOOTH",
"272 292 OFFCURVE",
"331 252 OFFCURVE",
"364 194 CURVE",
"369 219 LINE",
"336 274 OFFCURVE",
"276 315 OFFCURVE",
"195 315 CURVE SMOOTH",
"100 315 OFFCURVE",
"6 249 OFFCURVE",
"-12 145 CURVE SMOOTH",
"-30 45 OFFCURVE",
"42 -20 OFFCURVE",
"139 -20 CURVE SMOOTH"
);
},
{
closed = 1;
nodes = (
"357 582 LINE",
"343 595 LINE",
"158 378 LINE",
"173 366 LINE"
);
}
);
width = 444;
},
{
layerId = "EB38A4D2-CD30-49BA-8E45-1F04A566FFE8";
name = Bold;
paths = (
{
closed = 1;
nodes = (
"272 -18 OFFCURVE",
"394 60 OFFCURVE",
"419 204 CURVE SMOOTH",
"449 373 OFFCURVE",
"346 516 OFFCURVE",
"163 595 CURVE",
"105 498 LINE",
"254 430 OFFCURVE",
"320 332 OFFCURVE",
"296 198 CURVE SMOOTH",
"279 102 OFFCURVE",
"218 70 OFFCURVE",
"168 70 CURVE SMOOTH",
"128 70 OFFCURVE",
"102 100 OFFCURVE",
"110 145 CURVE SMOOTH",
"117 188 OFFCURVE",
"163 221 OFFCURVE",
"212 221 CURVE SMOOTH",
"254 221 OFFCURVE",
"312 199 OFFCURVE",
"337 159 CURVE",
"355 239 LINE",
"315 290 OFFCURVE",
"265 310 OFFCURVE",
"198 310 CURVE SMOOTH",
"92 310 OFFCURVE",
"-2 236 OFFCURVE",
"-18 145 CURVE SMOOTH",
"-35 49 OFFCURVE",
"35 -20 OFFCURVE",
"151 -19 CURVE SMOOTH"
);
},
{
closed = 1;
nodes = (
"373 567 LINE",
"313 619 LINE",
"113 399 LINE",
"174 348 LINE"
);
}
);
width = 468;
}
);
leftKerningGroup = eth;
rightKerningGroup = eth;
unicode = 00F0;
},
{
glyphname = e;
lastChange = "2015-11-11 18:40:05 +0000";
layers = (
{
anchors = (
{
name = bottom;
position = "{311, -10}";
},
{
name = ogonek;
position = "{617, 65}";
},
{
name = top;
position = "{378, 367}";
}
);
background = {
paths = (
{
closed = 1;
nodes = (
"657 74 LINE",
"581 30 OFFCURVE",
"490 2 OFFCURVE",
"373 3 CURVE",
"244 2 OFFCURVE",
"105 62 OFFCURVE",
"105 167 CURVE",
"105 290 OFFCURVE",
"265 353 OFFCURVE",
"410 353 CURVE SMOOTH",
"540 353 OFFCURVE",
"642 324 OFFCURVE",
"642 258 CURVE SMOOTH",
"642 192 OFFCURVE",
"533 165 OFFCURVE",
"418 165 CURVE SMOOTH",
"320 165 OFFCURVE",
"189 188 OFFCURVE",
"99 217 CURVE",
"100 194 LINE",
"189 165 OFFCURVE",
"320 142 OFFCURVE",
"418 142 CURVE SMOOTH",
"548 142 OFFCURVE",
"667 179 OFFCURVE",
"667 260 CURVE SMOOTH",
"667 340 OFFCURVE",
"553 376 OFFCURVE",
"414 376 CURVE SMOOTH",
"254 376 OFFCURVE",
"80 307 OFFCURVE",
"80 167 CURVE",
"80 41 OFFCURVE",
"234 -20 OFFCURVE",
"373 -20 CURVE",
"494 -20 OFFCURVE",
"591 9 OFFCURVE",
"668 55 CURVE"
);
}
);
};
layerId = "B29C398E-974A-40D0-A0A0-00935056D4B4";
name = "Light Extended";
paths = (
{
closed = 1;
nodes = (
"609 84 LINE",
"525 40 OFFCURVE",
"439 12 OFFCURVE",
"322 13 CURVE",
"183 12 OFFCURVE",
"54 67 OFFCURVE",
"71 167 CURVE",
"93 291 OFFCURVE",
"263 344 OFFCURVE",
"408 344 CURVE SMOOTH",
"538 344 OFFCURVE",
"635 315 OFFCURVE",
"625 258 CURVE SMOOTH",
"614 197 OFFCURVE",
"510 170 OFFCURVE",
"385 170 CURVE SMOOTH",
"287 170 OFFCURVE",
"160 193 OFFCURVE",
"75 222 CURVE",
"72 199 LINE",
"156 170 OFFCURVE",
"283 147 OFFCURVE",
"381 147 CURVE SMOOTH",
"521 147 OFFCURVE",
"636 184 OFFCURVE",
"650 260 CURVE SMOOTH",
"662 331 OFFCURVE",
"555 367 OFFCURVE",
"416 367 CURVE SMOOTH",
"256 367 OFFCURVE",
"71 308 OFFCURVE",
"46 167 CURVE",
"25 46 OFFCURVE",
"169 -10 OFFCURVE",
"318 -10 CURVE",
"439 -10 OFFCURVE",
"531 19 OFFCURVE",
"617 65 CURVE"
);
}
);
width = 758;
},
{
anchors = (
{
name = bottom;
position = "{160, -20}";
},
{
name = ogonek;
position = "{318, 49}";
},
{
name = top;
position = "{231, 387}";
}
);
background = {
paths = (
{
closed = 1;
nodes = (
"105 -10 OFFCURVE",
"22 63 OFFCURVE",
"22 178 CURVE",
"22 293 OFFCURVE",
"105 366 OFFCURVE",
"207 367 CURVE",
"309 366 OFFCURVE",
"392 293 OFFCURVE",
"392 178 CURVE",
"392 63 OFFCURVE",
"309 -10 OFFCURVE",
"207 -11 CURVE"
);
},
{
closed = 1;
nodes = (
"114 344 OFFCURVE",
"48 277 OFFCURVE",
"48 178 CURVE",
"48 79 OFFCURVE",
"114 12 OFFCURVE",
"207 12 CURVE",
"300 12 OFFCURVE",
"366 79 OFFCURVE",
"366 178 CURVE",
"366 277 OFFCURVE",
"300 344 OFFCURVE",
"207 344 CURVE"
);
}
);
};
layerId = "543F9737-16F7-428D-9F96-2EBD9FC8D3B6";
name = Light;
paths = (
{
closed = 1;
nodes = (
"307 67 LINE",
"267 36 OFFCURVE",
"227 14 OFFCURVE",
"167 13 CURVE SMOOTH",
"86 12 OFFCURVE",
"20 72 OFFCURVE",
"36 167 CURVE SMOOTH",
"57 282 OFFCURVE",
"153 343 OFFCURVE",
"230 343 CURVE SMOOTH",
"296 343 OFFCURVE",
"338 309 OFFCURVE",
"328 257 CURVE SMOOTH",
"319 204 OFFCURVE",
"254 180 OFFCURVE",
"198 180 CURVE SMOOTH",
"138 180 OFFCURVE",
"86 195 OFFCURVE",
"39 213 CURVE",
"36 192 LINE",
"83 174 OFFCURVE",
"134 157 OFFCURVE",
"194 157 CURVE SMOOTH",
"265 157 OFFCURVE",
"342 191 OFFCURVE",
"353 257 CURVE SMOOTH",
"364 320 OFFCURVE",
"313 366 OFFCURVE",
"234 366 CURVE SMOOTH",
"146 366 OFFCURVE",
"35 299 OFFCURVE",
"11 167 CURVE SMOOTH",
"-9 51 OFFCURVE",
"72 -10 OFFCURVE",
"163 -10 CURVE SMOOTH",
"226 -10 OFFCURVE",
"274 16 OFFCURVE",
"318 49 CURVE"
);
}
);
width = 422;
},
{
anchors = (
{
name = bottom;
position = "{178, -11}";
},
{
name = ogonek;
position = "{374, 56}";
},
{
name = top;
position = "{237, 367}";
}
);
layerId = "EB38A4D2-CD30-49BA-8E45-1F04A566FFE8";
name = Bold;
paths = (
{
closed = 1;
nodes = (
"347 139 LINE",
"304 107 OFFCURVE",
"254 85 OFFCURVE",
"205 85 CURVE SMOOTH",
"154 85 OFFCURVE",
"101 117 OFFCURVE",
"113 187 CURVE SMOOTH",
"124 247 OFFCURVE",
"180 281 OFFCURVE",
"222 281 CURVE SMOOTH",
"254 281 OFFCURVE",
"272 261 OFFCURVE",
"269 245 CURVE SMOOTH",
"266 227 OFFCURVE",
"244 203 OFFCURVE",
"195 203 CURVE SMOOTH",
"150 203 OFFCURVE",
"80 212 OFFCURVE",
"40 256 CURVE",
"29 196 LINE",
"67 157 OFFCURVE",
"136 125 OFFCURVE",
"213 125 CURVE SMOOTH",
"274 125 OFFCURVE",
"378 157 OFFCURVE",
"393 241 CURVE SMOOTH",
"405 313 OFFCURVE",
"340 367 OFFCURVE",
"237 367 CURVE SMOOTH",
"127 367 OFFCURVE",
"11 298 OFFCURVE",
"-11 177 CURVE SMOOTH",
"-31 60 OFFCURVE",
"59 -11 OFFCURVE",
"178 -11 CURVE SMOOTH",
"255 -11 OFFCURVE",
"324 20 OFFCURVE",
"374 56 CURVE"
);
}
);
width = 434;
}
);
leftKerningGroup = o;
leftMetricsKey = "=o";
rightKerningGroup = e;
unicode = 0065;
},
{
glyphname = f;
lastChange = "2015-11-11 18:40:05 +0000";
layers = (
{
anchors = (
{
name = bottom;
position = "{193, 0}";
},
{
name = top;
position = "{291, 557}";
}
);
background = {
paths = (
{
closed = 1;
nodes = (
"120 0 LINE",
"472 0 LINE",
"472 25 LINE",
"120 25 LINE"
);
},
{
closed = 1;
nodes = (
"252 0 LINE",
"277 0 LINE",
"277 428 LINE",
"277 515 OFFCURVE",
"326 560 OFFCURVE",
"422 560 CURVE SMOOTH",
"490 560 OFFCURVE",
"551 545 OFFCURVE",
"582 531 CURVE",
"582 449 LINE",
"607 449 LINE",
"607 548 LINE",
"561 568 OFFCURVE",
"498 585 OFFCURVE",
"424 585 CURVE SMOOTH",
"309 585 OFFCURVE",
"252 524 OFFCURVE",
"252 426 CURVE"
);
},
{
closed = 1;
nodes = (
"501 357 LINE",
"148 357 LINE",
"148 333 LINE",
"501 333 LINE"
);
}
);
};
layerId = "B29C398E-974A-40D0-A0A0-00935056D4B4";
name = "Light Extended";
paths = (
{
closed = 1;
nodes = (
"-13 0 LINE",
"364 0 LINE",
"368 23 LINE",
"-9 23 LINE"
);
},
{
closed = 1;
nodes = (
"147 0 LINE",
"172 0 LINE",
"240 388 LINE",
"258 485 OFFCURVE",
"308 532 OFFCURVE",
"404 532 CURVE SMOOTH",
"461 532 OFFCURVE",
"531 514 OFFCURVE",
"580 490 CURVE",
"593 513 LINE",
"540 535 OFFCURVE",
"474 555 OFFCURVE",
"410 555 CURVE SMOOTH",
"295 555 OFFCURVE",
"234 494 OFFCURVE",
"215 386 CURVE"
);
},
{
closed = 1;
nodes = (
"459 357 LINE",
"50 357 LINE",
"46 334 LINE",
"455 334 LINE"
);
}
);
width = 555;
},
{
anchors = (
{
name = bottom;
position = "{80, 0}";
},
{
name = top;
position = "{143, 357}";
}
);
background = {
paths = (
{
closed = 1;
nodes = (
"7 0 LINE",
"263 0 LINE",
"263 83 LINE",
"7 83 LINE"
);
},
{
closed = 1;
nodes = (
"81 0 LINE",
"178 0 LINE",
"178 406 LINE SMOOTH",
"178 441 OFFCURVE",
"205 468 OFFCURVE",
"251 468 CURVE SMOOTH",
"290 468 OFFCURVE",
"316 455 OFFCURVE",
"352 436 CURVE",
"387 515 LINE",
"341 536 OFFCURVE",
"300 555 OFFCURVE",
"239 555 CURVE SMOOTH",
"144 555 OFFCURVE",
"81 497 OFFCURVE",
"81 404 CURVE SMOOTH"
);
},
{
closed = 1;
nodes = (
"287 357 LINE",
"7 357 LINE",
"7 274 LINE",
"287 274 LINE"
);
}
);
};
layerId = "543F9737-16F7-428D-9F96-2EBD9FC8D3B6";
name = Light;
paths = (
{
closed = 1;
nodes = (
"-38 0 LINE",
"176 0 LINE",
"180 23 LINE",
"-34 23 LINE"
);
},
{
closed = 1;
nodes = (
"54 0 LINE",
"79 0 LINE",
"153 418 LINE",
"168 505 OFFCURVE",
"217 532 OFFCURVE",
"268 532 CURVE SMOOTH",
"306 532 OFFCURVE",
"343 518 OFFCURVE",
"368 504 CURVE",
"382 525 LINE",
"355 538 OFFCURVE",
"317 555 OFFCURVE",
"272 555 CURVE SMOOTH",
"202 555 OFFCURVE",
"145 514 OFFCURVE",
"127 416 CURVE"
);
},
{
closed = 1;
nodes = (
"263 357 LINE",
"25 357 LINE",
"21 334 LINE",
"259 334 LINE"
);
}
);
width = 302;
},
{
anchors = (
{
name = bottom;
position = "{91, 0}";
},
{
name = top;
position = "{197, 601}";
}
);
layerId = "EB38A4D2-CD30-49BA-8E45-1F04A566FFE8";
name = Bold;
paths = (
{
closed = 1;
nodes = (
"-38 0 LINE",
"229 0 LINE",
"245 90 LINE",
"-22 90 LINE"
);
},
{
closed = 1;
nodes = (
"42 50 LINE",
"155 50 LINE",
"217 403 LINE",
"221 427 OFFCURVE",
"249 454 OFFCURVE",
"294 454 CURVE SMOOTH",
"333 454 OFFCURVE",
"354 441 OFFCURVE",
"388 421 CURVE",
"446 513 LINE",
"400 536 OFFCURVE",
"362 555 OFFCURVE",
"297 555 CURVE SMOOTH",
"197 555 OFFCURVE",
"120 493 OFFCURVE",
"104 401 CURVE"
);
},
{
closed = 1;
nodes = (
"316 357 LINE",
"25 357 LINE",
"9 267 LINE",
"300 267 LINE"
);
}
);
width = 344;
}
);
leftKerningGroup = f;
leftMetricsKey = "=n";
rightKerningGroup = f;
unicode = 0066;
},
{
glyphname = f.alt;
lastChange = "2015-11-11 18:40:05 +0000";
layers = (
{
anchors = (
{
name = bottom;
position = "{206, 0}";
},
{
name = top;
position = "{304, 557}";
}
);
background = {
paths = (
{
closed = 1;
nodes = (
"106 357 LINE",
"106 333 LINE",
"389 333 LINE",
"389 357 LINE"
);
},
{
closed = 1;
nodes = (
"78 0 LINE",
"395 0 LINE",
"395 25 LINE",
"78 25 LINE"
);
},
{
closed = 1;
nodes = (
"155 416 OFFCURVE",
"211 407 OFFCURVE",
"211 381 CURVE",
"211 0 LINE",
"235 0 LINE",
"235 384 LINE",
"235 413 OFFCURVE",
"179 427 OFFCURVE",
"179 449 CURVE",
"179 529 OFFCURVE",
"225 560 OFFCURVE",
"293 560 CURVE SMOOTH",
"346 560 OFFCURVE",
"387 547 OFFCURVE",
"414 531 CURVE",
"414 449 LINE",
"439 449 LINE",
"439 548 LINE",
"397 569 OFFCURVE",
"355 585 OFFCURVE",
"295 585 CURVE SMOOTH",
"208 585 OFFCURVE",
"154 538 OFFCURVE",
"155 447 CURVE"
);
}
);
};
layerId = "B29C398E-974A-40D0-A0A0-00935056D4B4";
name = "Light Extended";
paths = (
{
closed = 1;
nodes = (
"173 413 OFFCURVE",
"198 380 OFFCURVE",
"230 348 CURVE",
"169 0 LINE",
"194 0 LINE",
"255 348 LINE",
"224 384 OFFCURVE",
"199 418 OFFCURVE",
"205 455 CURVE",
"213 499 OFFCURVE",
"261 532 OFFCURVE",
"337 532 CURVE SMOOTH",
"416 532 OFFCURVE",
"472 510 OFFCURVE",
"514 490 CURVE",
"528 511 LINE",
"479 534 OFFCURVE",
"420 555 OFFCURVE",
"342 555 CURVE SMOOTH",
"249 555 OFFCURVE",
"190 511 OFFCURVE",
"180 455 CURVE"
);
},
{
closed = 1;
nodes = (
"50 357 LINE",
"46 334 LINE",
"435 334 LINE",
"439 357 LINE"
);
},
{
closed = 1;
nodes = (
"-13 0 LINE",
"381 0 LINE",
"385 23 LINE",
"-9 23 LINE"
);
}
);
width = 546;
},
{
anchors = (
{
name = bottom;
position = "{46, 0}";
},
{
name = top;
position = "{109, 357}";
}
);
layerId = "543F9737-16F7-428D-9F96-2EBD9FC8D3B6";
name = Light;
paths = (
{
closed = 1;
nodes = (
"69 426 OFFCURVE",
"86 387 OFFCURVE",
"115 348 CURVE",
"54 0 LINE",
"79 0 LINE",
"140 348 LINE",
"112 391 OFFCURVE",
"94 427 OFFCURVE",
"101 463 CURVE SMOOTH",
"108 504 OFFCURVE",
"152 532 OFFCURVE",
"200 532 CURVE SMOOTH",
"248 532 OFFCURVE",
"285 519 OFFCURVE",
"312 503 CURVE",
"326 523 LINE",
"296 540 OFFCURVE",
"254 555 OFFCURVE",
"205 555 CURVE SMOOTH",
"140 555 OFFCURVE",
"85 517 OFFCURVE",
"76 463 CURVE SMOOTH"
);
},
{
closed = 1;
nodes = (
"25 357 LINE",
"21 334 LINE",
"247 334 LINE",
"251 357 LINE"
);
},
{
closed = 1;
nodes = (
"-38 0 LINE",
"176 0 LINE",
"180 23 LINE",
"-34 23 LINE"
);
}
);
width = 287;
},
{
anchors = (
{
name = bottom;
position = "{147, 0}";
},
{
name = top;
position = "{253, 601}";
}
);
layerId = "EB38A4D2-CD30-49BA-8E45-1F04A566FFE8";
name = Bold;
paths = (
{
closed = 1;
nodes = (
"45 404 OFFCURVE",
"69 378 OFFCURVE",
"97 360 CURVE",
"42 50 LINE",
"157 50 LINE",
"209 348 LINE",
"181 358 OFFCURVE",
"161 379 OFFCURVE",
"165 402 CURVE SMOOTH",
"170 429 OFFCURVE",
"201 450 OFFCURVE",
"251 450 CURVE SMOOTH",
"283 450 OFFCURVE",
"315 442 OFFCURVE",
"345 428 CURVE",
"395 523 LINE",
"346 541 OFFCURVE",
"301 555 OFFCURVE",
"229 555 CURVE SMOOTH",
"142 555 OFFCURVE",
"64 508 OFFCURVE",
"53 448 CURVE SMOOTH"
);
},
{
closed = 1;
nodes = (
"25 357 LINE",
"9 267 LINE",
"275 267 LINE",
"291 357 LINE"
);
},
{
closed = 1;
nodes = (
"-38 0 LINE",
"231 0 LINE",
"247 90 LINE",
"-22 90 LINE"
);
}
);
width = 332;
}
);
leftKerningGroup = f.alt;
leftMetricsKey = n;
rightKerningGroup = f.alt;
},
{
glyphname = g;
lastChange = "2015-11-11 18:40:05 +0000";
layers = (
{
anchors = (
{
name = bottom;
position = "{275, -164}";
},
{
name = top;
position = "{378, 367}";
}
);
guideLines = (
{
position = "{80, 219}";
}
);
layerId = "B29C398E-974A-40D0-A0A0-00935056D4B4";
name = "Light Extended";
paths = (
{
closed = 1;
nodes = (
"451 -165 OFFCURVE",
"606 -121 OFFCURVE",
"622 -30 CURVE SMOOTH",
"633 31 OFFCURVE",
"577 59 OFFCURVE",
"501 59 CURVE SMOOTH",
"426 59 OFFCURVE",
"257 26 OFFCURVE",
"180 26 CURVE SMOOTH",
"76 26 OFFCURVE",
"49 63 OFFCURVE",
"55 94 CURVE SMOOTH",
"62 136 OFFCURVE",
"113 159 OFFCURVE",
"150 171 CURVE",
"133 180 LINE",
"96 170 OFFCURVE",
"40 141 OFFCURVE",
"31 91 CURVE SMOOTH",
"25 56 OFFCURVE",
"46 4 OFFCURVE",
"174 4 CURVE SMOOTH",
"254 4 OFFCURVE",
"418 36 OFFCURVE",
"497 36 CURVE SMOOTH",
"563 36 OFFCURVE",
"606 17 OFFCURVE",
"598 -30 CURVE SMOOTH",
"584 -107 OFFCURVE",
"440 -143 OFFCURVE",
"260 -143 CURVE SMOOTH",
"78 -143 OFFCURVE",
"13 -100 OFFCURVE",
"23 -46 CURVE SMOOTH",
"29 -14 OFFCURVE",
"61 14 OFFCURVE",
"95 25 CURVE",
"79 34 LINE",
"50 24 OFFCURVE",
"6 -7 OFFCURVE",
"-2 -49 CURVE SMOOTH",
"-13 -115 OFFCURVE",
"60 -165 OFFCURVE",
"258 -165 CURVE SMOOTH"
);
},
{
closed = 1;
nodes = (
"468 108 OFFCURVE",
"592 149 OFFCURVE",
"608 238 CURVE",
"624 327 OFFCURVE",
"514 367 OFFCURVE",
"378 367 CURVE",
"243 367 OFFCURVE",
"119 327 OFFCURVE",
"103 238 CURVE",
"87 149 OFFCURVE",
"197 106 OFFCURVE",
"332 108 CURVE"
);
},
{
closed = 1;
nodes = (
"213 131 OFFCURVE",
"116 168 OFFCURVE",
"128 238 CURVE",
"141 310 OFFCURVE",
"251 344 OFFCURVE",
"374 344 CURVE",
"499 344 OFFCURVE",
"598 310 OFFCURVE",
"585 238 CURVE",
"573 168 OFFCURVE",
"461 131 OFFCURVE",
"336 131 CURVE"
);
},
{
closed = 1;
nodes = (
"591 390 OFFCURVE",
"642 418 OFFCURVE",
"699 421 CURVE",
"704 446 LINE",
"638 443 OFFCURVE",
"578 401 OFFCURVE",
"550 325 CURVE",
"559 309 LINE"
);
}
);
width = 760;
},
{
anchors = (
{
name = bottom;
position = "{129, -169}";
},
{
name = top;
position = "{227, 387}";
}
);
background = {
paths = (
{
closed = 1;
nodes = (
"292 -169 OFFCURVE",
"420 -125 OFFCURVE",
"420 -34 CURVE SMOOTH",
"420 27 OFFCURVE",
"380 55 OFFCURVE",
"319 55 CURVE SMOOTH",
"259 55 OFFCURVE",
"200 22 OFFCURVE",
"128 22 CURVE SMOOTH",
"69 22 OFFCURVE",
"46 59 OFFCURVE",
"46 90 CURVE SMOOTH",
"46 132 OFFCURVE",
"93 155 OFFCURVE",
"128 167 CURVE",
"109 176 LINE",
"74 166 OFFCURVE",
"23 137 OFFCURVE",
"23 87 CURVE SMOOTH",
"23 52 OFFCURVE",
"43 0 OFFCURVE",
"126 0 CURVE SMOOTH",
"201 0 OFFCURVE",
"255 32 OFFCURVE",
"319 32 CURVE SMOOTH",
"370 32 OFFCURVE",
"396 13 OFFCURVE",
"396 -34 CURVE SMOOTH",
"396 -111 OFFCURVE",
"283 -147 OFFCURVE",
"198 -147 CURVE SMOOTH",
"101 -147 OFFCURVE",
"39 -104 OFFCURVE",
"39 -50 CURVE SMOOTH",
"39 -18 OFFCURVE",
"66 10 OFFCURVE",
"99 21 CURVE",
"81 30 LINE",
"54 20 OFFCURVE",
"15 -11 OFFCURVE",
"15 -53 CURVE SMOOTH",
"15 -119 OFFCURVE",
"87 -169 OFFCURVE",
"195 -169 CURVE SMOOTH"
);
},
{
closed = 1;
nodes = (
"292 118 OFFCURVE",
"369 159 OFFCURVE",
"369 248 CURVE SMOOTH",
"369 337 OFFCURVE",
"292 377 OFFCURVE",
"221 377 CURVE SMOOTH",
"150 377 OFFCURVE",
"73 336 OFFCURVE",
"73 247 CURVE SMOOTH",
"73 158 OFFCURVE",
"150 118 OFFCURVE",
"221 118 CURVE SMOOTH"
);
},
{
closed = 1;
nodes = (
"161 141 OFFCURVE",
"96 175 OFFCURVE",
"96 247 CURVE SMOOTH",
"96 317 OFFCURVE",
"161 354 OFFCURVE",
"221 354 CURVE SMOOTH",
"281 354 OFFCURVE",
"346 320 OFFCURVE",
"346 248 CURVE SMOOTH",
"346 178 OFFCURVE",
"281 141 OFFCURVE",
"221 141 CURVE SMOOTH"
);
},
{
closed = 1;
nodes = (
"428 456 LINE",
"363 453 OFFCURVE",
"320 401 OFFCURVE",
"306 345 CURVE",
"317 329 LINE",
"335 390 OFFCURVE",
"371 428 OFFCURVE",
"428 431 CURVE"
);
}
);
};
layerId = "543F9737-16F7-428D-9F96-2EBD9FC8D3B6";
name = Light;
paths = (
{
closed = 1;
nodes = (
"218 -169 OFFCURVE",
"338 -115 OFFCURVE",
"354 -24 CURVE SMOOTH",
"363 27 OFFCURVE",
"328 55 OFFCURVE",
"276 55 CURVE SMOOTH",
"211 55 OFFCURVE",
"141 22 OFFCURVE",
"79 22 CURVE SMOOTH",
"20 22 OFFCURVE",
"4 51 OFFCURVE",
"10 82 CURVE SMOOTH",
"16 119 OFFCURVE",
"51 145 OFFCURVE",
"94 164 CURVE",
"75 173 LINE",
"32 154 OFFCURVE",
"-9 121 OFFCURVE",
"-17 76 CURVE SMOOTH",
"-23 41 OFFCURVE",
"-3 -2 OFFCURVE",
"75 -2 CURVE SMOOTH",
"140 -2 OFFCURVE",
"203 32 OFFCURVE",
"267 32 CURVE SMOOTH",
"308 32 OFFCURVE",
"335 13 OFFCURVE",
"329 -24 CURVE SMOOTH",
"315 -101 OFFCURVE",
"212 -147 OFFCURVE",
"114 -147 CURVE SMOOTH",
"25 -147 OFFCURVE",
"-32 -109 OFFCURVE",
"-23 -55 CURVE SMOOTH",
"-16 -18 OFFCURVE",
"16 10 OFFCURVE",
"50 21 CURVE",
"33 30 LINE",
"5 20 OFFCURVE",
"-40 -11 OFFCURVE",
"-48 -58 CURVE SMOOTH",
"-60 -124 OFFCURVE",
"6 -169 OFFCURVE",
"107 -169 CURVE SMOOTH"
);
},
{
closed = 1;
nodes = (
"258 108 OFFCURVE",
"333 155 OFFCURVE",
"348 238 CURVE SMOOTH",
"363 322 OFFCURVE",
"294 367 OFFCURVE",
"223 367 CURVE SMOOTH",
"152 367 OFFCURVE",
"67 321 OFFCURVE",
"52 237 CURVE SMOOTH",
"37 153 OFFCURVE",
"105 108 OFFCURVE",
"177 108 CURVE SMOOTH"
);
},
{
closed = 1;
nodes = (
"122 131 OFFCURVE",
"64 165 OFFCURVE",
"77 237 CURVE SMOOTH",
"89 307 OFFCURVE",
"161 344 OFFCURVE",
"219 344 CURVE SMOOTH",
"277 344 OFFCURVE",
"336 310 OFFCURVE",
"323 238 CURVE SMOOTH",
"311 168 OFFCURVE",
"249 131 OFFCURVE",
"181 131 CURVE SMOOTH"
);
},
{
closed = 1;
nodes = (
"344 380 OFFCURVE",
"374 403 OFFCURVE",
"427 406 CURVE",
"431 431 LINE",
"371 428 OFFCURVE",
"328 391 OFFCURVE",
"299 335 CURVE",
"310 319 LINE"
);
}
);
width = 431;
},
{
anchors = (
{
name = bottom;
position = "{134, -161}";
},
{
name = top;
position = "{216, 367}";
}
);
layerId = "EB38A4D2-CD30-49BA-8E45-1F04A566FFE8";
name = Bold;
paths = (
{
closed = 1;
nodes = (
"222 -162 OFFCURVE",
"341 -110 OFFCURVE",
"355 -26 CURVE SMOOTH",
"368 43 OFFCURVE",
"323 78 OFFCURVE",
"252 78 CURVE SMOOTH",
"188 78 OFFCURVE",
"156 76 OFFCURVE",
"106 76 CURVE SMOOTH",
"87 76 OFFCURVE",
"67 80 OFFCURVE",
"71 103 CURVE SMOOTH",
"74 121 OFFCURVE",
"107 141 OFFCURVE",
"128 151 CURVE",
"83 182 LINE",
"33 167 OFFCURVE",
"-23 131 OFFCURVE",
"-33 76 CURVE SMOOTH",
"-43 18 OFFCURVE",
"11 -14 OFFCURVE",
"67 -14 CURVE SMOOTH",
"133 -14 OFFCURVE",
"175 -10 OFFCURVE",
"211 -10 CURVE SMOOTH",
"240 -10 OFFCURVE",
"253 -15 OFFCURVE",
"250 -33 CURVE SMOOTH",
"246 -55 OFFCURVE",
"183 -70 OFFCURVE",
"119 -70 CURVE SMOOTH",
"55 -70 OFFCURVE",
"29 -58 OFFCURVE",
"33 -34 CURVE SMOOTH",
"37 -12 OFFCURVE",
"56 9 OFFCURVE",
"67 15 CURVE",
"15 39 LINE",
"-21 20 OFFCURVE",
"-61 -13 OFFCURVE",
"-69 -59 CURVE SMOOTH",
"-82 -128 OFFCURVE",
"-12 -162 OFFCURVE",
"86 -162 CURVE SMOOTH"
);
},
{
closed = 1;
nodes = (
"245 108 OFFCURVE",
"351 151 OFFCURVE",
"366 238 CURVE SMOOTH",
"381 324 OFFCURVE",
"300 367 OFFCURVE",
"216 367 CURVE SMOOTH",
"139 367 OFFCURVE",
"36 323 OFFCURVE",
"21 237 CURVE SMOOTH",
"6 151 OFFCURVE",
"87 108 OFFCURVE",
"170 108 CURVE SMOOTH"
);
},
{
closed = 1;
nodes = (
"145 187 OFFCURVE",
"128 209 OFFCURVE",
"133 237 CURVE SMOOTH",
"138 264 OFFCURVE",
"163 288 OFFCURVE",
"203 288 CURVE SMOOTH",
"242 288 OFFCURVE",
"259 266 OFFCURVE",
"254 238 CURVE SMOOTH",
"249 211 OFFCURVE",
"222 187 OFFCURVE",
"185 187 CURVE SMOOTH"
);
},
{
closed = 1;
nodes = (
"343 338 OFFCURVE",
"371 352 OFFCURVE",
"429 351 CURVE",
"446 449 LINE",
"380 446 OFFCURVE",
"305 415 OFFCURVE",
"278 335 CURVE",
"318 295 LINE"
);
}
);
width = 421;
}
);
leftKerningGroup = g;
rightKerningGroup = g;
unicode = 0067;
},
{
glyphname = g.alt;
lastChange = "2015-11-11 18:40:05 +0000";
layers = (
{
anchors = (
{
name = bottom;
position = "{298, -210}";
},
{
name = top;
position = "{403, 387}";
}
);
background = {
paths = (
{
closed = 1;
nodes = (
"550 -27 OFFCURVE",
"692 42 OFFCURVE",
"692 175 CURVE",
"692 312 OFFCURVE",
"550 377 OFFCURVE",
"372 377 CURVE",
"194 376 OFFCURVE",
"53 312 OFFCURVE",
"53 175 CURVE",
"53 42 OFFCURVE",
"194 -28 OFFCURVE",
"372 -27 CURVE"
);
},
{
closed = 1;
nodes = (
"540 353 OFFCURVE",
"667 295 OFFCURVE",
"667 175 CURVE",
"667 60 OFFCURVE",
"540 -4 OFFCURVE",
"372 -4 CURVE",
"204 -4 OFFCURVE",
"77 60 OFFCURVE",
"77 175 CURVE",
"77 295 OFFCURVE",
"204 352 OFFCURVE",
"372 353 CURVE"
);
}
);
};
layerId = "B29C398E-974A-40D0-A0A0-00935056D4B4";
name = "Light Extended";
paths = (
{
closed = 1;
nodes = (
"492 -210 OFFCURVE",
"603 -121 OFFCURVE",
"626 18 CURVE",
"686 357 LINE",
"659 347 LINE",
"601 17 LINE",
"579 -106 OFFCURVE",
"479 -187 OFFCURVE",
"315 -187 CURVE SMOOTH",
"209 -187 OFFCURVE",
"93 -154 OFFCURVE",
"25 -120 CURVE",
"14 -143 LINE",
"82 -177 OFFCURVE",
"199 -210 OFFCURVE",
"310 -210 CURVE SMOOTH"
);
},
{
closed = 1;
nodes = (
"373 -11 OFFCURVE",
"506 53 OFFCURVE",
"637 137 CURVE",
"641 160 LINE",
"501 72 OFFCURVE",
"361 12 OFFCURVE",
"247 12 CURVE",
"114 12 OFFCURVE",
"45 73 OFFCURVE",
"60 161 CURVE",
"80 271 OFFCURVE",
"219 344 OFFCURVE",
"371 343 CURVE",
"490 344 OFFCURVE",
"595 301 OFFCURVE",
"662 261 CURVE",
"666 283 LINE",
"601 324 OFFCURVE",
"504 366 OFFCURVE",
"375 366 CURVE",
"212 366 OFFCURVE",
"58 289 OFFCURVE",
"35 161 CURVE",
"16 53 OFFCURVE",
"100 -11 OFFCURVE",
"243 -11 CURVE"
);
}
);
width = 816;
},
{
anchors = (
{
name = bottom;
position = "{122, -210}";
},
{
name = top;
position = "{227, 387}";
}
);
layerId = "543F9737-16F7-428D-9F96-2EBD9FC8D3B6";
name = Light;
paths = (
{
closed = 1;
nodes = (
"228 -190 OFFCURVE",
"298 -129 OFFCURVE",
"315 -32 CURVE SMOOTH",
"382 344 LINE",
"356 339 LINE",
"290 -33 LINE SMOOTH",
"275 -121 OFFCURVE",
"215 -167 OFFCURVE",
"139 -167 CURVE SMOOTH",
"82 -167 OFFCURVE",
"39 -147 OFFCURVE",
"-8 -123 CURVE",
"-19 -145 LINE",
"28 -169 OFFCURVE",
"72 -190 OFFCURVE",
"134 -190 CURVE SMOOTH"
);
},
{
closed = 1;
nodes = (
"215 -10 OFFCURVE",
"278 31 OFFCURVE",
"321 67 CURVE",
"326 94 LINE",
"276 52 OFFCURVE",
"220 14 OFFCURVE",
"150 13 CURVE SMOOTH",
"72 12 OFFCURVE",
"20 72 OFFCURVE",
"37 171 CURVE SMOOTH",
"55 272 OFFCURVE",
"138 345 OFFCURVE",
"221 345 CURVE SMOOTH",
"288 345 OFFCURVE",
"330 311 OFFCURVE",
"363 268 CURVE",
"367 291 LINE",
"334 333 OFFCURVE",
"292 367 OFFCURVE",
"225 367 CURVE SMOOTH",
"131 367 OFFCURVE",
"33 290 OFFCURVE",
"12 170 CURVE SMOOTH",
"-8 59 OFFCURVE",
"55 -10 OFFCURVE",
"146 -10 CURVE SMOOTH"
);
}
);
width = 469;
},
{
anchors = (
{
name = bottom;
position = "{148, -190}";
},
{
name = top;
position = "{244, 365}";
}
);
layerId = "EB38A4D2-CD30-49BA-8E45-1F04A566FFE8";
name = Bold;
paths = (
{
closed = 1;
nodes = (
"237 -190 OFFCURVE",
"353 -134 OFFCURVE",
"376 -8 CURVE SMOOTH",
"443 372 LINE",
"324 350 LINE",
"261 -7 LINE SMOOTH",
"251 -65 OFFCURVE",
"195 -89 OFFCURVE",
"153 -89 CURVE SMOOTH",
"104 -89 OFFCURVE",
"63 -72 OFFCURVE",
"23 -46 CURVE",
"-34 -138 LINE",
"18 -167 OFFCURVE",
"70 -190 OFFCURVE",
"148 -190 CURVE SMOOTH"
);
},
{
closed = 1;
nodes = (
"236 -11 OFFCURVE",
"301 58 OFFCURVE",
"346 98 CURVE",
"361 181 LINE",
"312 139 OFFCURVE",
"247 87 OFFCURVE",
"193 86 CURVE SMOOTH",
"134 85 OFFCURVE",
"108 125 OFFCURVE",
"117 177 CURVE SMOOTH",
"127 232 OFFCURVE",
"172 272 OFFCURVE",
"235 272 CURVE SMOOTH",
"288 272 OFFCURVE",
"335 225 OFFCURVE",
"359 182 CURVE",
"373 259 LINE",
"349 301 OFFCURVE",
"313 367 OFFCURVE",
"222 367 CURVE SMOOTH",
"103 367 OFFCURVE",
"8 285 OFFCURVE",
"-11 177 CURVE SMOOTH",
"-30 69 OFFCURVE",
"40 -11 OFFCURVE",
"142 -11 CURVE SMOOTH"
);
}
);
width = 476;
}
);
leftKerningGroup = g.alt;
leftMetricsKey = "=q";
rightKerningGroup = g.alt;
},
{
glyphname = h;
lastChange = "2015-11-11 18:40:05 +0000";
layers = (
{
anchors = (
{
name = bottom;
position = "{387, 0}";
},
{
name = center;
position = "{419, 179}";
},
{
name = top;
position = "{452, 367}";
}
);
layerId = "B29C398E-974A-40D0-A0A0-00935056D4B4";
name = "Light Extended";
paths = (
{
closed = 1;
nodes = (
"674 0 LINE",
"698 135 LINE",
"719 257 OFFCURVE",
"690 367 OFFCURVE",
"534 367 CURVE SMOOTH",
"398 367 OFFCURVE",
"256 263 OFFCURVE",
"183 211 CURVE",
"179 188 LINE",
"252 239 OFFCURVE",
"394 344 OFFCURVE",
"530 344 CURVE SMOOTH",
"676 344 OFFCURVE",
"691 237 OFFCURVE",
"673 135 CURVE",
"649 0 LINE"
);
},
{
closed = 1;
nodes = (
"341 0 LINE",
"345 23 LINE",
"-44 23 LINE",
"-48 0 LINE"
);
},
{
closed = 1;
nodes = (
"856 0 LINE",
"860 23 LINE",
"471 23 LINE",
"467 0 LINE"
);
},
{
closed = 1;
nodes = (
"44 520 LINE",
"40 497 LINE",
"222 497 LINE",
"134 0 LINE",
"159 0 LINE",
"251 520 LINE"
);
}
);
width = 929;
},
{
anchors = (
{
name = bottom;
position = "{225, 0}";
},
{
name = center;
position = "{257, 179}";
},
{
name = top;
position = "{293, 387}";
}
);
background = {
paths = (
{
closed = 1;
nodes = (
"127 0 LINE",
"151 0 LINE",
"151 520 LINE",
"127 520 LINE"
);
},
{
closed = 1;
nodes = (
"35 23 LINE",
"35 0 LINE",
"227 0 LINE",
"227 23 LINE"
);
},
{
closed = 1;
nodes = (
"35 520 LINE",
"35 497 LINE",
"151 497 LINE",
"151 520 LINE"
);
},
{
closed = 1;
nodes = (
"265 367 OFFCURVE",
"205 305 OFFCURVE",
"138 218 CURVE",
"138 193 LINE",
"207 279 OFFCURVE",
"269 343 OFFCURVE",
"338 343 CURVE SMOOTH",
"400 343 OFFCURVE",
"432 303 OFFCURVE",
"432 233 CURVE SMOOTH",
"432 0 LINE",
"456 0 LINE",
"456 233 LINE SMOOTH",
"456 324 OFFCURVE",
"413 367 OFFCURVE",
"342 367 CURVE SMOOTH"
);
},
{
closed = 1;
nodes = (
"354 23 LINE",
"354 0 LINE",
"540 0 LINE",
"540 23 LINE"
);
}
);
};
layerId = "543F9737-16F7-428D-9F96-2EBD9FC8D3B6";
name = Light;
paths = (
{
closed = 1;
nodes = (
"369 0 LINE",
"410 234 LINE SMOOTH",
"426 324 OFFCURVE",
"387 367 OFFCURVE",
"318 367 CURVE SMOOTH",
"244 367 OFFCURVE",
"171 315 OFFCURVE",
"105 254 CURVE",
"101 231 LINE",
"168 294 OFFCURVE",
"246 344 OFFCURVE",
"309 344 CURVE SMOOTH",
"373 344 OFFCURVE",
"398 304 OFFCURVE",
"384 229 CURVE SMOOTH",
"344 0 LINE"
);
},
{
closed = 1;
nodes = (
"149 0 LINE",
"153 23 LINE",
"-39 23 LINE",
"-43 0 LINE"
);
},
{
closed = 1;
nodes = (
"451 0 LINE",
"455 23 LINE",
"273 23 LINE",
"269 0 LINE"
);
},
{
closed = 1;
nodes = (
"49 520 LINE",
"45 497 LINE",
"137 497 LINE",
"49 0 LINE",
"74 0 LINE",
"166 520 LINE"
);
}
);
width = 531;
},
{
anchors = (
{
name = bottom;
position = "{225, 0}";
},
{
name = center;
position = "{257, 179}";
},
{
name = top;
position = "{289, 363}";
}
);
layerId = "EB38A4D2-CD30-49BA-8E45-1F04A566FFE8";
name = Bold;
paths = (
{
closed = 1;
nodes = (
"419 0 LINE",
"452 189 LINE SMOOTH",
"473 306 OFFCURVE",
"442 366 OFFCURVE",
"351 366 CURVE SMOOTH",
"273 366 OFFCURVE",
"215 321 OFFCURVE",
"127 227 CURVE",
"111 137 LINE",
"179 217 OFFCURVE",
"234 263 OFFCURVE",
"283 263 CURVE SMOOTH",
"326 263 OFFCURVE",
"345 233 OFFCURVE",
"337 189 CURVE SMOOTH",
"304 0 LINE"
);
},
{
closed = 1;
nodes = (
"188 0 LINE",
"204 93 LINE",
"-39 93 LINE",
"-55 0 LINE"
);
},
{
closed = 1;
nodes = (
"480 0 LINE",
"496 93 LINE",
"263 93 LINE",
"247 0 LINE"
);
},
{
closed = 1;
nodes = (
"37 520 LINE",
"20 427 LINE",
"91 427 LINE",
"16 0 LINE",
"132 0 LINE",
"224 520 LINE"
);
}
);
width = 539;
}
);
leftKerningGroup = h;
rightKerningGroup = n;
rightMetricsKey = "=n";
unicode = 0068;
},
{
glyphname = hbar;
lastChange = "2015-11-11 18:40:05 +0000";
layers = (
{
anchors = (
{
name = bottom;
position = "{387, 0}";
},
{
name = center;
position = "{419, 179}";
},
{
name = top;
position = "{452, 367}";
}
);
layerId = "B29C398E-974A-40D0-A0A0-00935056D4B4";
name = "Light Extended";
paths = (
{
closed = 1;
nodes = (
"674 0 LINE",
"698 135 LINE",
"719 257 OFFCURVE",
"690 367 OFFCURVE",
"534 367 CURVE SMOOTH",
"398 367 OFFCURVE",
"256 263 OFFCURVE",
"183 211 CURVE",
"179 188 LINE",
"252 239 OFFCURVE",
"394 344 OFFCURVE",
"530 344 CURVE SMOOTH",
"676 344 OFFCURVE",
"691 237 OFFCURVE",
"673 135 CURVE",
"649 0 LINE"
);
},
{
closed = 1;
nodes = (
"341 0 LINE",
"345 23 LINE",
"-44 23 LINE",
"-48 0 LINE"
);
},
{
closed = 1;
nodes = (
"159 0 LINE",
"251 520 LINE",
"226 520 LINE",
"134 0 LINE"
);
},
{
closed = 1;
nodes = (
"856 0 LINE",
"860 23 LINE",
"471 23 LINE",
"467 0 LINE"
);
},
{
closed = 1;
nodes = (
"44 520 LINE",
"40 497 LINE",
"234 497 LINE",
"238 520 LINE"
);
},
{
closed = 1;
nodes = (
"765 434 LINE",
"768 456 LINE",
"32 456 LINE",
"29 434 LINE"
);
}
);
width = 886;
},
{
anchors = (
{
name = bottom;
position = "{225, 0}";
},
{
name = center;
position = "{257, 179}";
},
{
name = top;
position = "{293, 387}";
}
);
layerId = "543F9737-16F7-428D-9F96-2EBD9FC8D3B6";
name = Light;
paths = (
{
closed = 1;
nodes = (
"369 0 LINE",
"410 234 LINE SMOOTH",
"426 324 OFFCURVE",
"387 367 OFFCURVE",
"318 367 CURVE SMOOTH",
"244 367 OFFCURVE",
"171 315 OFFCURVE",
"105 254 CURVE",
"101 231 LINE",
"168 294 OFFCURVE",
"246 344 OFFCURVE",
"309 344 CURVE SMOOTH",
"373 344 OFFCURVE",
"398 304 OFFCURVE",
"384 229 CURVE SMOOTH",
"344 0 LINE"
);
},
{
closed = 1;
nodes = (
"149 0 LINE",
"153 23 LINE",
"-39 23 LINE",
"-43 0 LINE"
);
},
{
closed = 1;
nodes = (
"74 0 LINE",
"166 520 LINE",
"141 520 LINE",
"49 0 LINE"
);
},
{
closed = 1;
nodes = (
"451 0 LINE",
"455 23 LINE",
"273 23 LINE",
"269 0 LINE"
);
},
{
closed = 1;
nodes = (
"49 520 LINE",
"45 497 LINE",
"153 497 LINE",
"157 520 LINE"
);
},
{
closed = 1;
nodes = (
"462 434 LINE",
"465 456 LINE",
"55 456 LINE",
"52 434 LINE"
);
}
);
width = 550;
},
{
anchors = (
{
name = bottom;
position = "{225, 0}";
},
{
name = center;
position = "{257, 179}";
},
{
name = top;
position = "{289, 363}";
}
);
layerId = "EB38A4D2-CD30-49BA-8E45-1F04A566FFE8";
name = Bold;
paths = (
{
closed = 1;
nodes = (
"419 0 LINE",
"452 189 LINE SMOOTH",
"473 306 OFFCURVE",
"442 366 OFFCURVE",
"351 366 CURVE SMOOTH",
"273 366 OFFCURVE",
"215 321 OFFCURVE",
"127 227 CURVE",
"111 137 LINE",
"179 217 OFFCURVE",
"234 263 OFFCURVE",
"283 263 CURVE SMOOTH",
"326 263 OFFCURVE",
"345 233 OFFCURVE",
"337 189 CURVE SMOOTH",
"304 0 LINE"
);
},
{
closed = 1;
nodes = (
"188 0 LINE",
"204 93 LINE",
"-39 93 LINE",
"-55 0 LINE"
);
},
{
closed = 1;
nodes = (
"132 0 LINE",
"224 520 LINE",
"108 520 LINE",
"16 0 LINE"
);
},
{
closed = 1;
nodes = (
"480 0 LINE",
"496 93 LINE",
"263 93 LINE",
"247 0 LINE"
);
},
{
closed = 1;
nodes = (
"108 520 LINE",
"91 427 LINE",
"204 427 LINE",
"221 520 LINE"
);
},
{
closed = 1;
nodes = (
"324 396 LINE",
"337 469 LINE",
"28 469 LINE",
"15 396 LINE"
);
}
);
width = 537;
},
{
associatedMasterId = "B29C398E-974A-40D0-A0A0-00935056D4B4";
components = (
{
name = h;
}
);
layerId = "FA480B27-EBBD-4830-9868-98507D39050C";
name = SemiBold;
paths = (
{
closed = 1;
nodes = (
"5 426 LINE",
"5 374 LINE",
"465 374 LINE",
"465 426 LINE"
);
}
);
width = 539;
}
);
leftKerningGroup = h;
rightKerningGroup = n;
unicode = 0127;
},
{
glyphname = i;
lastChange = "2015-11-11 18:40:05 +0000";
layers = (
{
anchors = (
{
name = bottom;
position = "{154, 0}";
},
{
name = ogonek;
position = "{349, 10}";
},
{
name = top;
position = "{227, 357}";
}
);
layerId = "B29C398E-974A-40D0-A0A0-00935056D4B4";
name = "Light Extended";
paths = (
{
closed = 1;
nodes = (
"194 0 LINE",
"257 357 LINE",
"232 357 LINE",
"169 0 LINE"
);
},
{
closed = 1;
nodes = (
"376 0 LINE",
"380 23 LINE",
"-9 23 LINE",
"-13 0 LINE"
);
},
{
closed = 1;
nodes = (
"253 334 LINE",
"257 357 LINE",
"50 357 LINE",
"46 334 LINE"
);
},
{
closed = 1;
nodes = (
"285 469 OFFCURVE",
"303 482 OFFCURVE",
"306 499 CURVE",
"309 517 OFFCURVE",
"296 530 OFFCURVE",
"265 530 CURVE",
"235 530 OFFCURVE",
"215 517 OFFCURVE",
"212 499 CURVE",
"209 482 OFFCURVE",
"224 469 OFFCURVE",
"254 469 CURVE"
);
}
);
width = 469;
},
{
anchors = (
{
name = bottom;
position = "{57, 0}";
},
{
name = ogonek;
position = "{170, 0}";
},
{
name = top;
position = "{130, 357}";
}
);
layerId = "543F9737-16F7-428D-9F96-2EBD9FC8D3B6";
name = Light;
paths = (
{
closed = 1;
nodes = (
"79 0 LINE",
"142 357 LINE",
"117 357 LINE",
"54 0 LINE"
);
},
{
closed = 1;
nodes = (
"171 0 LINE",
"175 23 LINE",
"-34 23 LINE",
"-38 0 LINE"
);
},
{
closed = 1;
nodes = (
"138 334 LINE",
"142 357 LINE",
"25 357 LINE",
"21 334 LINE"
);
},
{
closed = 1;
nodes = (
"163 469 OFFCURVE",
"181 482 OFFCURVE",
"184 499 CURVE",
"187 517 OFFCURVE",
"174 530 OFFCURVE",
"150 530 CURVE",
"128 530 OFFCURVE",
"108 517 OFFCURVE",
"105 499 CURVE",
"102 482 OFFCURVE",
"117 469 OFFCURVE",
"139 469 CURVE"
);
}
);
width = 254;
},
{
anchors = (
{
name = bottom;
position = "{72, 0}";
},
{
name = ogonek;
position = "{220, 0}";
},
{
name = top;
position = "{145, 357}";
}
);
layerId = "EB38A4D2-CD30-49BA-8E45-1F04A566FFE8";
name = Bold;
paths = (
{
closed = 1;
nodes = (
"153 30 LINE",
"211 357 LINE",
"96 357 LINE",
"38 30 LINE"
);
},
{
closed = 1;
nodes = (
"220 0 LINE",
"236 90 LINE",
"-22 90 LINE",
"-38 0 LINE"
);
},
{
closed = 1;
nodes = (
"163 267 LINE",
"179 357 LINE",
"25 357 LINE",
"9 267 LINE"
);
},
{
closed = 1;
nodes = (
"201 412 OFFCURVE",
"236 437 OFFCURVE",
"242 470 CURVE",
"248 505 OFFCURVE",
"222 530 OFFCURVE",
"178 530 CURVE",
"137 530 OFFCURVE",
"99 505 OFFCURVE",
"93 470 CURVE",
"87 437 OFFCURVE",
"116 412 OFFCURVE",
"157 412 CURVE"
);
}
);
width = 285;
}
);
leftKerningGroup = i;
leftMetricsKey = "=n";
rightKerningGroup = i;
unicode = 0069;
},
{
glyphname = idotless;
lastChange = "2015-11-11 18:40:05 +0000";
layers = (
{
anchors = (
{
name = bottom;
position = "{142, 0}";
},
{
name = ogonek;
position = "{343, 0}";
},
{
name = top;
position = "{215, 357}";
}
);
layerId = "B29C398E-974A-40D0-A0A0-00935056D4B4";
name = "Light Extended";
paths = (
{
closed = 1;
nodes = (
"182 0 LINE",
"245 357 LINE",
"220 357 LINE",
"157 0 LINE"
);
},
{
closed = 1;
nodes = (
"364 0 LINE",
"368 23 LINE",
"-21 23 LINE",
"-25 0 LINE"
);
},
{
closed = 1;
nodes = (
"241 334 LINE",
"245 357 LINE",
"38 357 LINE",
"34 334 LINE"
);
}
);
width = 427;
},
{
anchors = (
{
name = bottom;
position = "{57, 0}";
},
{
name = ogonek;
position = "{168, 0}";
},
{
name = top;
position = "{130, 357}";
}
);
layerId = "543F9737-16F7-428D-9F96-2EBD9FC8D3B6";
name = Light;
paths = (
{
closed = 1;
nodes = (
"79 0 LINE",
"142 357 LINE",
"117 357 LINE",
"54 0 LINE"
);
},
{
closed = 1;
nodes = (
"171 0 LINE",
"175 23 LINE",
"-34 23 LINE",
"-38 0 LINE"
);
},
{
closed = 1;
nodes = (
"138 334 LINE",
"142 357 LINE",
"25 357 LINE",
"21 334 LINE"
);
}
);
width = 254;
},
{
anchors = (
{
name = bottom;
position = "{95, 0}";
},
{
name = ogonek;
position = "{219, 0}";
},
{
name = top;
position = "{142, 357}";
}
);
layerId = "EB38A4D2-CD30-49BA-8E45-1F04A566FFE8";
name = Bold;
paths = (
{
closed = 1;
nodes = (
"153 30 LINE",
"211 357 LINE",
"96 357 LINE",
"38 30 LINE"
);
},
{
closed = 1;
nodes = (
"220 0 LINE",
"236 90 LINE",
"-22 90 LINE",
"-38 0 LINE"
);
},
{
closed = 1;
nodes = (
"163 267 LINE",
"179 357 LINE",
"25 357 LINE",
"9 267 LINE"
);
}
);
width = 285;
}
);
leftKerningGroup = idotless;
leftMetricsKey = "=i";
rightKerningGroup = idotless;
rightMetricsKey = "=i";
unicode = 0131;
},
{
glyphname = j;
lastChange = "2015-11-11 18:40:05 +0000";
layers = (
{
anchors = (
{
name = bottom;
position = "{128, 0}";
},
{
name = top;
position = "{191, 357}";
}
);
layerId = "B29C398E-974A-40D0-A0A0-00935056D4B4";
name = "Light Extended";
paths = (
{
closed = 1;
nodes = (
"103 -190 OFFCURVE",
"163 -129 OFFCURVE",
"180 -32 CURVE SMOOTH",
"247 344 LINE",
"222 344 LINE",
"155 -33 LINE SMOOTH",
"140 -121 OFFCURVE",
"90 -167 OFFCURVE",
"14 -167 CURVE SMOOTH",
"-33 -167 OFFCURVE",
"-76 -156 OFFCURVE",
"-116 -143 CURVE",
"-127 -165 LINE",
"-87 -178 OFFCURVE",
"-43 -190 OFFCURVE",
"9 -190 CURVE SMOOTH"
);
},
{
closed = 1;
nodes = (
"245 334 LINE",
"249 357 LINE",
"42 357 LINE",
"38 334 LINE"
);
},
{
closed = 1;
nodes = (
"278 469 OFFCURVE",
"296 482 OFFCURVE",
"299 499 CURVE",
"302 517 OFFCURVE",
"289 530 OFFCURVE",
"258 530 CURVE",
"228 530 OFFCURVE",
"207 517 OFFCURVE",
"204 499 CURVE",
"201 482 OFFCURVE",
"217 469 OFFCURVE",
"247 469 CURVE"
);
}
);
width = 404;
},
{
anchors = (
{
name = bottom;
position = "{68, 0}";
},
{
name = top;
position = "{131, 357}";
}
);
layerId = "543F9737-16F7-428D-9F96-2EBD9FC8D3B6";
name = Light;
paths = (
{
closed = 1;
nodes = (
"6 -190 OFFCURVE",
"54 -145 OFFCURVE",
"66 -78 CURVE SMOOTH",
"143 357 LINE",
"118 357 LINE",
"41 -79 LINE SMOOTH",
"31 -137 OFFCURVE",
"-7 -167 OFFCURVE",
"-52 -167 CURVE SMOOTH",
"-85 -167 OFFCURVE",
"-114 -156 OFFCURVE",
"-132 -146 CURVE",
"-143 -168 LINE",
"-125 -177 OFFCURVE",
"-95 -190 OFFCURVE",
"-57 -190 CURVE SMOOTH"
);
},
{
closed = 1;
nodes = (
"139 334 LINE",
"143 357 LINE",
"26 357 LINE",
"22 334 LINE"
);
},
{
closed = 1;
nodes = (
"163 469 OFFCURVE",
"181 482 OFFCURVE",
"184 499 CURVE",
"187 517 OFFCURVE",
"174 530 OFFCURVE",
"150 530 CURVE",
"128 530 OFFCURVE",
"108 517 OFFCURVE",
"105 499 CURVE",
"102 482 OFFCURVE",
"117 469 OFFCURVE",
"139 469 CURVE"
);
}
);
width = 244;
},
{
anchors = (
{
name = bottom;
position = "{83, 0}";
},
{
name = top;
position = "{146, 357}";
}
);
layerId = "EB38A4D2-CD30-49BA-8E45-1F04A566FFE8";
name = Bold;
paths = (
{
closed = 1;
nodes = (
"40 -190 OFFCURVE",
"123 -128 OFFCURVE",
"145 -7 CURVE SMOOTH",
"209 357 LINE",
"96 357 LINE",
"31 -9 LINE SMOOTH",
"22 -61 OFFCURVE",
"-7 -89 OFFCURVE",
"-44 -89 CURVE SMOOTH",
"-68 -89 OFFCURVE",
"-82 -84 OFFCURVE",
"-108 -75 CURVE",
"-153 -170 LINE",
"-127 -178 OFFCURVE",
"-106 -190 OFFCURVE",
"-56 -190 CURVE SMOOTH"
);
},
{
closed = 1;
nodes = (
"163 267 LINE",
"179 357 LINE",
"25 357 LINE",
"9 267 LINE"
);
},
{
closed = 1;
nodes = (
"201 412 OFFCURVE",
"236 437 OFFCURVE",
"242 470 CURVE",
"248 505 OFFCURVE",
"222 530 OFFCURVE",
"178 530 CURVE",
"137 530 OFFCURVE",
"99 505 OFFCURVE",
"93 470 CURVE",
"87 437 OFFCURVE",
"116 412 OFFCURVE",
"157 412 CURVE"
);
}
);
width = 258;
}
);
leftKerningGroup = j;
rightKerningGroup = j;
rightMetricsKey = g.alt;
unicode = 006A;
},
{
glyphname = jdotless;
lastChange = "2015-11-11 18:40:05 +0000";
layers = (
{
anchors = (
{
name = bottom;
position = "{128, 0}";
},
{
name = top;
position = "{191, 357}";
}
);
layerId = "B29C398E-974A-40D0-A0A0-00935056D4B4";
name = "Light Extended";
paths = (
{
closed = 1;
nodes = (
"99 -210 OFFCURVE",
"161 -149 OFFCURVE",
"177 -52 CURVE SMOOTH",
"247 344 LINE",
"222 344 LINE",
"152 -53 LINE SMOOTH",
"136 -141 OFFCURVE",
"86 -187 OFFCURVE",
"10 -187 CURVE SMOOTH",
"-37 -187 OFFCURVE",
"-80 -176 OFFCURVE",
"-120 -163 CURVE",
"-131 -185 LINE",
"-91 -198 OFFCURVE",
"-47 -210 OFFCURVE",
"5 -210 CURVE SMOOTH"
);
},
{
closed = 1;
nodes = (
"245 334 LINE",
"249 357 LINE",
"42 357 LINE",
"38 334 LINE"
);
}
);
width = 357;
},
{
anchors = (
{
name = bottom;
position = "{28, 0}";
},
{
name = top;
position = "{91, 357}";
}
);
layerId = "543F9737-16F7-428D-9F96-2EBD9FC8D3B6";
name = Light;
paths = (
{
closed = 1;
nodes = (
"6 -190 OFFCURVE",
"54 -145 OFFCURVE",
"66 -78 CURVE SMOOTH",
"143 357 LINE",
"118 357 LINE",
"41 -79 LINE SMOOTH",
"31 -137 OFFCURVE",
"-7 -167 OFFCURVE",
"-52 -167 CURVE SMOOTH",
"-85 -167 OFFCURVE",
"-114 -156 OFFCURVE",
"-132 -146 CURVE",
"-143 -168 LINE",
"-125 -177 OFFCURVE",
"-95 -190 OFFCURVE",
"-57 -190 CURVE SMOOTH"
);
},
{
closed = 1;
nodes = (
"139 334 LINE",
"143 357 LINE",
"26 357 LINE",
"22 334 LINE"
);
}
);
width = 228;
},
{
anchors = (
{
name = bottom;
position = "{71, 0}";
},
{
name = top;
position = "{134, 436}";
}
);
layerId = "EB38A4D2-CD30-49BA-8E45-1F04A566FFE8";
name = Bold;
paths = (
{
closed = 1;
nodes = (
"40 -190 OFFCURVE",
"123 -128 OFFCURVE",
"145 -7 CURVE SMOOTH",
"209 357 LINE",
"96 357 LINE",
"31 -9 LINE SMOOTH",
"22 -61 OFFCURVE",
"-7 -89 OFFCURVE",
"-44 -89 CURVE SMOOTH",
"-68 -89 OFFCURVE",
"-82 -84 OFFCURVE",
"-108 -75 CURVE",
"-153 -170 LINE",
"-127 -178 OFFCURVE",
"-106 -190 OFFCURVE",
"-56 -190 CURVE SMOOTH"
);
},
{
closed = 1;
nodes = (
"163 267 LINE",
"179 357 LINE",
"25 357 LINE",
"9 267 LINE"
);
}
);
width = 245;
}
);
leftKerningGroup = jdotless;
leftMetricsKey = "=j";
rightKerningGroup = jdotless;
rightMetricsKey = "=j";
unicode = 0237;
},
